<svg width="548" height="784" viewBox="0 0 548 784" fill="none" xmlns="http://www.w3.org/2000/svg">
<rect width="496" height="784" fill="#7F56D9"/>
<circle cx="256.5" cy="391.5" r="216.5" fill="#D6BBFB"/>
<g clip-path="url(#clip0_39_247)">
<path d="M176.544 273.781C175.27 272.364 174.095 270.86 173.028 269.28L195.356 264.053L170.951 265.873C168.268 260.928 166.62 255.487 166.109 249.882C165.598 244.277 166.234 238.627 167.98 233.277L201.877 248.092L170.178 227.886C172.68 222.799 176.202 218.283 180.524 214.618C184.846 210.954 189.875 208.22 195.299 206.586C200.722 204.952 206.423 204.454 212.047 205.123C217.671 205.791 223.097 207.612 227.988 210.472C232.878 213.332 237.128 217.169 240.473 221.745C243.818 226.321 246.185 231.537 247.428 237.069C248.672 242.601 248.764 248.33 247.699 253.899C246.635 259.469 244.436 264.759 241.24 269.44C243.226 271.646 244.968 274.06 246.437 276.639L218.152 293.849L248.697 281.253C251.325 287.599 252.332 294.502 251.626 301.336C250.919 308.17 248.522 314.72 244.651 320.393C249.398 325.667 252.707 332.079 254.258 339.007C255.809 345.935 255.549 353.147 253.505 359.946C251.461 366.745 247.701 372.901 242.587 377.821C237.474 382.741 231.18 386.258 224.314 388.032C224.961 389.532 225.344 391.133 225.448 392.763C225.633 395.174 225.173 397.591 224.115 399.765C225.432 401.789 226.208 404.117 226.369 406.527C226.53 408.936 226.072 411.347 225.037 413.529C226.353 415.553 227.129 417.881 227.291 420.29C227.452 422.7 226.993 425.111 225.958 427.292C227.275 429.316 228.051 431.644 228.212 434.054C228.373 436.464 227.914 438.875 226.879 441.056C228.217 443.069 228.995 445.403 229.133 447.818C229.55 454.037 226.04 459.337 221.295 459.655C216.55 459.974 212.366 455.19 211.949 448.971C211.764 446.56 212.224 444.143 213.282 441.969C211.965 439.945 211.189 437.617 211.028 435.207C210.867 432.797 211.325 430.386 212.361 428.205C211.044 426.181 210.268 423.853 210.107 421.443C209.945 419.034 210.404 416.623 211.439 414.441C210.123 412.418 209.347 410.09 209.185 407.68C209.024 405.27 209.483 402.859 210.518 400.678C209.18 398.664 208.402 396.33 208.264 393.916C208.147 392.263 208.32 390.602 208.776 389.008C201.771 388.111 195.114 385.428 189.441 381.216C183.769 377.005 179.271 371.406 176.379 364.956C173.487 358.506 172.297 351.42 172.923 344.377C173.549 337.335 175.97 330.571 179.955 324.734C173.763 317.853 170.06 309.089 169.442 299.849C168.823 290.608 171.324 281.427 176.544 273.781Z" fill="#F2F2F2"/>
<path d="M131.484 455.892C131.484 461.981 174.37 482.845 225.461 482.845C276.553 482.845 316.502 461.981 316.502 455.892C316.502 449.802 276.553 460.792 225.461 460.792C174.37 460.792 131.484 449.802 131.484 455.892Z" fill="#3F3D56"/>
<path opacity="0.1" d="M131.484 455.892C131.484 461.981 174.37 482.845 225.461 482.845C276.553 482.845 316.502 461.981 316.502 455.892C316.502 449.802 276.553 460.792 225.461 460.792C174.37 460.792 131.484 449.802 131.484 455.892Z" fill="black"/>
<path d="M223.993 466.918C172.902 466.918 131.484 461.981 131.484 455.892C131.484 449.802 172.902 444.865 223.993 444.865C275.084 444.865 316.502 449.802 316.502 455.892C316.502 461.981 275.084 466.918 223.993 466.918Z" fill="#3F3D56"/>
<path opacity="0.1" d="M221.805 466.294C204.477 466.294 190.43 462.275 190.43 457.319C190.43 452.362 204.477 448.344 221.805 448.344C239.132 448.344 253.179 452.362 253.179 457.319C253.179 462.275 239.132 466.294 221.805 466.294Z" fill="black"/>
<path d="M214.921 397.718C213.721 395.62 213.1 393.239 213.124 390.821C213.124 384.587 216.979 379.534 221.735 379.534C226.491 379.534 230.347 384.587 230.347 390.821C230.37 393.239 229.75 395.62 228.549 397.718C229.728 399.825 230.347 402.2 230.347 404.615C230.347 407.03 229.728 409.405 228.549 411.512C229.728 413.62 230.347 415.995 230.347 418.41C230.347 420.825 229.728 423.2 228.549 425.307C229.728 427.414 230.347 429.789 230.347 432.204C230.347 434.619 229.728 436.994 228.549 439.102C229.75 441.2 230.37 443.581 230.347 445.999C230.347 452.232 226.491 457.285 221.735 457.285C216.979 457.285 213.124 452.232 213.124 445.999C213.1 443.581 213.721 441.2 214.921 439.102C213.743 436.994 213.124 434.619 213.124 432.204C213.124 429.789 213.743 427.414 214.921 425.307C213.743 423.2 213.124 420.825 213.124 418.41C213.124 415.995 213.743 413.62 214.921 411.512C213.743 409.405 213.124 407.03 213.124 404.615C213.124 402.2 213.743 399.825 214.921 397.718Z" fill="#3F3D56"/>
<path d="M221.735 388.313C216.979 388.313 213.124 383.259 213.124 377.026C213.124 370.793 216.979 365.74 221.735 365.74C226.491 365.74 230.346 370.793 230.346 377.026C230.346 383.259 226.491 388.313 221.735 388.313Z" fill="#3F3D56"/>
<path d="M221.735 374.518C216.979 374.518 213.124 369.465 213.124 363.232C213.124 356.998 216.979 351.945 221.735 351.945C226.491 351.945 230.346 356.998 230.346 363.232C230.346 369.465 226.491 374.518 221.735 374.518Z" fill="#3F3D56"/>
<path d="M189.499 268.831C188.322 267.331 187.251 265.752 186.292 264.105L208.918 260.384L184.447 260.566C182.099 255.453 180.819 249.913 180.683 244.286C180.548 238.66 181.561 233.065 183.659 227.844L216.491 244.896L186.212 222.612C189.049 217.704 192.865 213.434 197.422 210.067C201.979 206.7 207.179 204.309 212.7 203.042C218.22 201.775 223.942 201.66 229.508 202.703C235.075 203.747 240.368 205.927 245.056 209.108C249.745 212.289 253.729 216.402 256.76 221.191C259.792 225.981 261.806 231.344 262.677 236.947C263.548 242.55 263.257 248.272 261.823 253.758C260.388 259.243 257.841 264.374 254.34 268.831C256.174 271.165 257.751 273.69 259.044 276.362L229.673 291.64L260.991 281.116C263.19 287.625 263.733 294.579 262.572 301.351C261.411 308.122 258.582 314.497 254.34 319.898C259.126 325.989 262.103 333.306 262.931 341.012C263.759 348.718 262.404 356.501 259.022 363.472C255.64 370.444 250.367 376.322 243.806 380.434C237.245 384.546 229.66 386.727 221.919 386.727C214.179 386.727 206.594 384.546 200.033 380.434C193.471 376.322 188.198 370.444 184.816 363.472C181.434 356.501 180.08 348.718 180.908 341.012C181.736 333.306 184.713 325.989 189.499 319.898C183.78 312.618 180.671 303.626 180.671 294.364C180.671 285.103 183.78 276.111 189.499 268.831Z" fill="#9E77ED"/>
<path opacity="0.1" d="M263.168 294.364C263.182 303.628 260.072 312.625 254.341 319.898C259.126 325.989 262.103 333.306 262.931 341.012C263.759 348.718 262.405 356.501 259.023 363.472C255.641 370.444 250.368 376.322 243.807 380.434C237.245 384.546 229.661 386.727 221.92 386.727C214.179 386.727 206.594 384.546 200.033 380.434C193.472 376.322 188.199 370.444 184.817 363.472C181.435 356.501 180.08 348.718 180.908 341.012C181.736 333.306 184.713 325.989 189.499 319.898C183.971 312.871 263.168 289.729 263.168 294.364Z" fill="black"/>
<path d="M74.8512 334.976L65.5606 326.681C84.0041 323.246 102.514 339.491 107.344 363.14C107.505 363.172 107.664 363.211 107.821 363.259L118.297 328.858C119.069 332.949 119.411 337.11 119.32 341.273L127.49 325.389C130.792 343.158 122.93 359.668 109.732 363.625C110.834 363.627 111.935 363.547 113.025 363.388C113.076 363.381 113.11 363.376 113.11 363.376C113.195 364.253 113.17 365.136 113.036 366.007C112.978 366.495 112.77 366.952 112.44 367.316C112.037 367.678 110.901 368.178 109.412 368.693C109.298 368.733 109.181 368.773 109.062 368.813C108.114 369.131 107.043 369.452 105.938 369.748C104.557 370.117 103.122 370.447 101.807 370.681C101.664 370.706 101.533 370.722 101.41 370.732C101.37 370.736 101.335 370.735 101.297 370.737C101.217 370.74 101.139 370.743 101.067 370.74C101.028 370.738 100.992 370.734 100.955 370.73C100.894 370.725 100.834 370.717 100.775 370.705C100.742 370.698 100.71 370.69 100.679 370.682C100.629 370.668 100.579 370.65 100.531 370.629C100.506 370.618 100.48 370.608 100.457 370.595C100.412 370.571 100.37 370.543 100.33 370.512C100.314 370.499 100.296 370.488 100.281 370.474C100.236 370.432 100.195 370.386 100.16 370.335C100.157 370.33 100.152 370.326 100.149 370.321C100.109 370.26 100.078 370.196 100.054 370.128C100.052 370.123 100.051 370.118 100.05 370.114C100.028 370.048 100.011 369.98 100.001 369.912C99.9998 369.907 99.998 369.903 99.9973 369.899L99.9993 369.901C99.7592 368.315 101.978 364.959 102.007 364.01C102.034 363.101 104.26 362.857 106.079 362.98L71.8932 335.35C72.8712 335.169 73.8588 335.044 74.8512 334.976Z" fill="#F2F2F2"/>
<path d="M47.9999 368.094C47.9999 372.223 77.0788 386.37 111.721 386.37C146.364 386.37 173.451 372.223 173.451 368.094C173.451 363.965 146.364 371.417 111.721 371.417C77.0788 371.417 47.9999 363.965 47.9999 368.094Z" fill="#3F3D56"/>
<path opacity="0.1" d="M47.9999 368.094C47.9999 372.223 77.0788 386.37 111.721 386.37C146.364 386.37 173.451 372.223 173.451 368.094C173.451 363.965 146.364 371.417 111.721 371.417C77.0788 371.417 47.9999 363.965 47.9999 368.094Z" fill="black"/>
<path d="M110.726 375.571C76.0831 375.571 47.9999 372.224 47.9999 368.094C47.9999 363.965 76.0831 360.618 110.726 360.618C145.368 360.618 173.451 363.965 173.451 368.094C173.451 372.224 145.368 375.571 110.726 375.571Z" fill="#3F3D56"/>
<path opacity="0.1" d="M110.749 372.556C103.323 372.556 97.3029 370.547 97.3029 368.068C97.3029 365.59 103.323 363.581 110.749 363.581C118.175 363.581 124.195 365.59 124.195 368.068C124.195 370.547 118.175 372.556 110.749 372.556Z" fill="black"/>
<path d="M138.708 330.874C138.708 349.927 126.769 365.344 112.016 365.344L138.708 330.874Z" fill="#3F3D56"/>
<path d="M112.016 365.344C112.016 346.078 98.6931 330.487 82.229 330.487L112.016 365.344Z" fill="#9E77ED"/>
<path d="M129.037 332.602C129.037 350.7 121.424 365.344 112.016 365.344L129.037 332.602Z" fill="#9E77ED"/>
<path d="M112.016 365.344C112.016 340.726 96.6168 320.805 77.5869 320.805L112.016 365.344Z" fill="#3F3D56"/>
<path d="M117.631 365.587C117.631 365.587 113.845 365.471 112.705 364.657C111.564 363.844 106.882 362.873 106.599 364.177C106.316 365.482 100.91 370.665 105.184 370.699C109.457 370.734 115.114 370.033 116.252 369.338C117.391 368.644 117.631 365.587 117.631 365.587Z" fill="#A8A8A8"/>
<path opacity="0.2" d="M105.108 370.245C109.381 370.28 115.038 369.579 116.176 368.884C117.043 368.355 117.389 366.458 117.505 365.582C117.585 365.586 117.631 365.587 117.631 365.587C117.631 365.587 117.391 368.644 116.252 369.338C115.114 370.033 109.457 370.734 105.184 370.699C103.95 370.689 103.524 370.25 103.547 369.599C103.719 369.992 104.189 370.238 105.108 370.245Z" fill="black"/>
<path d="M445.539 315.757L440.738 323.371C442.346 325.524 443.487 327.864 442.755 329.411C440.951 333.225 436.808 338.155 434.598 340.784C432.388 343.414 432.08 350.452 417.087 349.611C402.094 348.769 396.028 341.975 396.028 341.975C396.028 341.975 394.7 354.3 388.326 358.71C388.866 359.457 389.591 360.051 390.429 360.432C397.165 363.58 404.516 388.726 409.61 402.54C415.169 417.609 406.722 414.984 406.722 414.984C403.892 415.03 401.292 415.18 398.906 415.407C396.131 422.765 391.729 438.498 396.891 454.701C400.502 466.034 399.743 477.978 398.128 486.974L401.499 490.584C405.257 491.784 406.372 494.127 406.372 494.127L415.021 506.186L413.588 507.224L408.403 500.049C408.403 500.049 407.272 501.061 405.719 504.244C404.166 507.426 408.583 519.85 408.662 520.758C408.74 521.666 404.726 528.109 399.113 530.117C398.73 530.262 398.32 530.324 397.911 530.299L398.425 536.274L395.376 536.232L394.439 525.337C394.439 525.337 392.087 540.478 391.613 542.044C391.138 543.609 386.25 543.421 381.138 544.166C376.025 544.912 370.945 538.947 376.151 535.755C381.358 532.562 382.01 522.445 382.01 522.445C379.546 515.036 385.113 505.41 385.113 505.41L385.75 498.648C385.871 498.922 386.052 499.165 386.28 499.36C386.507 499.555 386.775 499.697 387.065 499.774L386.304 490.926C380.494 484.235 372.899 475.304 368.967 469.913C362.063 460.447 362.433 457.672 362.433 457.672L355.356 426.248C353.005 426.427 350.643 426.383 348.301 426.117C343.511 425.393 345.298 409.64 348.068 396.938C347.342 393.929 346.192 389.787 344.383 384.093C343.514 381.352 342.941 378.525 342.675 375.661C341.581 364.068 345.581 354.373 347.319 350.794L346.718 349.274C346.718 349.274 341.186 343.226 345.515 332.992C345.268 331.91 345.096 330.811 345.003 329.705C344.614 324.815 345.695 319.921 348.105 315.65C348.135 315.6 348.163 315.55 348.194 315.505L348.225 315.456L348.233 315.455C348.273 315.398 348.316 315.344 348.363 315.292C350.121 313.499 359.09 310.105 360.916 309.425C361.017 309.363 361.129 309.321 361.246 309.303C361.919 309.246 361.212 306.29 360.452 303.678C359.507 302.943 358.669 302.078 357.964 301.111C354.201 299.574 350.884 297.117 348.317 293.963C345.75 290.809 344.015 287.06 343.272 283.06C342.529 279.06 342.802 274.937 344.064 271.07C345.327 267.203 347.539 263.716 350.499 260.928C349.455 259.468 348.73 257.805 348.372 256.046C348.014 254.287 348.031 252.473 348.421 250.721C348.811 248.969 349.566 247.319 350.636 245.879C351.706 244.439 353.067 243.241 354.631 242.363C352.181 244.396 350.579 247.274 350.14 250.429C349.702 253.585 350.458 256.791 352.26 259.417C352.532 259.205 352.808 258.999 353.089 258.798C352.415 256.957 352.173 254.985 352.383 253.036C352.593 251.086 353.25 249.211 354.301 247.557C355.353 245.902 356.771 244.512 358.446 243.496C360.121 242.479 362.007 241.863 363.959 241.694C365.91 241.526 367.874 241.811 369.698 242.526C371.522 243.241 373.156 244.367 374.475 245.818C375.793 247.268 376.76 249.003 377.3 250.888C377.84 252.773 377.938 254.757 377.588 256.687C381.339 258.478 384.567 261.205 386.963 264.604C389.36 268.004 390.844 271.962 391.274 276.101C391.703 280.239 391.064 284.419 389.417 288.239C387.77 292.059 385.171 295.392 381.868 297.918C384.296 299.051 386.957 299.59 389.634 299.492C392.31 299.393 394.925 298.659 397.263 297.351C394.816 299.378 391.848 300.675 388.699 301.093C385.55 301.51 382.348 301.032 379.458 299.712C378.376 301.694 376.79 303.355 374.861 304.526C375.066 305.106 375.34 305.659 375.678 306.173L376.453 305.554L379.814 309.227L388.486 310.919C388.486 310.919 394.031 311.66 400.346 317.823C406.662 323.986 417.277 327.034 417.277 327.034L425.61 324.791C425.61 324.791 435.194 319.392 435.09 318.182C435.074 317.989 435.304 318.047 435.693 318.294L440.381 308.885C440.381 308.885 449.164 287.092 454.797 292.399C460.43 297.705 445.539 315.757 445.539 315.757ZM383.662 460.206L383.446 457.69C380.604 453.671 379.009 443.76 378.12 434.574L379.412 456.818C381.023 457.679 382.463 458.827 383.662 460.206ZM395.26 507.263L395.306 510.629C396.224 512.275 396.914 514.04 397.356 515.873C397.621 514.265 396.513 510.65 395.26 507.263Z" fill="#F2F2F2"/>
<path d="M241.141 538.298C241.141 548.397 312.269 583 397.006 583C481.743 583 548 548.397 548 538.298C548 528.198 481.743 546.425 397.006 546.425C312.269 546.425 241.141 528.198 241.141 538.298Z" fill="#3F3D56"/>
<path opacity="0.1" d="M241.141 538.298C241.141 548.397 312.269 583 397.006 583C481.743 583 548 548.397 548 538.298C548 528.198 481.743 546.425 397.006 546.425C312.269 546.425 241.141 528.198 241.141 538.298Z" fill="black"/>
<path d="M394.57 556.585C309.834 556.585 241.141 548.397 241.141 538.298C241.141 528.198 309.834 520.01 394.57 520.01C479.307 520.01 548 528.198 548 538.298C548 548.397 479.307 556.585 394.57 556.585Z" fill="#3F3D56"/>
<path opacity="0.1" d="M393.618 546.07C365.563 546.07 342.821 541.159 342.821 535.101C342.821 529.043 365.563 524.132 393.618 524.132C421.672 524.132 444.415 529.043 444.415 535.101C444.415 541.159 421.672 546.07 393.618 546.07Z" fill="black"/>
<path d="M398.789 296.793C396.664 295.176 394.952 293.079 393.793 290.673C392.633 288.267 392.059 285.62 392.118 282.949C392.176 280.278 392.865 277.658 394.129 275.305C395.392 272.952 397.194 270.932 399.388 269.41C397.247 270.378 395.332 271.783 393.764 273.534C392.196 275.285 391.009 277.344 390.28 279.58C389.552 281.816 389.296 284.179 389.53 286.519C389.764 288.859 390.483 291.125 391.64 293.171C392.798 295.218 394.369 297 396.252 298.405C398.136 299.81 400.292 300.806 402.582 301.33C404.872 301.855 407.245 301.895 409.552 301.45C411.858 301.004 414.047 300.083 415.978 298.743C413.203 299.999 410.141 300.48 407.115 300.137C404.089 299.794 401.212 298.638 398.789 296.793Z" fill="#2F2E41"/>
<path d="M368.3 312.57H365.57C363.552 315.45 362.181 318.733 361.553 322.194C360.924 325.655 361.053 329.211 361.929 332.617C364.963 344.16 362.536 346.286 362.536 346.286C362.536 346.286 351.614 361.777 355.861 380.609C360.109 399.441 358.895 401.567 358.895 401.567L366.48 386.38L370.727 346.286L368.3 312.57Z" fill="#9E77ED"/>
<path opacity="0.1" d="M368.3 312.586H365.57C363.552 315.465 362.181 318.749 361.553 322.21C360.924 325.67 361.053 329.226 361.929 332.633C364.963 344.175 362.536 346.301 362.536 346.301C362.536 346.301 351.614 361.792 355.861 380.624C360.109 399.457 358.895 401.583 358.895 401.583L366.48 386.396L370.727 346.301L368.3 312.586Z" fill="black"/>
<path d="M387.565 301.787C374.16 301.787 363.294 290.908 363.294 277.488C363.294 264.068 374.16 253.188 387.565 253.188C400.969 253.188 411.835 264.068 411.835 277.488C411.835 290.908 400.969 301.787 387.565 301.787Z" fill="#2F2E41"/>
<path d="M377.857 297.839C377.857 297.839 380.284 307.558 379.07 307.558C377.857 307.558 373.609 312.722 373.609 312.722L370.879 322.746L373.003 330.036L380.284 328.517L389.385 318.493L392.115 315.76L394.542 306.951C394.542 306.951 391.509 303.306 393.632 300.269C395.756 297.231 377.857 297.839 377.857 297.839Z" fill="#FBBEBE"/>
<path opacity="0.1" d="M377.857 297.839C377.857 297.839 380.284 307.558 379.07 307.558C377.857 307.558 373.609 312.722 373.609 312.722L370.879 322.746L373.003 330.036L380.284 328.517L389.385 318.493L392.115 315.76L394.542 306.951C394.542 306.951 391.509 303.306 393.632 300.269C395.756 297.231 377.857 297.839 377.857 297.839Z" fill="black"/>
<path d="M451.274 324.872L457.949 313.937C457.949 313.937 465.153 297.977 470.311 303.748C475.468 309.519 462.499 321.227 462.499 321.227L455.825 330.036L451.274 324.872Z" fill="#FBBEBE"/>
<path d="M362.688 419.944L367.542 455.482C367.542 455.482 366.935 458.215 373.002 468.239C379.07 478.263 395.453 500.132 395.453 500.132L400.307 491.02C400.307 491.02 394.542 462.164 384.531 456.089L385.744 412.35L362.688 419.944Z" fill="#FBBEBE"/>
<path opacity="0.1" d="M362.688 419.944L367.542 455.482C367.542 455.482 366.935 458.215 373.002 468.239C379.07 478.263 395.453 500.132 395.453 500.132L400.307 491.02C400.307 491.02 394.542 462.164 384.531 456.089L385.744 412.35L362.688 419.944Z" fill="black"/>
<path d="M400.306 487.375L393.632 500.132C393.632 500.132 399.093 515.623 396.969 517.142C394.846 518.66 392.115 532.329 397.879 530.81C403.644 529.291 408.194 523.217 408.194 522.305C408.194 521.394 404.857 508.637 406.677 505.599C408.498 502.562 409.711 501.651 409.711 501.651L414.262 509.244L415.779 508.333L408.194 495.576C408.194 495.576 407.284 493.146 403.644 491.627L400.306 487.375Z" fill="#2F2E41"/>
<path opacity="0.1" d="M400.306 487.375L393.632 500.132C393.632 500.132 399.093 515.623 396.969 517.142C394.846 518.66 392.115 532.329 397.879 530.81C403.644 529.291 408.194 523.217 408.194 522.305C408.194 521.394 404.857 508.637 406.677 505.599C408.498 502.562 409.711 501.651 409.711 501.651L414.262 509.244L415.779 508.333L408.194 495.576C408.194 495.576 407.284 493.146 403.644 491.627L400.306 487.375Z" fill="black"/>
<path d="M385.674 414.902C385.674 414.902 383.317 448.496 388.475 457.304V501.043L395.453 501.955C395.453 501.955 407.284 478.263 402.127 455.482C396.969 432.701 409.711 412.35 409.711 412.35L385.674 414.902Z" fill="#FBBEBE"/>
<path d="M387.413 305.28C380.376 305.28 374.671 299.569 374.671 292.523C374.671 285.478 380.376 279.766 387.413 279.766C394.45 279.766 400.155 285.478 400.155 292.523C400.155 299.569 394.45 305.28 387.413 305.28Z" fill="#FBBEBE"/>
<path d="M374.519 326.087L387.261 309.988L394.542 305.129L397.576 309.077L406.071 311.507C406.071 311.507 411.532 312.722 417.296 319.405C423.06 326.087 433.375 330.036 433.375 330.036L441.87 328.517C441.87 328.517 451.881 323.961 451.881 322.746C451.881 321.531 460.679 330.947 458.555 334.592C456.432 338.237 451.881 342.793 449.454 345.223C447.027 347.653 446.117 354.639 431.251 352.513C416.386 350.386 410.925 343.097 410.925 343.097C410.925 343.097 408.194 357.069 400.307 359.802C392.419 362.536 366.631 364.359 366.631 364.359L361.171 346.134C361.171 346.134 355.103 338.237 363.294 326.694C363.294 326.694 363.452 320.239 364.332 315.944C364.675 314.273 365.127 312.929 365.721 312.418C367.845 310.596 379.07 307.558 379.07 307.558C379.07 307.558 377.25 313.633 376.34 313.937C375.429 314.241 373.306 324.568 374.519 326.087Z" fill="#9E77ED"/>
<path d="M415.324 416.754C400.045 415.691 391.15 418.197 387.182 420.108C386.444 420.442 385.75 420.864 385.113 421.365C384.822 421.611 384.682 421.803 384.682 421.918C384.682 422.829 363.749 424.652 356.165 422.829C348.58 421.007 361.322 381.824 364.659 378.483C367.996 375.142 366.197 362.913 366.197 362.913C366.197 362.913 372.85 361.473 374.671 362.081C376.491 362.688 385.896 361.169 389.233 359.347C392.57 357.524 396.818 358.739 399.548 358.132C400.768 357.862 401.383 358.317 401.69 358.906C402.167 359.79 402.887 360.519 403.765 361.005C410.206 364.72 415.375 390.405 419.268 404.605C423.515 420.096 415.324 416.754 415.324 416.754Z" fill="#2F2E41"/>
<path d="M387.261 498.31L386.047 504.992C386.047 504.992 379.677 514.104 381.497 521.698C381.497 521.698 379.98 531.721 374.519 534.455C369.058 537.189 373.609 543.567 378.766 543.264C383.924 542.96 388.778 543.567 389.385 542.049C389.991 540.53 393.632 525.647 393.632 525.647V536.581L396.666 536.885V523.217C396.666 523.217 399.093 518.66 395.756 511.067L396.598 499.411C396.598 499.411 388.171 501.347 387.261 498.31Z" fill="#2F2E41"/>
<path d="M387.565 265.946C380.528 265.946 374.823 260.234 374.823 253.188C374.823 246.143 380.528 240.431 387.565 240.431C394.602 240.431 400.307 246.143 400.307 253.188C400.307 260.234 394.602 265.946 387.565 265.946Z" fill="#2F2E41"/>
<path d="M377.763 260.94C376.161 259.721 374.871 258.14 373.997 256.326C373.123 254.512 372.69 252.517 372.734 250.503C372.778 248.49 373.297 246.515 374.25 244.741C375.202 242.967 376.561 241.444 378.214 240.297C376.601 241.027 375.157 242.086 373.975 243.406C372.793 244.726 371.898 246.279 371.349 247.964C370.799 249.649 370.607 251.431 370.783 253.195C370.96 254.959 371.502 256.667 372.374 258.21C373.247 259.752 374.431 261.096 375.851 262.155C377.271 263.214 378.896 263.965 380.622 264.36C382.348 264.756 384.138 264.786 385.877 264.451C387.615 264.115 389.265 263.42 390.721 262.41C388.629 263.357 386.321 263.72 384.04 263.461C381.759 263.202 379.59 262.331 377.763 260.94Z" fill="#2F2E41"/>
<path d="M387.261 292.675C380.057 292.675 374.216 288.051 374.216 282.348C374.216 276.644 380.057 272.021 387.261 272.021C394.466 272.021 400.307 276.644 400.307 282.348C400.307 288.051 394.466 292.675 387.261 292.675Z" fill="#2F2E41"/>
<path opacity="0.1" d="M387.182 420.108C386.444 420.442 385.75 420.864 385.113 421.365C384.952 418.495 384.024 401.136 385.137 401.415L387.182 420.108Z" fill="black"/>
<path d="M494.215 317.709C470.562 317.709 451.387 298.511 451.387 274.829C451.387 251.147 470.562 231.949 494.215 231.949C517.869 231.949 537.044 251.147 537.044 274.829C537.044 298.511 517.869 317.709 494.215 317.709Z" fill="#FF6584"/>
<path d="M465.655 310.204C465.307 309.454 466.441 308.189 468.188 307.377C469.934 306.566 471.631 306.515 471.979 307.265C472.326 308.014 471.192 309.279 469.446 310.091C467.7 310.903 466.002 310.953 465.655 310.204Z" fill="#FBBEBE"/>
</g>
<defs>
<clipPath id="clip0_39_247">
<rect width="500" height="381" fill="white" transform="matrix(-1 0 0 1 548 202)"/>
</clipPath>
</defs>
</svg>
