<svg width="48" height="48" viewBox="0 0 48 48" fill="none" xmlns="http://www.w3.org/2000/svg">
<rect width="48" height="48" rx="8" fill="#164863"/>
<path fill-rule="evenodd" clip-rule="evenodd" d="M22.83 7.65833C23.4877 7.41225 24.2063 7.38017 24.8833 7.56666L25.17 7.65833L36.8367 12.0333C37.4282 12.2551 37.9445 12.6405 38.3255 13.1445C38.7064 13.6485 38.9363 14.2504 38.9883 14.88L39 15.155V24.0933C38.9999 26.794 38.2707 29.4446 36.8893 31.7653C35.508 34.086 33.5257 35.9907 31.1517 37.2783L30.7083 37.51L25.1183 40.305C24.8105 40.4587 24.4743 40.5472 24.1308 40.565C23.7872 40.5827 23.4437 40.5294 23.1217 40.4083L22.8817 40.305L17.2917 37.51C14.876 36.3021 12.8313 34.4645 11.3733 32.191C9.91539 29.9175 9.0983 27.2926 9.00833 24.5933L9 24.0933V15.155C9.00001 14.5235 9.17938 13.9051 9.51722 13.3716C9.85507 12.8381 10.3375 12.4116 10.9083 12.1417L11.1633 12.0333L22.83 7.65833ZM24 10.78L12.3333 15.155V24.0933C12.3334 26.185 12.8958 28.2382 13.9616 30.038C15.0274 31.8377 16.5575 33.3178 18.3917 34.3233L18.7833 34.5283L24 37.1367L29.2167 34.5283C31.0879 33.5929 32.6731 32.1715 33.8064 30.4131C34.9397 28.6547 35.5794 26.6238 35.6583 24.5333L35.6667 24.0933V15.155L24 10.78ZM23.18 16.5267C23.6313 16.3577 24.1239 16.3327 24.59 16.455L24.82 16.5267L29.4867 18.2767C29.896 18.4302 30.254 18.6957 30.5198 19.0428C30.7856 19.3899 30.9485 19.8048 30.99 20.24L31 20.4617V24.0367C31 25.2755 30.6712 26.4921 30.0472 27.5624C29.4233 28.6326 28.5264 29.518 27.4483 30.1283L27.1317 30.2983L24.895 31.415C24.6527 31.5363 24.3884 31.6071 24.1179 31.6232C23.8475 31.6392 23.5766 31.6001 23.3217 31.5083L23.105 31.4167L20.87 30.2983C19.7621 29.7443 18.8211 28.9063 18.143 27.8698C17.4648 26.8333 17.0739 25.6353 17.01 24.3983L17 24.0367V20.4617C17.0001 20.0246 17.1229 19.5963 17.3545 19.2256C17.5861 18.8549 17.9172 18.5567 18.31 18.365L18.5133 18.2767L23.18 16.5267ZM24 19.78L20.3333 21.155V24.0383C20.3335 24.672 20.4979 25.2947 20.8104 25.8459C21.123 26.3971 21.573 26.8579 22.1167 27.1833L22.36 27.3167L24 28.1367L25.64 27.3167C26.2071 27.0331 26.691 26.6074 27.0445 26.081C27.398 25.5546 27.6089 24.9456 27.6567 24.3133L27.6667 24.0367V21.155L24 19.78Z" fill="white"/>
</svg>
