<svg width="503" height="425" viewBox="0 0 503 425" fill="none" xmlns="http://www.w3.org/2000/svg">
<g clip-path="url(#clip0_37_81)">
<path d="M409.654 205.12C409.654 211.092 409.403 217.004 408.902 222.855C408.507 227.422 407.968 231.948 407.285 236.433C406.56 241.182 405.671 245.874 404.618 250.509V250.514C403.93 253.564 403.175 256.589 402.352 259.59C399.963 268.312 396.992 276.863 393.46 285.187C392.692 286.998 391.899 288.796 391.081 290.582C387.986 297.346 384.521 303.933 380.701 310.314C369.988 328.234 356.615 344.417 341.042 358.309C339.357 359.81 337.648 361.286 335.916 362.738C299.146 393.498 252.738 410.315 204.827 410.241C91.7027 410.241 0 318.407 0 205.12C0 91.834 91.7027 -0.000173189 204.827 -0.000173189C251.088 -0.0732213 296 15.6082 332.188 44.4693C333.884 45.8154 335.559 47.1918 337.212 48.5985C345.282 55.4517 352.812 62.9165 359.738 70.9267H359.743C392 108.164 409.727 155.824 409.654 205.12Z" fill="#F2F2F2"/>
<path d="M60.4645 240.553C40.9524 228.923 26.2254 207.188 28.1373 184.53C45.9762 201.628 69.2793 211.856 93.9235 213.404C103.43 213.967 114.062 213.602 121.06 220.07C125.414 224.095 127.441 230.154 127.773 236.078C128.106 242.003 126.921 247.896 125.742 253.711L126.147 255.136C103.441 255.221 79.9767 252.182 60.4645 240.553Z" fill="#E6E6E6"/>
<path d="M28.6132 184.506C36.4312 201.622 49.4358 215.836 65.7798 225.128C69.2934 227.098 73.0289 228.79 76.9984 229.574C80.8735 230.31 84.8746 229.992 88.5857 228.655C92.0711 227.478 95.5001 225.87 99.2104 225.562C103.121 225.237 106.742 226.748 109.587 229.394C113.067 232.632 115.178 236.93 117.097 241.204C119.227 245.95 121.365 250.913 125.449 254.326C125.944 254.74 125.275 255.484 124.78 255.072C117.674 249.134 116.514 239.19 110.834 232.196C108.183 228.933 104.535 226.45 100.2 226.516C96.4101 226.573 92.8727 228.228 89.354 229.451C85.6593 230.734 81.9581 231.337 78.0575 230.773C74.0675 230.195 70.2581 228.646 66.7096 226.775C58.6946 222.472 51.405 216.934 45.1079 210.364C37.8794 202.905 31.9783 194.263 27.6599 184.811C27.3929 184.226 28.3479 183.924 28.6132 184.506Z" fill="white"/>
<path d="M60.3413 222.446C58.4121 224.981 55.6462 226.746 52.5374 227.427C49.4286 228.107 46.1794 227.659 43.37 226.162C42.8026 225.857 43.249 224.96 43.8172 225.265C46.4306 226.664 49.4573 227.081 52.3509 226.442C55.2446 225.802 57.8145 224.147 59.5969 221.777C59.9849 221.262 60.7271 221.935 60.3413 222.446Z" fill="white"/>
<path d="M86.897 229.485C86.085 223.021 82.8703 217.102 77.8937 212.907C77.4003 212.491 78.0697 211.746 78.5625 212.161C83.7332 216.536 87.0662 222.704 87.8963 229.432C87.975 230.073 86.9752 230.123 86.897 229.485Z" fill="white"/>
<path d="M39.1203 202.435C40.0708 201.61 40.8018 200.561 41.2478 199.384C41.6937 198.206 41.8405 196.936 41.6751 195.687C41.5883 195.047 42.5882 194.998 42.6744 195.634C42.8508 197.014 42.6869 198.417 42.1971 199.719C41.7073 201.021 40.9065 202.184 39.8647 203.105C39.7738 203.2 39.6501 203.256 39.5189 203.263C39.3876 203.27 39.2586 203.227 39.1581 203.142C39.0599 203.053 39.0009 202.929 38.9939 202.796C38.9868 202.664 39.0323 202.534 39.1203 202.435Z" fill="white"/>
<path d="M91.2967 140.633C91.3622 141.031 91.4278 141.429 91.5009 141.831C92.4095 147.179 93.7504 152.443 95.5104 157.573C95.6402 157.972 95.7777 158.374 95.9186 158.769C100.29 171.083 106.907 182.477 115.432 192.372C118.829 196.307 122.519 199.977 126.471 203.35C131.929 208.009 138.217 212.626 141.717 218.642C142.089 219.265 142.422 219.911 142.714 220.576L127.851 254.53C127.779 254.59 127.714 254.654 127.641 254.714L127.11 256.097C126.894 255.938 126.673 255.767 126.457 255.607C126.332 255.515 126.209 255.416 126.084 255.323C126.001 255.26 125.918 255.195 125.84 255.143C125.812 255.121 125.785 255.1 125.765 255.082C125.687 255.029 125.62 254.972 125.549 254.922C124.314 253.974 123.083 253.015 121.856 252.045C121.848 252.042 121.848 252.042 121.844 252.031C112.518 244.621 103.727 236.366 96.4676 227.038C96.2493 226.757 96.0231 226.473 95.8115 226.177C92.5625 221.954 89.6635 217.472 87.1435 212.776C85.772 210.2 84.5315 207.557 83.4268 204.855C80.586 197.869 78.8601 190.48 78.3123 182.957C77.2226 167.96 80.9343 152.782 90.5534 141.489C90.7996 141.2 91.0427 140.919 91.2967 140.633Z" fill="#E6E6E6"/>
<path d="M91.6936 140.898C87.6457 159.278 89.4836 178.468 96.9464 195.742C98.5677 199.433 100.533 203.036 103.231 206.056C105.883 208.98 109.268 211.139 113.035 212.309C116.526 213.47 120.231 214.254 123.378 216.245C126.696 218.343 128.679 221.733 129.359 225.561C130.191 230.245 129.293 234.949 128.255 239.519C127.103 244.592 125.826 249.844 127.035 255.032C127.182 255.66 126.199 255.851 126.053 255.224C123.949 246.198 129.001 237.559 128.67 228.55C128.516 224.347 127.095 220.165 123.595 217.603C120.534 215.364 116.715 214.553 113.17 213.407C109.449 212.204 106.131 210.454 103.356 207.652C100.518 204.785 98.4074 201.251 96.6989 197.618C92.8862 189.35 90.3954 180.533 89.3176 171.49C88.0304 161.176 88.5144 150.718 90.7488 140.568C90.8873 139.94 91.8313 140.274 91.6936 140.898Z" fill="white"/>
<path d="M94.2166 190.322C91.1525 191.182 87.8828 190.924 84.9913 189.593C82.0999 188.262 79.775 185.945 78.4319 183.056C78.1621 182.471 79.058 182.023 79.3281 182.61C80.5739 185.302 82.7397 187.46 85.4347 188.694C88.1298 189.928 91.1765 190.156 94.0249 189.338C94.6441 189.161 94.8322 190.146 94.2166 190.322Z" fill="white"/>
<path d="M111.188 211.953C114.426 206.303 115.418 199.638 113.967 193.288C113.822 192.659 114.805 192.468 114.949 193.096C116.447 199.707 115.4 206.641 112.018 212.513C111.696 213.072 110.867 212.51 111.188 211.953Z" fill="white"/>
<path d="M89.3043 161.549C90.5591 161.463 91.7731 161.067 92.8372 160.396C93.9012 159.724 94.7821 158.798 95.4007 157.702C95.7162 157.138 96.5442 157.702 96.2308 158.262C95.5417 159.47 94.5676 160.491 93.3936 161.236C92.2196 161.98 90.8814 162.425 89.4959 162.533C89.3662 162.554 89.2333 162.524 89.1243 162.451C89.0152 162.377 88.9383 162.265 88.909 162.137C88.8843 162.006 88.9119 161.871 88.9859 161.761C89.06 161.651 89.1744 161.575 89.3043 161.549Z" fill="white"/>
<path d="M141.885 47.541L166.955 341.436L116.815 345.212V51.2801C122.79 47.3211 131.367 46.7017 141.885 47.541Z" fill="#CCCCCC"/>
<path d="M265.635 47.541L240.565 341.436L290.705 345.212V51.2801C284.73 47.3211 276.154 46.7017 265.635 47.541Z" fill="#CCCCCC"/>
<path d="M283.197 357.359H123.79C121.233 357.356 118.783 356.337 116.975 354.527C115.168 352.717 114.151 350.263 114.148 347.703V55.5934C114.151 53.0337 115.168 50.5796 116.975 48.7696C118.783 46.9596 121.233 45.9414 123.79 45.9385H283.197C285.754 45.9414 288.204 46.9596 290.012 48.7696C291.819 50.5796 292.836 53.0337 292.839 55.5934V347.703C292.836 350.263 291.819 352.717 290.012 354.527C288.204 356.337 285.754 357.356 283.197 357.359ZM123.79 49.1435C122.082 49.1454 120.445 49.8255 119.237 51.0347C118.03 52.2439 117.351 53.8834 117.349 55.5934V347.703C117.351 349.413 118.03 351.053 119.237 352.262C120.445 353.471 122.082 354.152 123.79 354.154H283.197C284.905 354.152 286.542 353.471 287.75 352.262C288.957 351.053 289.636 349.413 289.638 347.703V55.5934C289.636 53.8834 288.957 52.2439 287.75 51.0347C286.542 49.8256 284.905 49.1454 283.197 49.1435L123.79 49.1435Z" fill="#CCCCCC"/>
<path d="M291.238 94.5478H115.749V97.7528H291.238V94.5478Z" fill="#CCCCCC"/>
<path d="M291.238 147.965H115.749V151.17H291.238V147.965Z" fill="#CCCCCC"/>
<path d="M172.697 47.541H169.496V193.369H172.697V47.541Z" fill="#CCCCCC"/>
<path d="M237.49 47.541H234.29V193.369H237.49V47.541Z" fill="#CCCCCC"/>
<path d="M311.241 366.172H101.08C97.2603 366.172 93.5971 364.653 90.8962 361.948C88.1953 359.243 86.678 355.575 86.678 351.75C86.678 347.925 88.1953 344.256 90.8962 341.552C93.5971 338.847 97.2603 337.327 101.08 337.327H311.241C315.06 337.327 318.724 338.847 321.425 341.552C324.125 344.256 325.643 347.925 325.643 351.75C325.643 355.575 324.125 359.243 321.425 361.948C318.724 364.653 315.06 366.172 311.241 366.172Z" fill="#CCCCCC"/>
<path d="M291.238 185.891H116.815V196.574H291.238V185.891Z" fill="#CCCCCC"/>
<path d="M173.193 219.891L172.972 219.784C161.082 214.032 145.511 214.037 122.484 219.803L122.238 219.864L122.164 219.621C119.728 211.622 116.968 202.563 122.152 198.106C122.225 185.026 133.682 174.406 147.753 174.406C161.823 174.406 173.277 185.021 173.354 198.097C181.066 204.001 177.391 212.727 173.318 219.678L173.193 219.891Z" fill="#2F2E41"/>
<path d="M246.276 191.884C246.063 192.944 245.62 193.944 244.979 194.814C244.338 195.684 243.514 196.403 242.566 196.919C241.618 197.436 240.568 197.739 239.49 197.805C238.413 197.871 237.334 197.701 236.33 197.304L194.309 239.591L190.56 226.461L232.294 187.192C233.071 185.546 234.423 184.243 236.095 183.529C237.767 182.815 239.643 182.74 241.366 183.319C243.09 183.897 244.541 185.089 245.446 186.667C246.351 188.246 246.646 190.102 246.276 191.884Z" fill="#FFB6B6"/>
<path d="M142.423 232.594C142.423 232.594 138.611 241.246 148.018 246.581C157.424 251.917 190.302 244.545 195.637 243.516C200.971 242.487 220.896 212.627 220.896 212.627L218.079 197.982L191.654 220.954L142.423 232.594Z" fill="#427D9D"/>
<path d="M135.484 280.438L136.018 290.588C136.018 290.588 134.443 299.578 135.738 301.518C137.023 303.448 172.09 303.692 172.09 303.692C172.09 303.692 174.407 291.184 176.403 280.235L135.484 280.438Z" fill="#FFB6B6"/>
<path d="M236.305 414.633L243.636 413.15L241.538 383.496L230.718 385.684L236.305 414.633Z" fill="#FFB6B6"/>
<path d="M246.806 376.043L253.622 372.974L244.78 344.601L234.721 349.131L246.806 376.043Z" fill="#FFB6B6"/>
<path d="M252.743 360.056L239.91 367.332L208.262 316.404C186.045 331.393 164.32 338.571 142.419 342.402C135.014 343.722 127.464 343.053 126.043 335.506C125.976 335.153 125.923 334.798 125.884 334.441C125.01 326.197 135.25 315.631 136.551 305.544L164.577 303.859L168.032 308.297L200.443 288.342C206.961 284.329 215.533 286.5 219.59 293.19C219.804 293.543 220.003 293.905 220.187 294.276L252.743 360.056Z" fill="#2F2E41"/>
<path d="M244.889 394.316L230.205 395.683L203.581 341.154C177.18 345.701 152.273 347.158 130.73 341.657C123.435 339.821 118.977 332.278 120.771 324.811C120.855 324.462 120.952 324.117 121.062 323.775C123.64 315.897 130.389 310.323 135.707 301.658L174.547 302.249L170.209 317.239L207.94 312.35C215.528 311.366 222.458 316.866 223.418 324.634C223.469 325.045 223.502 325.456 223.518 325.87L244.889 394.316Z" fill="#2F2E41"/>
<path d="M150.65 212.138C159.361 212.138 166.422 205.067 166.422 196.344C166.422 187.621 159.361 180.55 150.65 180.55C141.94 180.55 134.879 187.621 134.879 196.344C134.879 205.067 141.94 212.138 150.65 212.138Z" fill="#FFB6B6"/>
<path d="M141.404 217.84L155.865 219.544C156.475 219.616 157.047 219.876 157.502 220.289C157.957 220.702 158.272 221.247 158.403 221.848L160.703 232.386L175.039 249.293C175.039 249.293 180.187 258.959 178.257 269.914C176.326 280.87 175.478 289.01 175.478 289.01C175.478 289.01 137.022 303.449 135.735 301.516C134.448 299.583 134.03 290.801 134.03 290.801L128.882 233.448C128.882 233.448 134.674 223.782 137.891 223.782C139.968 223.712 139.701 219.032 141.404 217.84Z" fill="#427D9D"/>
<path d="M175.869 292.536C177.897 292.536 179.541 290.56 179.541 288.123C179.541 285.686 177.897 283.711 175.869 283.711C173.841 283.711 172.197 285.686 172.197 288.123C172.197 290.56 173.841 292.536 175.869 292.536Z" fill="#427D9D"/>
<path d="M232.667 406.997L243.844 401.388L245.95 406.31L260.084 409.171C260.782 409.312 261.417 409.673 261.895 410.201C262.374 410.729 262.672 411.396 262.745 412.106C262.818 412.815 262.662 413.529 262.301 414.144C261.94 414.759 261.393 415.242 260.738 415.523L247.082 421.385L242.645 417.527L243.81 422.79L238.661 425L232.667 406.997Z" fill="#2F2E41"/>
<path d="M243.608 373.682L254.684 367.877L256.877 372.76L271.058 375.372C271.759 375.501 272.4 375.851 272.887 376.37C273.375 376.89 273.685 377.552 273.77 378.26C273.856 378.968 273.713 379.685 273.363 380.306C273.013 380.927 272.473 381.419 271.824 381.712L258.273 387.813L253.769 384.035L255.026 389.276L249.917 391.576L243.608 373.682Z" fill="#2F2E41"/>
<path d="M141.639 191.39C137.473 191.397 133.406 190.112 129.998 187.712L129.884 187.632V187.493C129.888 183.457 131.491 179.587 134.341 176.733C137.191 173.879 141.055 172.274 145.086 172.269H151.487C155.517 172.274 159.381 173.879 162.231 176.733C165.081 179.587 166.684 183.457 166.689 187.493C166.684 188.417 166.32 189.302 165.674 189.961C165.027 190.62 164.149 191 163.227 191.02L141.999 191.387C141.879 191.389 141.759 191.39 141.639 191.39Z" fill="#2F2E41"/>
<path d="M167.755 184.569C169.796 183.389 170.137 180.154 168.517 177.344C166.897 174.533 163.929 173.212 161.888 174.392C159.847 175.572 159.506 178.807 161.126 181.617C162.746 184.428 165.714 185.749 167.755 184.569Z" fill="#2F2E41"/>
<path d="M135.835 181.434C138.126 179.139 138.633 175.926 136.966 174.257C135.3 172.589 132.091 173.096 129.8 175.39C127.509 177.685 127.002 180.898 128.669 182.567C130.335 184.236 133.543 183.729 135.835 181.434Z" fill="#2F2E41"/>
<path d="M275.417 325.843H259.674C259.319 325.842 258.968 325.919 258.646 326.068C258.324 326.217 258.038 326.435 257.808 326.707C257.228 326.6 256.63 326.632 256.064 326.802C255.499 326.971 254.981 327.272 254.554 327.681C254.128 328.089 253.804 328.593 253.609 329.151C253.414 329.709 253.355 330.306 253.435 330.891C253.515 331.477 253.733 332.035 254.07 332.521C254.407 333.006 254.855 333.404 255.376 333.682C255.897 333.96 256.476 334.111 257.066 334.122C257.657 334.132 258.241 334.003 258.771 333.743L260.077 337.992C260.232 338.496 260.544 338.936 260.967 339.249C261.39 339.562 261.902 339.731 262.428 339.731H272.663C273.189 339.731 273.701 339.562 274.124 339.249C274.547 338.936 274.859 338.496 275.014 337.992L277.768 329.03C277.881 328.662 277.906 328.272 277.841 327.892C277.777 327.512 277.624 327.153 277.395 326.843C277.166 326.532 276.868 326.28 276.525 326.107C276.181 325.933 275.801 325.843 275.417 325.843ZM257.144 333.054C256.437 333.054 255.758 332.773 255.258 332.272C254.758 331.771 254.477 331.091 254.477 330.383C254.477 329.675 254.758 328.995 255.258 328.494C255.758 327.994 256.437 327.712 257.144 327.712C257.193 327.712 257.238 327.724 257.286 327.727C257.18 328.157 257.193 328.607 257.324 329.03L258.45 332.697C258.053 332.928 257.603 333.051 257.144 333.054Z" fill="#3F3D56"/>
<path d="M205.122 314.247C204.047 314.347 202.963 314.209 201.947 313.844C200.931 313.479 200.007 312.895 199.24 312.133C198.474 311.372 197.884 310.451 197.511 309.437C197.138 308.422 196.992 307.338 197.083 306.261L144.575 278.082L156.06 270.718L205.599 299.488C207.396 299.761 209.03 300.684 210.193 302.084C211.356 303.483 211.965 305.26 211.906 307.08C211.848 308.899 211.124 310.634 209.874 311.955C208.623 313.276 206.933 314.091 205.122 314.247Z" fill="#FFB6B6"/>
<path d="M136.382 226.299C136.382 226.299 127.012 225.124 124.607 235.679C122.202 246.234 138.687 275.659 141.202 280.482C143.717 285.304 177.998 295.851 177.998 295.851L191.198 288.947L161.642 270.187L136.382 226.299Z" fill="#427D9D"/>
<path d="M202.427 182.686H205.627C207.183 182.686 208.675 183.305 209.776 184.407C210.876 185.508 211.494 187.003 211.494 188.561H196.559C196.559 187.003 197.177 185.508 198.278 184.407C199.378 183.305 200.87 182.686 202.427 182.686Z" fill="#CCCCCC"/>
<path d="M100.942 73.0558C118.453 73.0558 132.649 58.84 132.649 41.3039C132.649 23.7677 118.453 9.5519 100.942 9.5519C83.4311 9.5519 69.2356 23.7677 69.2356 41.3039C69.2356 58.84 83.4311 73.0558 100.942 73.0558Z" fill="#FF6584"/>
<path d="M198.02 39.6492C189.629 30.8341 179.883 22.7924 168.347 18.5429C165.133 17.3541 161.801 16.5156 158.408 16.0417C158.381 16.038 158.355 16.0435 158.328 16.0413C158.273 16.0271 158.217 16.0161 158.16 16.0084C153.415 15.4029 148.598 15.6942 143.96 16.8669C141.692 17.4369 139.479 18.2088 137.348 19.1735C135.21 20.2183 133.138 21.3942 131.144 22.6946C126.924 25.2243 122.277 26.9602 117.434 27.8165C115.003 28.2548 112.54 28.4969 110.071 28.5402C107.928 28.5833 105.907 28.6579 103.876 29.4332C101.707 30.25 99.7588 31.5631 98.1867 33.2679C96.6145 34.9726 95.462 37.0217 94.8211 39.2518C94.7717 39.4503 94.7866 39.6595 94.8636 39.8491C94.9406 40.0386 95.0758 40.1988 95.2496 40.3064C95.7989 40.7003 96.3343 41.1473 96.9114 41.4983C97.4248 41.7336 97.973 41.8833 98.5346 41.9416C99.4521 42.1355 100.371 42.3237 101.291 42.5062C104.679 43.1786 108.082 43.7738 111.499 44.2918C118.412 45.3399 125.363 46.0782 132.352 46.5067C146.351 47.3559 160.399 46.9331 174.322 45.2434C182.148 44.2943 189.92 42.9481 197.608 41.2101C197.764 41.1645 197.905 41.0794 198.019 40.9631C198.132 40.8467 198.213 40.703 198.254 40.546C198.296 40.389 198.296 40.2239 198.255 40.0667C198.214 39.9096 198.133 39.7658 198.02 39.6492Z" fill="#E6E6E6"/>
<path d="M102.447 60.8788C99.2333 59.6901 95.9012 58.8515 92.5082 58.3777C92.4809 58.3739 92.4551 58.3795 92.428 58.3773C92.3728 58.363 92.3168 58.352 92.2603 58.3443C87.5149 57.7389 82.6982 58.0301 78.06 59.2028C75.7918 59.7728 73.579 60.5448 71.4481 61.5095C69.3097 62.5542 67.2377 63.7301 65.2439 65.0305C61.0239 67.5603 56.3776 69.2961 51.5341 70.1525C49.103 70.5908 46.6406 70.8328 44.1707 70.8762C42.0276 70.9192 40.0066 70.9938 37.9761 71.7691C35.8072 72.5859 33.8589 73.8991 32.2868 75.6038C30.7146 77.3085 29.5621 79.3576 28.9212 81.5877C28.8718 81.7862 28.8867 81.9954 28.9637 82.185C29.0407 82.3745 29.1759 82.5347 29.3497 82.6423C29.899 83.0362 30.4344 83.4832 31.0115 83.8342C31.5249 84.0695 32.0732 84.2192 32.6347 84.2775C33.5522 84.4714 34.4708 84.6596 35.3907 84.8421C38.7792 85.5145 42.1819 86.1097 45.5987 86.6277C52.5123 87.6758 59.4634 88.4141 66.4517 88.8426C80.4514 89.6918 94.4991 89.269 108.423 87.5793C116.248 86.6302 124.02 85.284 131.708 83.546C131.864 83.5004 132.005 83.4153 132.119 83.2989C132.232 83.1826 132.313 83.0389 132.354 82.8819C132.396 82.7249 132.396 82.5598 132.355 82.4026C132.314 82.2455 132.233 82.1017 132.12 81.9851C123.729 73.17 113.984 65.1283 102.447 60.8788Z" fill="#E6E6E6"/>
<path d="M331.096 297.585L306.713 265.507L287.474 276.401L328.243 324.883L331.096 297.585Z" fill="#3F3D56"/>
<path d="M387.261 245.44C387.803 258.883 389.883 272.219 393.46 285.187C392.691 286.998 391.899 288.796 391.081 290.582C387.986 297.346 384.52 303.933 380.701 310.314C369.988 328.234 356.615 344.417 341.042 358.309C339.357 359.81 337.648 361.286 335.916 362.738C326.043 349.106 320.714 334.063 318.607 318.583C318.34 316.618 318.122 314.63 317.956 312.654V312.643C317.552 307.84 317.422 303.018 317.567 298.199C317.572 297.815 317.583 297.425 317.599 297.035C317.786 291.886 318.25 286.725 318.948 281.613V281.608C319.028 281.021 319.109 280.433 319.199 279.845C319.455 278.083 319.743 276.32 320.058 274.568C321.89 264.463 324.446 254.503 327.707 244.767V244.761C327.798 244.478 327.888 244.2 327.99 243.923C328.342 242.865 328.699 241.818 329.067 240.771C329.09 240.689 329.119 240.609 329.153 240.531C329.627 239.163 330.113 237.806 330.609 236.46C330.742 236.086 330.881 235.712 331.025 235.339C331.585 233.838 332.156 232.347 332.737 230.878C332.918 230.408 333.105 229.938 333.292 229.473C333.436 229.115 333.574 228.758 333.724 228.405V228.4C334.572 226.3 335.431 224.242 336.3 222.225C338.738 216.552 341.245 211.215 343.688 206.296L343.693 206.29C353.833 185.923 363.05 172.697 363.05 172.697L397.663 183.914C393.534 191.248 390.339 202.065 388.59 214.826C387.242 224.969 386.797 235.212 387.261 245.434L387.261 245.44Z" fill="#3F3D56"/>
<path d="M329.734 242.176C329.531 241.7 329.302 241.236 329.067 240.771C327.85 238.412 326.284 236.251 324.421 234.361C324.144 234.078 323.856 233.795 323.557 233.528C320.344 230.564 316.437 228.459 312.197 227.408C307.957 226.357 303.52 226.393 299.298 227.513L299.277 227.524L299.117 227.566L299.154 227.748C299.314 228.594 299.546 229.425 299.847 230.232C299.927 230.451 300.018 230.659 300.109 230.868C300.146 230.964 300.194 231.049 300.237 231.145C300.237 231.145 300.231 231.151 300.242 231.151C300.242 231.156 300.247 231.161 300.247 231.167C300.349 231.364 300.445 231.567 300.551 231.76C300.333 231.551 300.125 231.338 299.922 231.119C299.725 230.916 299.543 230.702 299.362 230.488C298.74 229.762 298.178 228.987 297.682 228.17L297.596 228.026L297.447 228.085C295.434 228.783 293.514 229.725 291.729 230.889L291.537 231.017C290.174 231.913 288.638 232.512 287.029 232.775C285.42 233.039 283.774 232.96 282.197 232.545C279.711 231.903 277.119 231.786 274.586 232.2C272.052 232.615 269.633 233.553 267.48 234.954C266.055 235.885 264.766 237.01 263.651 238.298C263.554 238.41 263.458 238.528 263.362 238.64C263.16 238.885 262.968 239.136 262.781 239.393C260.776 242.077 259.545 245.26 259.223 248.597L259.213 248.719L259.314 248.789C261.119 250.028 263.16 250.879 265.309 251.289C263.959 251.478 262.592 251.512 261.234 251.39H261.229C260.613 251.339 260 251.254 259.394 251.134L259.282 251.113H259.277L259.138 251.086L259.159 251.342C259.319 254.606 260.344 257.768 262.13 260.503L262.184 260.578C262.203 260.605 262.221 260.634 262.237 260.663C262.994 261.823 263.623 263.06 264.115 264.355C265.362 267.571 265.636 271.084 264.904 274.456C264.075 278.062 264.351 281.834 265.694 285.282C267.038 288.729 269.387 291.691 272.436 293.782C275.114 295.627 278.235 296.724 281.477 296.96C281.92 296.998 282.368 297.019 282.816 297.019C285.381 297.027 287.919 296.497 290.267 295.465L290.353 295.432L290.374 295.336C290.826 293.877 291.46 292.48 292.262 291.18C292 292.205 291.867 293.258 291.868 294.316V294.669L292.172 294.492C292.433 294.337 292.7 294.172 292.94 294.017C294.381 293.075 295.685 291.939 296.818 290.641C297.26 290.128 297.708 289.631 298.178 289.135L298.183 289.129C299.095 288.157 300.061 287.206 301.063 286.298C303.197 284.379 305.48 282.634 307.891 281.079C310.3 279.53 312.819 278.159 315.428 276.977H315.433C315.727 276.838 316.025 276.705 316.319 276.576C317.618 276.01 318.868 275.338 320.058 274.568C320.101 274.541 320.138 274.52 320.175 274.493C325.332 271.112 329.123 266.008 330.873 260.09C332.623 254.172 332.22 247.824 329.734 242.176Z" fill="#427D9D"/>
<path opacity="0.15" d="M265.783 282.04C265.637 282.689 265.527 283.346 265.453 284.008C264.46 280.865 264.316 277.515 265.035 274.298C265.147 273.806 265.23 273.308 265.295 272.808C266.281 275.786 266.449 278.974 265.783 282.04Z" fill="black"/>
<path opacity="0.15" d="M266.186 258.869C264.606 259.089 263.004 259.096 261.422 258.892C261.008 258.109 260.65 257.298 260.352 256.464C262.113 257.654 264.099 258.473 266.186 258.869Z" fill="black"/>
<path opacity="0.15" d="M261.295 251.219C260.712 252.712 260.325 254.275 260.143 255.869C259.656 254.351 259.369 252.777 259.288 251.185L259.275 250.928L259.527 250.977C260.112 251.087 260.702 251.168 261.295 251.219Z" fill="black"/>
<path opacity="0.15" d="M267.618 234.795C269.768 233.392 272.186 232.453 274.719 232.038C277.251 231.622 279.842 231.74 282.326 232.383C283.904 232.801 285.551 232.881 287.161 232.618C288.771 232.355 290.308 231.755 291.671 230.858L291.864 230.731C293.647 229.564 295.567 228.62 297.579 227.92L297.733 227.867L297.817 228.006C298.612 229.323 299.576 230.531 300.684 231.598C300.011 230.342 299.54 228.989 299.288 227.586L299.251 227.401L299.433 227.353C303.394 226.303 307.546 226.206 311.551 227.069C315.556 227.933 319.3 229.732 322.479 232.32C325.657 234.909 328.179 238.213 329.84 241.964C331.5 245.714 332.252 249.805 332.033 253.901C331.193 250.561 329.699 247.422 327.639 244.664C325.578 241.906 322.992 239.585 320.029 237.836C317.066 236.087 313.786 234.944 310.379 234.473C306.972 234.003 303.506 234.214 300.181 235.095L299.999 235.143L300.035 235.328C300.287 236.73 300.759 238.084 301.432 239.34C300.324 238.272 299.36 237.064 298.564 235.747L298.48 235.608L298.326 235.661C296.314 236.361 294.395 237.305 292.611 238.472L292.419 238.599C291.056 239.497 289.519 240.097 287.909 240.359C286.298 240.622 284.651 240.542 283.074 240.125C278.945 239.052 274.571 239.446 270.7 241.241C266.829 243.036 263.699 246.12 261.845 249.968C261.019 249.57 260.218 249.122 259.448 248.627L259.343 248.56L259.356 248.437C259.621 245.688 260.502 243.034 261.932 240.672C263.363 238.31 265.306 236.301 267.618 234.795Z" fill="black"/>
<path d="M465.917 98.3083L465.411 97.9718L465.043 98.4525C462.194 102.044 459.928 106.062 458.327 110.359C458.548 105.409 459.412 100.508 460.898 95.7817L461.058 95.2849L460.599 95.0232C454.631 91.6389 448.272 88.9983 441.663 87.1602L440.943 86.9679C435.879 85.5762 431.164 83.131 427.106 79.7918C423.048 76.4526 419.739 72.2944 417.394 67.5883C411.944 56.7877 403.335 47.9084 392.715 42.1351C382.095 36.3618 369.969 33.9692 357.956 35.2765H357.951C357.823 35.2872 357.69 35.3032 357.562 35.3192C357.343 35.3406 357.13 35.3673 356.916 35.394C356.479 35.4527 356.052 35.5115 355.625 35.5756C355.263 35.629 354.895 35.6878 354.532 35.7519C354.34 35.7786 354.153 35.8106 353.967 35.848C353.78 35.8801 353.588 35.9121 353.401 35.9495H353.396C349.814 36.6279 346.304 37.6383 342.909 38.9676H342.904V38.9729L342.045 39.3094C341.16 39.6726 340.281 40.0572 339.41 40.4632C339.213 40.554 339.021 40.6502 338.823 40.741C338.77 40.7677 338.711 40.7944 338.658 40.8265C338.098 41.0935 337.543 41.3713 336.994 41.6651C336.914 41.7025 336.834 41.7452 336.754 41.788L336.242 42.0604C335.116 42.6693 334.01 43.3157 332.924 43.9994C332.833 44.0528 332.748 44.1062 332.657 44.165C332.561 44.2291 332.46 44.2932 332.364 44.3573C332.305 44.3894 332.246 44.4321 332.188 44.4695C332.022 44.571 331.862 44.6778 331.702 44.79C331.382 44.9983 331.062 45.212 330.748 45.431C330.422 45.65 330.102 45.8797 329.782 46.1094L329.462 46.3391L329.521 46.7343C329.574 47.0602 329.622 47.386 329.681 47.7065C329.734 48.027 329.787 48.3422 329.846 48.6574C329.937 49.1862 330.038 49.7097 330.139 50.2171C330.209 50.5537 330.273 50.8848 330.348 51.2107C330.417 51.5472 330.492 51.8837 330.572 52.2203C330.726 52.9147 330.892 53.5877 331.068 54.2501C331.153 54.5813 331.244 54.9125 331.34 55.2383C331.393 55.436 331.446 55.6336 331.505 55.8259C331.548 55.9594 331.59 56.093 331.633 56.2265C331.644 56.2693 331.654 56.3173 331.67 56.3654C331.682 56.4107 331.696 56.4552 331.713 56.4989C331.772 56.6966 331.83 56.8889 331.889 57.0758C331.921 57.1773 331.953 57.2788 331.99 57.375C332.065 57.6047 332.145 57.8397 332.225 58.0641C332.31 58.3205 332.401 58.5769 332.492 58.8279C332.513 58.892 332.534 58.9508 332.556 59.0149C332.572 59.063 332.588 59.111 332.609 59.1591C332.63 59.2125 332.652 59.2713 332.673 59.3247C332.764 59.5651 332.854 59.8108 332.951 60.0512C332.983 60.1366 333.015 60.2274 333.052 60.3129C333.917 62.489 334.979 64.5811 336.226 66.5627C334.844 65.3768 333.514 64.1197 332.236 62.7914C330.262 60.7376 328.443 58.5397 326.795 56.2158C326.662 56.0342 326.528 55.8473 326.406 55.6603C326.155 55.3024 325.91 54.9445 325.67 54.5813C325.414 54.2074 325.168 53.8174 324.928 53.4328C324.768 53.1764 324.608 52.9147 324.453 52.6583C324.299 52.4126 324.155 52.1722 324.016 51.9265L323.6 51.2107H323.595V51.216L323.008 51.7929C322.773 52.0226 322.539 52.2523 322.309 52.482C315.14 59.7056 309.947 68.6549 307.23 78.4693L307.15 78.7631L307.07 79.0675C306.915 79.6124 306.76 80.1412 306.595 80.6807V80.6861C306.435 81.2202 306.264 81.7544 306.083 82.2779C305.918 82.7747 305.747 83.2661 305.566 83.7575C305.507 83.9231 305.443 84.0887 305.374 84.2543C305.262 84.5748 305.139 84.89 305.016 85.2105C304.957 85.3547 304.899 85.5043 304.84 85.6485C304.696 86.001 304.552 86.3536 304.408 86.7008C304.387 86.7542 304.36 86.813 304.333 86.8664C304.291 86.9732 304.243 87.0801 304.2 87.1815C304.088 87.4379 303.971 87.6997 303.859 87.9561C303.779 88.1217 303.704 88.2926 303.629 88.4582C303.597 88.533 303.56 88.6078 303.528 88.6826C303.331 89.1099 303.128 89.5319 302.915 89.9486C302.675 90.44 302.429 90.9314 302.168 91.4122C301.938 91.8609 301.698 92.2989 301.448 92.7369C301.016 93.5115 300.562 94.2807 300.093 95.0285C299.912 95.317 299.73 95.6054 299.543 95.8939C299.501 95.9633 299.458 96.0327 299.415 96.0968C299.261 96.3479 299.101 96.5883 298.935 96.834C298.823 96.9996 298.711 97.1652 298.599 97.3254C298.413 97.6139 298.215 97.8916 298.013 98.1641C297.959 98.2495 297.901 98.3297 297.842 98.4098C297.543 98.8264 297.245 99.2324 296.94 99.6384C296.93 99.6437 296.93 99.6491 296.924 99.6544C296.914 99.6544 296.914 99.6597 296.908 99.6651C296.775 99.8414 296.642 100.018 296.503 100.189C296.322 100.44 296.124 100.685 295.927 100.926C295.607 101.332 295.271 101.743 294.93 102.144C294.919 102.154 294.914 102.165 294.903 102.17C293.136 104.25 291.221 106.199 289.174 108.003C289.137 108.036 289.11 108.068 289.073 108.094C288.785 108.345 288.497 108.596 288.198 108.842C288.075 108.944 287.953 109.045 287.83 109.147C287.627 109.318 287.419 109.488 287.217 109.643C287.193 109.668 287.166 109.689 287.137 109.707C286.955 109.857 286.779 109.996 286.598 110.135C286.379 110.311 286.16 110.477 285.936 110.642C284.88 111.443 283.796 112.2 282.683 112.912C282.517 113.025 282.341 113.137 282.171 113.244C282.069 113.308 281.968 113.372 281.872 113.425C281.466 113.676 281.061 113.922 280.656 114.157C280.25 114.397 279.834 114.627 279.423 114.851C278.543 115.332 277.674 115.834 276.826 116.358C276.399 116.625 275.972 116.892 275.551 117.164C273.876 118.254 272.263 119.42 270.713 120.663C269.163 121.907 267.676 123.228 266.259 124.621C266.083 124.792 265.907 124.969 265.731 125.15C265.379 125.497 265.038 125.85 264.712 126.203C264.189 126.742 263.688 127.298 263.192 127.858C260.576 130.831 258.261 134.055 256.279 137.484C255.284 139.196 254.38 140.96 253.569 142.767C252.956 144.119 252.396 145.502 251.889 146.902C251.553 147.836 251.238 148.78 250.945 149.733C250.801 150.208 250.662 150.689 250.529 151.17C250.076 152.799 249.697 154.444 249.388 156.095C249.137 157.419 248.934 158.746 248.779 160.074C248.699 160.742 248.635 161.41 248.577 162.072C248.439 163.7 248.369 165.33 248.366 166.961C248.357 171.854 248.951 176.73 250.134 181.478C250.396 182.525 250.685 183.567 251.004 184.603C251.164 185.121 251.334 185.634 251.505 186.147C251.937 187.429 252.415 188.698 252.94 189.956C253.255 190.709 253.585 191.457 253.932 192.199C256.136 196.919 258.947 201.33 262.296 205.318C262.845 205.975 263.412 206.622 263.997 207.257C264.003 207.257 263.997 207.263 263.997 207.263C265.449 208.848 266.986 210.353 268.601 211.771H268.606C269.251 212.342 269.908 212.896 270.574 213.432C270.58 213.427 270.58 213.432 270.58 213.432C271.252 213.977 271.929 214.501 272.623 215.008C272.969 215.259 273.321 215.51 273.679 215.761C274.377 216.258 275.09 216.737 275.818 217.198H275.823C276.548 217.668 277.285 218.117 278.031 218.544C279.53 219.404 281.066 220.211 282.645 220.943L282.912 221.065L283.184 220.943C285.716 219.802 288.325 218.843 290.993 218.074C291.58 217.903 292.172 217.748 292.759 217.599C294.241 217.23 295.735 216.92 297.239 216.669C295.774 217.406 294.359 218.239 293.004 219.164C291.953 219.874 290.918 220.649 289.878 221.503C289.531 221.787 289.185 222.08 288.838 222.38L287.974 223.127L289.057 223.485C289.451 223.613 289.846 223.742 290.241 223.859C290.78 224.03 291.313 224.185 291.836 224.329C292.977 224.65 294.126 224.933 295.282 225.179C295.564 225.237 295.842 225.296 296.124 225.355C296.674 225.462 297.228 225.569 297.783 225.665C297.806 225.67 297.829 225.674 297.853 225.675C298.429 225.771 299.01 225.862 299.586 225.942C300.658 226.097 301.73 226.22 302.803 226.311C302.92 226.327 303.037 226.332 303.16 226.338C303.421 226.359 303.677 226.38 303.939 226.396C304.515 226.434 305.096 226.461 305.678 226.482C305.72 226.482 305.758 226.487 305.8 226.487C306.094 226.498 306.387 226.509 306.68 226.514C306.68 226.514 306.68 226.519 306.686 226.514C306.979 226.519 307.272 226.525 307.566 226.525H309.187C309.491 226.525 309.795 226.53 310.105 226.53C310.532 226.53 310.964 226.535 311.39 226.541C311.502 226.541 311.62 226.546 311.737 226.546C312.42 226.557 313.103 226.573 313.785 226.589C313.828 226.589 313.871 226.594 313.913 226.594C314.596 226.615 315.279 226.637 315.962 226.669C316.111 226.674 316.26 226.68 316.415 226.69C317.071 226.717 317.727 226.749 318.383 226.786C318.57 226.797 318.762 226.813 318.954 226.824C319.45 226.851 319.952 226.883 320.448 226.92C320.741 226.936 321.029 226.957 321.322 226.984C322.507 227.075 323.685 227.176 324.869 227.294C325.264 227.326 325.659 227.369 326.054 227.411C327.11 227.524 328.169 227.646 329.233 227.78C329.707 227.833 330.182 227.897 330.657 227.962C330.71 227.967 330.764 227.972 330.817 227.983C331.404 228.063 331.985 228.143 332.572 228.229C332.956 228.282 333.34 228.341 333.724 228.4C334.119 228.458 334.513 228.517 334.908 228.587C335.121 228.619 335.335 228.656 335.554 228.693C336.066 228.774 336.583 228.859 337.1 228.955C337.147 228.96 337.193 228.967 337.239 228.977C338.338 229.169 339.442 229.372 340.541 229.591C341.186 229.714 341.826 229.842 342.466 229.975C342.968 230.077 343.469 230.184 343.971 230.291C344.056 230.307 344.141 230.328 344.227 230.349C344.246 230.355 344.265 230.359 344.285 230.36C345.043 230.526 345.806 230.697 346.563 230.878C349.193 231.487 351.819 232.164 354.441 232.908C355.044 233.074 355.647 233.25 356.25 233.426C356.506 233.501 356.756 233.576 357.007 233.65C357.53 233.805 358.047 233.96 358.57 234.126C359.029 234.265 359.493 234.409 359.951 234.559C360.239 234.649 360.527 234.74 360.816 234.836C361.264 234.975 361.712 235.119 362.154 235.274C362.533 235.392 362.906 235.515 363.28 235.648C363.813 235.825 364.352 236.006 364.885 236.198C365.04 236.252 365.2 236.305 365.355 236.364C366.006 236.588 366.656 236.818 367.307 237.058C367.942 237.288 368.577 237.523 369.206 237.758C369.643 237.924 370.081 238.084 370.513 238.255C370.998 238.442 371.484 238.629 371.964 238.821C372.657 239.094 373.356 239.371 374.049 239.655C374.689 239.911 375.324 240.173 375.964 240.445C376.082 240.493 376.204 240.541 376.322 240.595C376.876 240.824 377.431 241.065 377.98 241.305C378.338 241.455 378.69 241.61 379.042 241.765C380.578 242.438 382.113 243.134 383.645 243.853H383.651C384.611 244.307 385.587 244.74 386.568 245.151C386.798 245.247 387.027 245.343 387.262 245.434C387.651 245.6 388.046 245.755 388.441 245.915C388.697 246.017 388.953 246.118 389.214 246.214C389.593 246.364 389.977 246.508 390.361 246.647C390.766 246.796 391.166 246.946 391.577 247.085C391.721 247.138 391.865 247.186 392.014 247.24C392.489 247.4 392.964 247.56 393.444 247.715C393.492 247.731 393.54 247.747 393.593 247.763C394.095 247.924 394.596 248.084 395.103 248.233C395.143 248.248 395.184 248.261 395.225 248.271C395.77 248.436 396.324 248.597 396.874 248.751C397.684 248.976 398.501 249.189 399.317 249.387C399.466 249.425 399.615 249.462 399.765 249.494C400.202 249.601 400.634 249.702 401.072 249.798C401.536 249.905 402.005 250.001 402.469 250.098C402.938 250.194 403.408 250.29 403.872 250.375C404.123 250.423 404.373 250.471 404.619 250.514L405.275 250.626C405.728 250.707 406.182 250.776 406.64 250.851C406.653 250.85 406.666 250.852 406.678 250.856C407.195 250.936 407.707 251.011 408.224 251.075C408.721 251.145 409.217 251.203 409.713 251.262C409.814 251.273 409.921 251.283 410.027 251.294C410.438 251.342 410.849 251.39 411.26 251.428C411.377 251.438 411.494 251.449 411.612 251.46C412.017 251.497 412.422 251.534 412.828 251.561C412.909 251.572 412.991 251.577 413.073 251.577C413.436 251.609 413.799 251.636 414.161 251.652C414.417 251.673 414.668 251.684 414.924 251.7C415.057 251.705 415.185 251.711 415.319 251.716C415.671 251.737 416.023 251.748 416.38 251.759C416.812 251.775 417.244 251.786 417.671 251.796C418.188 251.807 418.711 251.812 419.229 251.812H419.239C419.746 251.812 420.258 251.807 420.765 251.796H420.957L421.517 251.78C421.805 251.775 422.093 251.764 422.376 251.753C422.92 251.732 423.458 251.705 423.997 251.673C424.211 251.663 424.429 251.647 424.643 251.636C424.739 251.631 424.84 251.62 424.936 251.615C425.272 251.593 425.603 251.572 425.939 251.545C426.286 251.518 426.638 251.486 426.984 251.449C427.432 251.406 427.88 251.358 428.329 251.31C428.681 251.273 429.033 251.23 429.379 251.187C429.426 251.183 429.472 251.176 429.518 251.166C429.854 251.128 430.19 251.086 430.521 251.038C430.915 250.984 431.305 250.926 431.694 250.867C431.737 250.861 431.774 250.856 431.817 250.851C432.489 250.744 433.166 250.637 433.844 250.514C434.553 250.386 435.263 250.247 435.967 250.103C436.228 250.049 436.484 249.991 436.746 249.937C436.89 249.905 437.039 249.879 437.178 249.847C437.396 249.798 437.61 249.75 437.823 249.697C437.86 249.692 437.903 249.681 437.94 249.676C438.239 249.611 438.533 249.537 438.831 249.462C439.429 249.318 440.015 249.168 440.602 249.008C440.864 248.944 441.125 248.874 441.376 248.805C441.45 248.784 441.525 248.762 441.594 248.741C442.677 248.436 443.751 248.114 444.816 247.774C445.285 247.624 445.749 247.469 446.214 247.304C447.211 246.962 448.2 246.602 449.179 246.225C449.441 246.129 449.702 246.022 449.963 245.92C450.347 245.766 450.731 245.611 451.11 245.456C451.452 245.311 451.793 245.167 452.14 245.018C452.31 244.948 452.481 244.873 452.652 244.799C453.164 244.574 453.676 244.345 454.183 244.115C454.524 243.955 454.86 243.8 455.196 243.639C455.729 243.383 456.258 243.121 456.786 242.86C456.919 242.79 457.047 242.721 457.175 242.657C457.511 242.486 457.847 242.309 458.188 242.138C458.727 241.85 459.266 241.562 459.799 241.262C459.981 241.166 460.157 241.065 460.338 240.963C460.925 240.632 461.506 240.296 462.082 239.954C463.357 239.19 464.614 238.392 465.853 237.561C466.163 237.358 466.472 237.144 466.776 236.936C467.352 236.54 467.918 236.134 468.483 235.728C468.542 235.686 468.595 235.643 468.654 235.606C468.937 235.397 469.219 235.189 469.502 234.975C470.089 234.532 470.67 234.083 471.251 233.624C471.262 233.618 471.278 233.602 471.294 233.592C471.556 233.383 471.817 233.175 472.073 232.967C472.868 232.32 473.652 231.663 474.42 230.985C474.799 230.659 475.172 230.323 475.54 229.986C475.817 229.735 476.095 229.484 476.367 229.228C476.916 228.709 477.455 228.197 477.988 227.673C478.255 227.417 478.516 227.15 478.783 226.883C479.045 226.616 479.311 226.348 479.573 226.076C479.663 225.985 479.754 225.889 479.845 225.793C480.111 225.51 480.378 225.221 480.645 224.938C480.874 224.693 481.098 224.436 481.327 224.18C481.712 223.752 482.101 223.325 482.48 222.892C482.5 222.868 482.521 222.845 482.544 222.823C482.565 222.796 482.586 222.775 482.602 222.754H482.597C490.35 213.775 496.111 203.25 499.498 191.875C502.885 180.499 503.821 168.534 502.244 156.769C500.668 145.004 496.614 133.709 490.351 123.631C484.089 113.553 475.76 104.922 465.917 98.3083Z" fill="#427D9D"/>
<g opacity="0.15">
<path d="M357.952 35.2723C359.015 39.0971 360.615 42.7516 362.703 46.1265C359.207 43.1189 356.084 39.7028 353.399 35.951C354.907 35.6654 356.425 35.4392 357.952 35.2723Z" fill="black"/>
<path d="M305.904 94.4245C301.956 96.5822 298.265 99.1806 294.901 102.17C300.581 95.4437 304.732 87.5607 307.067 79.0676C307.095 78.9656 307.124 78.8628 307.151 78.7607L307.231 78.4716C310.036 68.3349 315.48 59.1265 323.005 51.788L323.597 51.2107L324.014 51.9241C326.321 55.8523 329.082 59.4948 332.239 62.7766C327.401 76.448 317.987 87.8265 305.904 94.4245Z" fill="black"/>
<path d="M333.71 58.0396L333.63 58.3286C333.603 58.4308 333.574 58.5336 333.546 58.6356C333.39 59.1977 333.224 59.7555 333.054 60.311C331.366 55.9342 330.181 51.3794 329.522 46.7345L329.459 46.3403L329.783 46.1088C333.842 43.188 338.25 40.788 342.905 38.9651C338.726 44.7215 335.611 51.182 333.71 58.0396Z" fill="black"/>
<path d="M279.425 114.856C282.919 112.941 286.189 110.643 289.175 108.003C283.21 114.957 278.935 123.2 276.684 132.085C274.433 140.971 274.267 150.258 276.199 159.218C278.131 168.179 282.109 176.57 287.82 183.733C293.532 190.897 300.823 196.638 309.121 200.508L309.391 200.633L309.66 200.511C314.142 198.484 318.868 197.046 323.72 196.236C320.692 197.781 317.869 199.7 315.318 201.948L314.455 202.695L315.538 203.053C316.472 203.363 317.407 203.647 318.315 203.9C323.654 205.389 329.173 206.128 334.714 206.097C359.891 205.936 385.264 211.765 410.127 223.422C414.391 225.419 418.814 227.055 423.349 228.316C443.115 233.827 464.215 231.845 482.612 222.748C472.24 234.761 458.678 243.58 443.501 248.183C428.324 252.785 412.155 252.981 396.871 248.748C392.335 247.487 387.913 245.851 383.649 243.854C358.786 232.197 333.413 226.368 308.235 226.529C302.694 226.56 297.175 225.821 291.837 224.332C290.928 224.079 289.993 223.795 289.059 223.485L287.976 223.127L288.839 222.38C291.39 220.132 294.213 218.213 297.241 216.668C292.39 217.478 287.664 218.915 283.181 220.943L282.912 221.065L282.643 220.94C272.677 216.295 264.197 208.969 258.148 199.778C252.099 190.587 248.719 179.894 248.385 168.891C248.051 157.889 250.777 147.01 256.258 137.469C261.739 127.927 269.76 120.099 279.425 114.856Z" fill="black"/>
</g>
</g>
<defs>
<clipPath id="clip0_37_81">
<rect width="503" height="425" fill="white"/>
</clipPath>
</defs>
</svg>
