<svg width="56" height="56" viewBox="0 0 56 56" fill="none" xmlns="http://www.w3.org/2000/svg">
<path d="M42 28C40.9177 28.0032 39.863 28.3414 38.9806 28.9681C38.0983 29.5947 37.4315 30.4792 37.072 31.5H21V28H10.5V38.5H21V35H37.072C37.4315 36.0208 38.0983 36.9053 38.9806 37.5319C39.863 38.1586 40.9177 38.4968 42 38.5C44.8945 38.5 47.25 36.1445 47.25 33.25C47.25 30.3555 44.8945 28 42 28ZM17.5 35H14V31.5H17.5V35ZM42 35C41.5356 34.9998 41.0904 34.8151 40.7622 34.4866C40.434 34.158 40.2498 33.7126 40.25 33.2483C40.2502 32.7839 40.4349 32.3386 40.7634 32.0105C41.092 31.6823 41.5374 31.498 42.0017 31.4983C42.2317 31.4984 42.4593 31.5438 42.6717 31.6319C42.8841 31.72 43.077 31.849 43.2395 32.0117C43.4021 32.1744 43.5309 32.3674 43.6188 32.5799C43.7067 32.7924 43.7519 33.0201 43.7517 33.25C43.7516 33.4799 43.7062 33.7076 43.6181 33.92C43.53 34.1323 43.401 34.3253 43.2383 34.4878C43.0756 34.6503 42.8826 34.7792 42.6701 34.8671C42.4576 34.9549 42.2299 35.0001 42 35Z" fill="#7F56D9"/>
<path d="M45.206 19.635C43.7325 11.4678 36.5838 5.25 28 5.25C19.4163 5.25 12.2675 11.4678 10.794 19.635C4.6165 21.091 0 26.635 0 33.25C0 40.9692 6.28075 47.25 14 47.25H21V43.75H14C8.20925 43.75 3.5 39.0407 3.5 33.25C3.5 27.4592 8.20925 22.75 14 22.75C14 15.0308 20.2808 8.75 28 8.75C35.7192 8.75 42 15.0308 42 22.75C47.7907 22.75 52.5 27.4592 52.5 33.25C52.5 39.0407 47.7907 43.75 42 43.75H28V47.25H42C49.7192 47.25 56 40.9692 56 33.25C56 26.635 51.3835 21.091 45.206 19.635Z" fill="#7F56D9"/>
</svg>
