<svg width="32" height="32" viewBox="0 0 32 32" fill="none" xmlns="http://www.w3.org/2000/svg">
<g clip-path="url(#clip0_31_21)">
<path d="M341 -42.749H357C357.638 -42.749 358.206 -42.45 358.572 -41.985C358.714 -41.995 358.856 -42 359 -42H360.8C360.536 -42.7997 360.027 -43.4959 359.345 -43.9895C358.663 -44.483 357.842 -44.7488 357 -44.749H341C339.939 -44.749 338.922 -44.3276 338.172 -43.5774C337.421 -42.8273 337 -41.8099 337 -40.749V-31.749C337 -30.6881 337.421 -29.6707 338.172 -28.9206C338.922 -28.1704 339.939 -27.749 341 -27.749H348V-25.296H344C343.735 -25.296 343.48 -25.1906 343.293 -25.0031C343.105 -24.8156 343 -24.5612 343 -24.296C343 -24.0308 343.105 -23.7764 343.293 -23.5889C343.48 -23.4014 343.735 -23.296 344 -23.296H353V-25.296H350V-27.749H353V-30.749H341C340.47 -30.749 339.961 -30.9597 339.586 -31.3348C339.211 -31.7099 339 -32.2186 339 -32.749V-40.749C339 -41.2794 339.211 -41.7881 339.586 -42.1632C339.961 -42.5383 340.47 -42.749 341 -42.749ZM391.273 -22.611C390.271 -22.6125 389.281 -22.8283 388.37 -23.2439C387.458 -23.6596 386.646 -24.2654 385.988 -25.0208C385.33 -25.7762 384.842 -26.6637 384.555 -27.6236C384.268 -28.5835 384.19 -29.5936 384.326 -30.5861C384.462 -31.5786 384.809 -32.5306 385.343 -33.378C385.878 -34.2254 386.587 -34.9487 387.424 -35.4993C388.261 -36.0499 389.206 -36.4151 390.196 -36.5702C391.185 -36.7254 392.197 -36.667 393.162 -36.399C393.961 -37.9061 395.156 -39.1671 396.618 -40.0462C398.079 -40.9254 399.753 -41.3896 401.459 -41.389C403.69 -41.3892 405.849 -40.5947 407.548 -39.148C409.247 -37.7013 410.375 -35.6969 410.73 -33.494C412.134 -33.3829 413.44 -32.7327 414.375 -31.6798C415.31 -30.6269 415.801 -29.2529 415.746 -27.8458C415.69 -26.4388 415.092 -25.1079 414.077 -24.132C413.062 -23.1561 411.708 -22.611 410.3 -22.611H391.273ZM27.5 16.007C27.5 9.65599 22.351 4.50699 16 4.50699C9.649 4.50699 4.5 9.65599 4.5 16.007C4.5 21.4 8.213 25.925 13.222 27.168V19.521H10.85V16.007H13.22V14.493C13.22 10.578 14.992 8.76401 18.835 8.76401C19.564 8.76401 20.821 8.90699 21.335 9.04999V12.235C20.8932 12.2015 20.4501 12.1874 20.007 12.193C18.121 12.193 17.392 12.907 17.392 14.764V16.007H21.148L20.503 19.521H17.393V27.423C23.086 26.735 27.5 21.886 27.5 16.007Z" fill="#EDEDED"/>
</g>
<defs>
<clipPath id="clip0_31_21">
<rect width="32" height="32" fill="white"/>
</clipPath>
</defs>
</svg>
