<svg width="56" height="56" viewBox="0 0 56 56" fill="none" xmlns="http://www.w3.org/2000/svg">
<path fill-rule="evenodd" clip-rule="evenodd" d="M28 2.91669C25.0605 2.91669 22.2414 4.08439 20.1629 6.16292C18.0843 8.24145 16.9166 11.0605 16.9166 14C16.9166 16.9395 18.0843 19.7586 20.1629 21.8371C22.2414 23.9156 25.0605 25.0834 28 25.0834C30.9394 25.0834 33.7585 23.9156 35.8371 21.8371C37.9156 19.7586 39.0833 16.9395 39.0833 14C39.0833 11.0605 37.9156 8.24145 35.8371 6.16292C33.7585 4.08439 30.9394 2.91669 28 2.91669ZM20.4166 14C20.4166 11.9888 21.2156 10.0599 22.6377 8.63779C24.0599 7.21564 25.9887 6.41669 28 6.41669C30.0112 6.41669 31.94 7.21564 33.3622 8.63779C34.7843 10.0599 35.5833 11.9888 35.5833 14C35.5833 16.0112 34.7843 17.9401 33.3622 19.3622C31.94 20.7844 30.0112 21.5834 28 21.5834C25.9887 21.5834 24.0599 20.7844 22.6377 19.3622C21.2156 17.9401 20.4166 16.0112 20.4166 14Z" fill="#7F56D9"/>
<path d="M46.3306 34.0037C46.663 34.3271 46.8534 34.7693 46.86 35.2331C46.8666 35.6969 46.6887 36.1443 46.3656 36.477L42.0886 40.887C41.9176 41.0628 41.7116 41.2007 41.4838 41.2918C41.2561 41.3829 41.0117 41.425 40.7666 41.4156C40.5215 41.4061 40.2812 41.3452 40.0611 41.2369C39.8411 41.1285 39.6462 40.9752 39.4893 40.7867L37.5433 38.4533C37.2463 38.0966 37.1031 37.6364 37.1453 37.1741C37.1875 36.7118 37.4117 36.2852 37.7685 35.9882C38.1252 35.6911 38.5854 35.548 39.0477 35.5902C39.51 35.6324 39.9366 35.8566 40.2336 36.2133L40.9336 37.0533L43.855 34.041C44.1781 33.7083 44.6201 33.5175 45.0839 33.5105C45.5477 33.5035 45.9952 33.6808 46.3283 34.0037H46.3306Z" fill="#7F56D9"/>
<path fill-rule="evenodd" clip-rule="evenodd" d="M34.475 29.197C32.3415 28.7848 30.1731 28.5793 28 28.5833C22.603 28.5833 17.6284 29.8106 13.944 31.8826C10.3134 33.9266 7.58338 37.0206 7.58338 40.8333V41.0713C7.58105 43.7826 7.57872 47.1846 10.563 49.616C12.0307 50.8106 14.0864 51.6623 16.863 52.2223C19.6444 52.787 23.2727 53.0833 28 53.0833C34.692 53.0833 39.2234 52.4906 42.2801 51.3543C45.0311 50.3276 46.6597 48.8296 47.53 46.9396C48.8809 46.1606 50.0521 45.1053 50.9673 43.8427C51.8824 42.5801 52.5208 41.1385 52.8407 39.6123C53.1606 38.0861 53.1549 36.5096 52.8239 34.9857C52.4928 33.4619 51.844 32.0251 50.9197 30.7691C49.9954 29.5132 48.8165 28.4664 47.4601 27.6973C46.1036 26.9281 44.6001 26.4538 43.0478 26.3054C41.4955 26.157 39.9293 26.3379 38.4517 26.8362C36.974 27.3344 35.6205 28.1389 34.475 29.197ZM34.4167 37.3333C34.4167 35.3221 35.2157 33.3932 36.6378 31.9711C38.06 30.5489 39.9888 29.75 42 29.75C44.0113 29.75 45.9401 30.5489 47.3623 31.9711C48.7844 33.3932 49.5834 35.3221 49.5834 37.3333C49.5834 39.3445 48.7844 41.2734 47.3623 42.6955C45.9401 44.1177 44.0113 44.9166 42 44.9166C39.9888 44.9166 38.06 44.1177 36.6378 42.6955C35.2157 41.2734 34.4167 39.3445 34.4167 37.3333ZM32.0974 32.3516C31.3089 33.9195 30.904 35.6522 30.9159 37.4072C30.9278 39.1621 31.3562 40.8891 32.1658 42.4462C32.9754 44.0033 34.1432 45.3459 35.573 46.3635C37.0027 47.3812 38.6537 48.0449 40.39 48.3C37.8934 49.0863 34.013 49.5833 28 49.5833C23.3917 49.5833 20.02 49.2916 17.5537 48.7923C15.0804 48.293 13.6337 47.6046 12.7704 46.9023C11.1744 45.6026 11.081 43.8853 11.081 40.8333C11.081 38.8476 12.5324 36.6916 15.6567 34.9346C18.7274 33.208 23.086 32.0833 28 32.0833C29.4117 32.0833 30.786 32.1766 32.0974 32.3516Z" fill="#7F56D9"/>
</svg>
