<svg width="288" height="219" viewBox="0 0 288 219" fill="none" xmlns="http://www.w3.org/2000/svg">
<g clip-path="url(#clip0_280_1046)">
<path d="M0 198.501C0 198.741 0.193541 198.935 0.434554 198.935H287.565C287.806 198.935 288 198.741 288 198.501C288 198.26 287.806 198.067 287.565 198.067H0.434554C0.193541 198.067 0 198.26 0 198.501Z" fill="#3F3D56"/>
<path d="M157.776 75.7787L160.741 57.2951L140.741 49.1632L137.779 77.2549L157.776 75.7787Z" fill="#A0616A"/>
<path d="M152.722 63.2364C163.986 63.2364 173.117 54.1222 173.117 42.8793C173.117 31.6364 163.986 22.5222 152.722 22.5222C141.458 22.5222 132.327 31.6364 132.327 42.8793C132.327 54.1222 141.458 63.2364 152.722 63.2364Z" fill="#A0616A"/>
<path d="M151.097 15.5129C151.689 15.8556 152.478 15.338 152.667 14.6819C152.857 14.0258 152.635 13.3296 152.419 12.6844C152.054 11.6019 151.685 10.5157 151.32 9.43314C150.538 7.12588 149.71 4.73844 148.022 2.98157C145.47 0.331682 141.417 -0.342635 137.768 0.145789C133.083 0.772722 128.457 3.30597 126.28 7.49402C124.1 11.6821 125.028 17.5286 128.968 20.142C123.355 26.5608 121.398 33.7195 121.708 42.2341C122.019 50.7487 131.312 58.5854 137.378 64.585C138.732 63.7649 139.963 59.9267 139.218 58.5307C138.473 57.1347 139.54 55.52 138.619 54.237C137.699 52.9539 136.925 54.9988 137.86 53.7194C138.448 52.9138 136.151 51.0586 137.027 50.5774C141.256 48.2447 142.662 42.9813 145.32 38.9537C148.523 34.0949 154.008 30.8035 159.81 30.2568C163.005 29.9543 166.383 30.501 169.002 32.3526C171.62 34.2043 173.318 37.5139 172.712 40.6631C174.286 39.0667 175.067 36.7302 174.771 34.5141C174.476 32.298 173.11 30.2422 171.171 29.1159C172.347 25.2304 171.339 20.7617 168.607 17.7546C165.876 14.7475 154.789 15.2614 150.801 16.0524" fill="#2F2E41"/>
<path d="M150.476 30.3698C145.192 30.9384 141.376 35.5092 138.155 39.7264C136.3 42.1576 134.354 44.8439 134.401 47.902C134.449 50.993 136.519 53.6428 137.509 56.5734C139.127 61.3629 137.549 67.0563 133.7 70.3367C137.505 71.0584 141.617 68.2117 142.274 64.4028C143.038 59.9705 139.671 55.6913 140.069 51.208C140.419 47.2605 143.538 44.2206 146.185 41.2682C148.833 38.3158 151.323 34.3975 150.104 30.6249" fill="#2F2E41"/>
<path d="M151.488 216.813C151.488 216.813 107.302 221.187 104.015 216.084C100.729 210.981 148.855 205.878 148.855 205.878L151.488 216.813Z" fill="#A0616A"/>
<path d="M123.315 135.042L122.402 139.879C124.889 143.542 125.126 147.413 123.68 151.444L174.074 151.809C173.533 146.36 172.938 140.52 175.012 135.166L123.315 135.042Z" fill="#A0616A"/>
<path d="M205.858 171.007L187.581 156.412C185.153 154.473 183.579 151.59 183.269 148.503L180.453 120.703L197.233 115.119L201.279 142.645L211.361 165.518L205.862 171.007H205.858Z" fill="#A0616A"/>
<path d="M135.913 73.989L160.38 72.8955L186.307 85.2228L175.717 135.589L122.037 139.598L114.733 83.8304L135.913 73.989Z" fill="#7F56D9"/>
<path d="M175.012 147.194C178.689 152.031 180.23 163.677 181.793 175.26C181.793 175.26 113.871 174.896 113.506 174.896C113.141 174.896 123.888 150.475 123.888 150.475L175.012 147.194Z" fill="#2F2E41"/>
<path d="M177.233 172.17L181.797 175.26C181.797 175.26 246.433 170.887 240.955 191.298C235.477 211.71 218.314 214.991 218.314 214.991L148.932 219L148.201 207.701C148.201 207.701 81.375 222.645 75.1671 192.027C68.9592 161.41 113.51 174.896 113.51 174.896L177.233 172.17Z" fill="#2F2E41"/>
<path d="M149.958 196.401C149.958 196.401 151.488 188.382 162.443 191.663C173.398 194.943 179.606 199.317 179.606 199.317L153.314 205.878L149.958 196.401Z" fill="#A0616A"/>
<path d="M177.36 84.3771C177.36 84.3771 189.776 80.0032 194.523 94.2185C199.271 108.434 198.175 120.098 198.175 120.098L179.917 125.93L177.36 84.3771Z" fill="#7F56D9"/>
<path d="M92.2203 173.227L88.2363 166.221L96.8434 144.836L100.89 117.306L117.669 122.89L114.817 151.029C114.525 153.905 113.061 156.587 110.8 158.392L92.2203 173.23V173.227Z" fill="#A0616A"/>
<path d="M120.759 84.3771C120.759 84.3771 108.343 80.0032 103.595 94.2185C98.8482 108.434 99.9437 120.098 99.9437 120.098L118.202 125.93L120.759 84.3771Z" fill="#7F56D9"/>
<path d="M211.139 174.225C215.979 174.225 219.903 168.432 219.903 161.286C219.903 154.139 215.979 148.346 211.139 148.346C206.298 148.346 202.375 154.139 202.375 161.286C202.375 168.432 206.298 174.225 211.139 174.225Z" fill="#A0616A"/>
<path d="M88.0756 176.412C92.9159 176.412 96.8398 170.619 96.8398 163.473C96.8398 156.326 92.9159 150.533 88.0756 150.533C83.2354 150.533 79.3115 156.326 79.3115 163.473C79.3115 170.619 83.2354 176.412 88.0756 176.412Z" fill="#A0616A"/>
<path d="M121.544 185.102L153.314 194.214L159.522 205.149L147.65 207.701" fill="#2F2E41"/>
</g>
<defs>
<clipPath id="clip0_280_1046">
<rect width="288" height="219" fill="white"/>
</clipPath>
</defs>
</svg>
