<svg width="318" height="318" viewBox="0 0 318 318" fill="none" xmlns="http://www.w3.org/2000/svg">
<g clip-path="url(#clip0_203_8585)">
<path d="M318 159C318.02 176.386 315.183 193.658 309.603 210.125C309.283 211.065 308.956 212.003 308.62 212.938C302.711 229.278 294.167 244.541 283.326 258.121C280.089 262.181 276.66 266.073 273.038 269.797C269.416 273.527 265.613 277.076 261.63 280.442C239.414 299.282 212.427 311.621 183.645 316.1H183.64C179.971 316.669 176.266 317.112 172.524 317.431C168.07 317.807 163.561 317.997 159 318C137.788 318.028 116.786 313.797 97.2383 305.559C77.691 297.321 59.9961 285.243 45.2021 270.041C44.1625 268.978 43.1386 267.899 42.1303 266.805C39.6183 264.081 37.202 261.273 34.8813 258.38C33.5782 256.752 32.3065 255.099 31.0662 253.422C23.4262 243.1 17.0697 231.888 12.1367 220.032C10.033 214.982 8.1959 209.825 6.63289 204.583C6.51999 204.212 6.41179 203.84 6.3036 203.468C6.06839 202.669 5.84103 201.864 5.6215 201.055C1.87942 187.35 -0.0111934 173.206 4.98518e-05 159C4.98518e-05 71.1878 71.1878 0 159 0C246.812 0 318 71.1878 318 159Z" fill="#F2F2F2"/>
<path d="M67.4329 95.0387C67.1867 96.5333 67.2713 98.0637 67.6806 99.5221C68.0898 100.98 68.8139 102.331 69.8018 103.48C70.7896 104.628 72.0172 105.546 73.3981 106.168C74.779 106.791 76.2796 107.103 77.7942 107.083L103.175 180.934L119.37 169.804L88.1069 95.8377C87.9044 93.2955 86.7763 90.916 84.9366 89.1499C83.0968 87.3838 80.6731 86.354 78.1248 86.2555C75.5765 86.157 73.0805 86.9967 71.1099 88.6155C69.1394 90.2343 67.831 92.5197 67.4329 95.0387Z" fill="#A0616A"/>
<path d="M199.905 120.026C188.634 132.85 160.842 155.448 137.947 171.01C132.998 174.373 128.275 177.403 123.999 179.938C121.111 181.65 118.424 183.132 116.007 184.341C114.384 185.15 112.611 185.614 110.801 185.706C108.99 185.798 107.18 185.514 105.484 184.874C103.787 184.234 102.242 183.25 100.943 181.985C99.6448 180.719 98.6217 179.199 97.9379 177.52L82.085 139.167L87.57 135.531L101.094 126.56L104.166 124.528L116.849 154.733L130.222 143.998L138.525 137.333L176.375 106.958L179.639 105.989L187.255 113.422L192.642 118.681L197.708 119.56C198.465 119.692 199.199 119.847 199.905 120.026Z" fill="#9E77ED"/>
<path d="M301.027 225.405C301.813 226.402 302.627 227.395 303.441 228.392C300.637 234.148 297.486 239.728 294.004 245.101C293.745 244.918 293.487 244.734 293.228 244.551C293.187 244.528 293.148 244.503 293.11 244.475C292.146 243.789 291.177 243.111 290.212 242.424V242.42C289.417 239.712 288.973 236.914 288.891 234.093C289.388 233.979 289.838 233.715 290.18 233.336C290.522 232.958 290.74 232.483 290.803 231.977C290.866 231.47 290.772 230.957 290.533 230.506C290.295 230.055 289.923 229.688 289.469 229.455C289.342 229.234 289.253 229.074 289.126 228.848C289.131 228.792 289.14 228.731 289.145 228.674C289.883 222.799 297.372 220.748 301.027 225.405Z" fill="white"/>
<path d="M309.471 205.271C310.036 206.823 310.55 208.393 311.014 209.98C310.694 210.921 310.367 211.858 310.031 212.793C309.904 212.299 309.772 211.805 309.636 211.311C308.871 208.565 307.952 205.863 306.884 203.22C306.009 201.051 305.04 198.928 303.977 196.851C298.196 185.564 289.819 175.81 279.534 168.391C275.284 167.408 271.437 165.145 268.512 161.908C267.457 160.745 266.575 159.437 265.892 158.023C266.325 157.961 266.758 157.877 267.181 157.787C267.313 157.759 267.449 157.726 267.581 157.698L267.633 157.689C268.096 157.581 268.517 157.343 268.848 157.001C269.178 156.66 269.403 156.23 269.495 155.764C269.587 155.298 269.542 154.815 269.366 154.374C269.19 153.932 268.89 153.551 268.503 153.276C268.263 153.102 268.018 152.933 267.779 152.763C267.412 152.495 267.04 152.241 266.668 151.978C266.629 151.953 266.591 151.927 266.555 151.898C266.132 151.597 265.709 151.305 265.29 150.999C265.615 149.951 266.177 148.992 266.932 148.196C269.561 145.481 274.256 145.543 277.323 147.753C280.395 149.964 281.938 153.836 282.136 157.609C282.31 160.84 281.613 164.039 280.696 167.158C280.927 167.327 281.167 167.487 281.397 167.661C285.632 170.8 289.549 174.347 293.092 178.25C291.045 173.396 290.302 167.064 290.834 162.703C291.44 157.736 293.854 153.017 295.829 148.318C298.196 142.673 306.268 142.598 308.545 148.28C308.568 148.337 308.592 148.389 308.61 148.445C308.229 148.826 307.863 149.221 307.51 149.63C307.067 150.146 306.79 150.784 306.715 151.459C306.641 152.135 306.772 152.817 307.092 153.417C307.411 154.017 307.905 154.507 308.507 154.821C309.11 155.136 309.794 155.262 310.469 155.181L310.539 155.172C310.833 156.849 310.999 158.546 311.038 160.248C311.096 165.01 310.17 169.732 308.318 174.12C306.466 178.507 303.728 182.465 300.275 185.744C300.049 185.956 299.828 186.163 299.597 186.365C301.777 189.464 303.734 192.713 305.454 196.089C306.981 199.064 308.323 202.13 309.471 205.271Z" fill="white"/>
<path d="M218.83 161.14L217.409 258.709L102.647 255.416L120.974 214.96C120.843 213.662 129.018 204.55 128.971 203.2C128.83 199.244 131.784 195.579 132.264 191.44C133.243 182.902 127.64 150.66 130.223 143.998C131.323 141.024 132.732 138.173 134.428 135.493C135.896 133.273 137.401 131.777 138.841 131.236L143.084 121.348L146.847 115.703L176.375 106.958L179.64 105.989L187.256 113.422L192.642 118.681L197.708 119.56C198.466 119.692 199.199 119.847 199.905 120.026C203.304 120.81 206.471 122.379 209.153 124.608C217.997 132.121 219.027 146.252 218.83 161.14Z" fill="#9E77ED"/>
<path d="M284.737 257.976C281.501 262.036 278.071 265.928 274.449 269.652L262.04 269.661L195.302 269.737L183.288 269.751L175.3 269.76L163.417 269.769L154.277 269.779L137.394 269.798L127.435 269.812L106.464 269.831L96.4538 269.845L68.7134 269.873L51.2893 269.892L46.6134 269.896C45.5738 268.833 44.5498 267.755 43.5416 266.66C41.0296 263.936 38.6132 261.128 36.2925 258.235L45.9736 258.226L52.5688 258.221L67.8385 258.202L97.3052 258.174L107.264 258.164L111.291 258.16H111.305L114.466 258.155L115.882 258.15L119.509 258.146H121.042L131.796 258.136L154.992 258.108L165.2 258.099L174.975 258.089L184.139 258.08L197.287 258.066L267.51 257.995L284.737 257.976Z" fill="#CCCCCC"/>
<path d="M125.961 111.475L125.935 111.477C124.578 111.604 123.227 111.186 122.178 110.315C121.129 109.445 120.469 108.194 120.342 106.837L117.667 78.2828C117.183 73.1675 117.732 68.0071 119.282 63.1084C122.32 53.5474 128.931 45.5278 137.737 40.7207C142.283 38.2451 147.284 36.7157 152.437 36.2247C173.521 34.2161 181.226 38.6072 194.25 70.7632C207.274 102.919 196.929 99.3606 196.929 99.3606C196.995 100.049 196.92 100.743 196.712 101.402C196.302 102.688 195.411 103.765 194.225 104.409C193.617 104.739 192.948 104.943 192.26 105.01C167.334 111.346 142.183 118.015 125.957 111.475L125.961 111.475Z" fill="#2F2E41"/>
<path d="M172.354 63.2805C175.483 67.9099 177.17 73.3627 177.201 78.9502C177.233 84.5377 175.608 90.0093 172.532 94.6739C169.456 99.3385 165.066 102.987 159.918 105.158C154.77 107.33 149.093 107.927 143.606 106.874C139.973 106.189 136.513 104.79 133.425 102.758C130.337 100.726 127.683 98.101 125.616 95.0359C122.494 90.408 120.812 84.9593 120.782 79.3768C120.752 73.7942 122.376 68.3278 125.448 63.6667C128.52 59.0056 132.904 55.3585 138.046 53.1853C143.189 51.0121 148.859 50.4101 154.343 51.4552C157.979 52.1362 161.443 53.5323 164.534 55.5624C167.626 57.5925 170.284 60.2163 172.354 63.2816L172.354 63.2805Z" fill="#9E616A"/>
<path d="M108.828 81.455C108.446 77.4095 108.88 73.3282 110.106 69.4539C110.39 59.9763 113.14 51.392 124.699 51.7523C128.273 49.8085 132.2 48.6033 136.249 48.2083L141.961 47.6442C142.025 47.6378 142.09 47.6317 142.154 47.6257C146.111 47.2574 150.103 47.6721 153.9 48.8464C157.697 50.0206 161.226 51.9312 164.285 54.4692C167.344 57.0072 169.873 60.1229 171.728 63.6383C173.583 67.1537 174.727 71 175.095 74.9576L175.149 75.5295L163.063 76.711L157.862 65.5802L158.119 77.1968L151.877 77.8094L149.254 72.1936L149.382 78.0506C140.114 86.213 126.06 86.6409 108.887 82.0275L108.828 81.455Z" fill="#2F2E41"/>
<path d="M147.486 108.551C147.384 109.491 147.547 110.442 147.958 111.295C148.165 111.731 148.432 112.137 148.751 112.5C149.025 112.808 149.334 113.084 149.672 113.32C150.673 114.017 151.89 114.335 153.104 114.215C153.179 114.208 153.255 114.198 153.33 114.188C153.406 114.177 153.481 114.165 153.556 114.151C153.632 114.137 153.707 114.122 153.782 114.104C153.856 114.086 153.931 114.067 154.006 114.046L158.224 112.864L162.952 99.6838L164.035 111.25L183.215 105.91L178.617 56.829L145.926 60.0502L146.822 60.9135C149.801 63.813 151.923 67.4782 152.953 71.5056C153.975 75.5868 154.291 79.813 153.886 84.0008C153.507 88.2353 152.723 92.4237 151.544 96.5083C150.518 100.125 149.284 103.68 147.849 107.155C147.664 107.601 147.542 108.071 147.486 108.551Z" fill="#2F2E41"/>
<path d="M151.846 263.295C151.284 263.295 150.729 263.169 150.221 262.928L59.6571 265.238C58.9622 264.909 58.3834 264.377 57.9973 263.712C57.6112 263.047 57.4358 262.28 57.4945 261.514C57.5531 260.747 57.8429 260.016 58.3256 259.417C58.8083 258.819 59.4612 258.381 60.1981 258.161L119.448 240.495C120.061 240.312 120.711 240.287 121.337 240.422L212.986 251.593C213.797 251.768 214.528 252.204 215.068 252.834C215.608 253.464 215.927 254.253 215.977 255.082C216.026 255.91 215.803 256.732 215.342 257.421C214.88 258.111 214.206 258.631 213.422 258.901L153.087 263.086C152.688 263.224 152.268 263.295 151.846 263.295Z" fill="#3F3D56"/>
<path d="M155.177 256.991C154.768 256.991 154.366 256.886 154.009 256.687L80.4574 260.123C80.0398 259.889 79.7023 259.534 79.489 259.105C79.2757 258.676 79.1965 258.193 79.2617 257.719C79.3268 257.245 79.5333 256.801 79.8543 256.445C80.1752 256.09 80.5958 255.839 81.0611 255.726L107.688 249.264C108.104 249.163 108.539 249.176 108.948 249.301L177.324 249.219C177.811 249.368 178.237 249.668 178.541 250.077C178.844 250.486 179.009 250.981 179.011 251.49C179.012 251.999 178.851 252.495 178.551 252.906C178.25 253.317 177.826 253.621 177.34 253.773L155.888 256.882C155.658 256.954 155.418 256.991 155.177 256.991Z" fill="#2F2E41"/>
<path d="M147.435 253.07C148.708 253.891 150.145 254.423 151.646 254.628C153.147 254.833 154.675 254.707 156.121 254.258C157.568 253.808 158.898 253.048 160.019 252.029C161.14 251.01 162.024 249.757 162.608 248.36L240.459 254.475L236.696 235.188L156.398 234.423C153.985 233.597 151.353 233.685 149.001 234.669C146.648 235.654 144.739 237.467 143.634 239.766C142.529 242.064 142.306 244.688 143.006 247.14C143.707 249.593 145.283 251.702 147.435 253.07Z" fill="#A0616A"/>
<path d="M193.418 127.463C193.418 127.463 205.178 118.055 219.291 134.99C228.808 146.411 247.167 215.452 248.689 244.061C248.786 245.872 248.507 247.682 247.871 249.38C247.234 251.078 246.254 252.625 244.992 253.927C243.73 255.228 242.212 256.254 240.534 256.941C238.857 257.628 237.055 257.962 235.243 257.92L193.747 257.198L189.107 231.113L221.868 231.501L193.418 127.463Z" fill="#9E77ED"/>
<path d="M146.809 263.306C145.385 263.305 143.976 263.019 142.664 262.467L58.7226 264.382C56.5073 263.458 54.6683 261.814 53.503 259.715C52.3377 257.617 51.9142 255.187 52.301 252.818L49.1819 179.099C49.5955 176.465 50.9815 174.083 53.066 172.422C55.1506 170.761 57.7822 169.942 60.4413 170.126L138.372 173.358C139.867 173.456 141.326 173.868 142.653 174.566C143.979 175.264 145.145 176.233 146.073 177.41C147.001 178.588 147.671 179.947 148.04 181.4C148.409 182.853 148.468 184.367 148.214 185.845L157.344 254.416C156.915 256.901 155.623 259.155 153.696 260.78C151.769 262.406 149.33 263.301 146.809 263.306Z" fill="#3F3D56"/>
<path d="M83.0683 43.8285L48.0365 43.7297C47.0975 43.7286 46.1964 44.0998 45.5306 44.762C44.8648 45.4243 44.4888 46.3235 44.4849 47.2625L44.3579 93.65C44.3559 94.5881 44.7264 95.4886 45.3879 96.1536C46.0495 96.8187 46.948 97.194 47.886 97.197L67.3188 97.2534L82.9225 97.2957C83.8613 97.2975 84.7623 96.9263 85.4274 96.2638C86.0926 95.6013 86.4674 94.7017 86.4694 93.7629L86.4788 91.0204L86.6011 47.3801C86.603 46.4408 86.232 45.5392 85.5696 44.8733C84.9072 44.2073 84.0076 43.8316 83.0683 43.8285Z" fill="#E6E6E6"/>
<path d="M80.5986 46.5992L50.4921 46.5145C49.6129 46.5134 48.7692 46.8609 48.1458 47.4808C47.5224 48.1007 47.1701 48.9424 47.1662 49.8215L47.0816 79.6458C47.0757 83.5625 48.6235 87.3216 51.3855 90.0987C54.1475 92.8757 57.8983 94.4438 61.8149 94.4591L67.5352 94.4733L80.4669 94.5109C81.3462 94.5128 82.1904 94.1656 82.814 93.5455C83.4376 92.9255 83.7896 92.0833 83.7927 91.2039L83.8021 88.2026L83.9056 49.925C83.9075 49.0456 83.5603 48.2014 82.9402 47.5779C82.3202 46.9543 81.478 46.6023 80.5986 46.5992Z" fill="white"/>
<path d="M77.2163 66.9775H53.7426C53.5576 66.9775 53.3744 67.014 53.2035 67.0848C53.0325 67.1556 52.8772 67.2594 52.7464 67.3902C52.6156 67.521 52.5118 67.6763 52.441 67.8473C52.3702 68.0182 52.3337 68.2014 52.3337 68.3864C52.3337 68.5714 52.3702 68.7547 52.441 68.9256C52.5118 69.0965 52.6156 69.2518 52.7464 69.3827C52.8772 69.5135 53.0325 69.6173 53.2035 69.6881C53.3744 69.7589 53.5576 69.7953 53.7426 69.7953H77.2163C77.59 69.7953 77.9483 69.6469 78.2125 69.3827C78.4768 69.1185 78.6252 68.7601 78.6252 68.3864C78.6252 68.0128 78.4768 67.6544 78.2125 67.3902C77.9483 67.126 77.59 66.9775 77.2163 66.9775Z" fill="#9E77ED"/>
<path d="M58.9031 59.2534H53.7426C53.369 59.2534 53.0106 59.4018 52.7464 59.666C52.4822 59.9303 52.3337 60.2886 52.3337 60.6623C52.3337 61.0359 52.4822 61.3943 52.7464 61.6585C53.0106 61.9227 53.369 62.0712 53.7426 62.0712H58.9031C59.2767 62.0712 59.6351 61.9227 59.8993 61.6585C60.1635 61.3943 60.312 61.0359 60.312 60.6623C60.312 60.2886 60.1635 59.9303 59.8993 59.666C59.6351 59.4018 59.2767 59.2534 58.9031 59.2534Z" fill="#9E77ED"/>
<path d="M77.2163 79.3636H53.7426C53.369 79.3636 53.0106 79.512 52.7464 79.7762C52.4822 80.0405 52.3337 80.3988 52.3337 80.7725C52.3337 81.1461 52.4822 81.5045 52.7464 81.7687C53.0106 82.0329 53.369 82.1814 53.7426 82.1814H77.2163C77.59 82.1814 77.9483 82.0329 78.2125 81.7687C78.4768 81.5045 78.6252 81.1461 78.6252 80.7725C78.6252 80.3988 78.4768 80.0405 78.2125 79.7762C77.9483 79.512 77.59 79.3636 77.2163 79.3636Z" fill="#9E77ED"/>
<path d="M77.2164 73.1729H53.7427C53.3697 73.1729 53.0119 73.3211 52.7481 73.5849C52.4844 73.8487 52.3362 74.2064 52.3362 74.5794C52.3362 74.9525 52.4844 75.3102 52.7481 75.574C53.0119 75.8378 53.3697 75.986 53.7427 75.986H77.2164C77.5894 75.986 77.9472 75.8378 78.211 75.574C78.4747 75.3102 78.6229 74.9525 78.6229 74.5794C78.6229 74.2064 78.4747 73.8487 78.211 73.5849C77.9472 73.3211 77.5894 73.1729 77.2164 73.1729Z" fill="#9E77ED"/>
<path d="M72.6551 64.2352C71.0068 64.2352 69.3955 63.7465 68.025 62.8307C66.6544 61.9149 65.5862 60.6133 64.9554 59.0905C64.3247 57.5677 64.1596 55.8919 64.4812 54.2753C64.8028 52.6587 65.5965 51.1737 66.762 50.0081C67.9276 48.8426 69.4125 48.0489 71.0292 47.7273C72.6458 47.4057 74.3215 47.5707 75.8444 48.2015C77.3672 48.8323 78.6689 49.9005 79.5846 51.271C80.5004 52.6416 80.9891 54.2529 80.9891 55.9012C80.9866 58.1107 80.1078 60.2291 78.5454 61.7915C76.983 63.3539 74.8647 64.2327 72.6551 64.2352ZM72.6551 48.1463C71.1213 48.1463 69.622 48.6011 68.3467 49.4532C67.0714 50.3053 66.0775 51.5165 65.4905 52.9335C64.9036 54.3505 64.75 55.9098 65.0492 57.4141C65.3484 58.9184 66.087 60.3002 67.1715 61.3847C68.2561 62.4693 69.6378 63.2079 71.1421 63.5071C72.6465 63.8063 74.2057 63.6527 75.6227 63.0658C77.0397 62.4788 78.2509 61.4849 79.103 60.2096C79.9551 58.9343 80.41 57.435 80.41 55.9012C80.4076 53.8452 79.5899 51.8741 78.136 50.4203C76.6822 48.9664 74.7111 48.1486 72.6551 48.1463Z" fill="#9E77ED"/>
<path d="M76.1552 59.1293C75.5795 56.1572 74.3806 53.3409 72.6374 50.8659C72.598 50.8018 72.5429 50.7488 72.4772 50.712C72.4116 50.6752 72.3376 50.6559 72.2623 50.6559C72.187 50.6559 72.113 50.6752 72.0474 50.712C71.9817 50.7488 71.9266 50.8018 71.8872 50.8659C70.369 53.5214 69.3986 56.4543 69.0333 59.4913C68.9658 60.045 69.8351 60.0401 69.902 59.4913C70.0241 58.5071 70.2144 57.5326 70.4715 56.5747C70.5048 56.5682 70.5373 56.5582 70.5686 56.545C71.7237 55.9651 73.0288 55.7525 74.3083 55.936C74.3194 55.9377 74.3302 55.9353 74.3413 55.9364C74.7638 57.0477 75.0904 58.1932 75.3175 59.3602C75.4234 59.9086 76.2609 59.6764 76.1552 59.1293ZM70.7842 55.5094C71.183 54.2723 71.6906 53.0731 72.3012 51.9257C72.9474 52.913 73.5086 53.9536 73.9786 55.036C72.8919 54.9543 71.8006 55.116 70.7842 55.5094Z" fill="#9E77ED"/>
</g>
<defs>
<clipPath id="clip0_203_8585">
<rect width="318" height="318" fill="white"/>
</clipPath>
</defs>
</svg>
