<svg width="44" height="52" viewBox="0 0 44 52" fill="none" xmlns="http://www.w3.org/2000/svg">
<path fill-rule="evenodd" clip-rule="evenodd" d="M28.8604 1.31332C31.9217 2.34232 33.9167 5.22399 33.9167 9.00165C33.9167 11.3747 32.5681 13.561 31.0631 15.3017C29.5161 17.096 27.5607 18.7037 25.8481 19.952L25.6311 20.1107C23.9697 21.324 22.5977 22.3273 20.5001 22.3273C18.4001 22.3273 17.0327 21.324 15.3714 20.1107L15.1521 19.952C13.4394 18.7037 11.4841 17.096 9.93705 15.304C8.43672 13.561 7.08339 11.3747 7.08339 9.00165C7.08339 5.22399 9.07838 2.34465 12.1397 1.31332C14.7531 0.433654 17.7911 1.01465 20.5001 2.98632C23.2091 1.01465 26.2494 0.433654 28.8604 1.31332ZM27.7451 4.63132C26.2237 4.11799 23.9534 4.44932 21.6854 6.53532C21.3624 6.83211 20.9398 6.99681 20.5012 6.99681C20.0626 6.99681 19.64 6.83211 19.3171 6.53532C17.0467 4.44932 14.7787 4.11799 13.2574 4.63132C11.7967 5.12132 10.5834 6.53065 10.5834 9.00165C10.5834 10.0913 11.2484 11.4633 12.5877 13.0173C13.8851 14.5223 15.6024 15.9503 17.2147 17.124C19.1817 18.559 19.6484 18.8273 20.5001 18.8273C21.3517 18.8273 21.8184 18.559 23.7877 17.124C25.3977 15.9503 27.1151 14.5223 28.4124 13.0173C29.7541 11.4633 30.4191 10.0913 30.4191 9.00165C30.4191 6.52832 29.2034 5.12132 27.7451 4.63132ZM12.7627 31.712C17.1167 30.8673 21.7764 31.0587 25.5494 33.308C26.0767 33.623 26.5761 34.0173 27.0077 34.5027C27.8851 35.4873 28.3377 36.7123 28.3587 37.9397C28.8044 37.6527 29.2524 37.333 29.7051 36.99L33.9237 33.805C34.98 33.0288 36.2565 32.6102 37.5672 32.6102C38.878 32.6102 40.1545 33.0288 41.2107 33.805C43.1614 35.275 43.9407 37.9187 42.5431 40.1563C41.5514 41.7477 40.0557 43.948 38.5367 45.3573C36.9967 46.7807 34.8104 47.9776 33.1561 48.778C31.1447 49.7486 28.9747 50.283 26.8631 50.626C22.5464 51.326 18.0571 51.2163 13.7917 50.339C11.5921 49.8863 9.3524 49.6573 7.10672 49.6553H1.83339C1.36926 49.6553 0.924138 49.4709 0.595949 49.1428C0.26776 48.8146 0.083386 48.3694 0.083386 47.9053C0.083386 47.4412 0.26776 46.9961 0.595949 46.6679C0.924138 46.3397 1.36926 46.1553 1.83339 46.1553H7.10672C9.58472 46.1553 12.0884 46.412 14.4987 46.9113C18.3864 47.7091 22.3864 47.7968 26.3054 47.1703C28.2374 46.8577 30.0434 46.3933 31.6347 45.6256C33.2284 44.8556 35.0204 43.843 36.1567 42.7883C37.307 41.7243 38.5927 39.8787 39.5751 38.306C39.8714 37.83 39.8294 37.144 39.1037 36.5957C38.6547 36.2783 38.1183 36.1078 37.5684 36.1078C37.0185 36.1078 36.4821 36.2783 36.0331 36.5957L31.8167 39.783C30.1321 41.0546 28.0601 42.415 25.4911 42.8233C25.222 42.8668 24.952 42.905 24.6814 42.9377C23.0465 43.1263 21.3962 43.1419 19.7581 42.9843C19.5252 42.9682 19.2979 42.9057 19.0895 42.8005C18.8812 42.6952 18.696 42.5493 18.5449 42.3714C18.3938 42.1935 18.2798 41.9872 18.2096 41.7645C18.1395 41.5419 18.1145 41.3075 18.1363 41.0751C18.1581 40.8427 18.2262 40.617 18.3365 40.4113C18.4469 40.2056 18.5972 40.0241 18.7788 39.8773C18.9603 39.7306 19.1694 39.6217 19.3937 39.557C19.618 39.4923 19.8529 39.4732 20.0847 39.5006C21.5501 39.6383 22.8614 39.608 23.9767 39.4937L24.0467 39.4867C24.2644 39.3515 24.4494 39.1698 24.5884 38.9545C24.7273 38.7393 24.8168 38.4959 24.8503 38.2418C24.8837 37.9878 24.8604 37.7295 24.782 37.4856C24.7036 37.2417 24.572 37.0182 24.3967 36.8313C24.2108 36.6266 23.9944 36.4519 23.7551 36.3133C20.9994 34.6683 17.3174 34.3953 13.4277 35.1467C9.62847 35.911 6.02679 37.4477 2.84605 39.6617C2.65852 39.7946 2.44664 39.8894 2.2225 39.9405C1.99835 39.9916 1.76634 39.998 1.5397 39.9595C1.31306 39.9209 1.09624 39.8381 0.901617 39.7157C0.706991 39.5933 0.538371 39.4338 0.405386 39.2463C0.272401 39.0588 0.177654 38.8469 0.126555 38.6228C0.0754565 38.3986 0.0690066 38.1666 0.107574 37.94C0.146141 37.7133 0.22897 37.4965 0.351332 37.3019C0.473694 37.1073 0.633192 36.9386 0.820719 36.8057C4.40856 34.3043 8.47401 32.5702 12.7627 31.712Z" fill="#7F56D9"/>
</svg>
