<svg width="32" height="32" viewBox="0 0 32 32" fill="none" xmlns="http://www.w3.org/2000/svg">
<g clip-path="url(#clip0_31_205)">
<path d="M149 -42.749H165C165.638 -42.749 166.206 -42.45 166.572 -41.985C166.714 -41.995 166.856 -42 167 -42H168.8C168.536 -42.7997 168.027 -43.4959 167.345 -43.9895C166.663 -44.483 165.842 -44.7488 165 -44.749H149C147.939 -44.749 146.922 -44.3276 146.172 -43.5774C145.421 -42.8273 145 -41.8099 145 -40.749V-31.749C145 -30.6881 145.421 -29.6707 146.172 -28.9206C146.922 -28.1704 147.939 -27.749 149 -27.749H156V-25.296H152C151.735 -25.296 151.48 -25.1906 151.293 -25.0031C151.105 -24.8156 151 -24.5612 151 -24.296C151 -24.0308 151.105 -23.7764 151.293 -23.5889C151.48 -23.4014 151.735 -23.296 152 -23.296H161V-25.296H158V-27.749H161V-30.749H149C148.47 -30.749 147.961 -30.9597 147.586 -31.3348C147.211 -31.7099 147 -32.2186 147 -32.749V-40.749C147 -41.2794 147.211 -41.7881 147.586 -42.1632C147.961 -42.5383 148.47 -42.749 149 -42.749ZM199.273 -22.611C198.271 -22.6125 197.281 -22.8283 196.37 -23.2439C195.458 -23.6596 194.646 -24.2654 193.988 -25.0208C193.33 -25.7762 192.842 -26.6637 192.555 -27.6236C192.268 -28.5835 192.19 -29.5936 192.326 -30.5861C192.462 -31.5786 192.809 -32.5306 193.343 -33.378C193.878 -34.2254 194.587 -34.9487 195.424 -35.4993C196.261 -36.0499 197.206 -36.4151 198.196 -36.5702C199.185 -36.7254 200.197 -36.667 201.162 -36.399C201.961 -37.9061 203.156 -39.1671 204.618 -40.0462C206.079 -40.9254 207.753 -41.3896 209.459 -41.389C211.69 -41.3892 213.849 -40.5947 215.548 -39.148C217.247 -37.7013 218.375 -35.6969 218.73 -33.494C220.134 -33.3829 221.44 -32.7327 222.375 -31.6798C223.31 -30.6269 223.801 -29.2529 223.746 -27.8458C223.69 -26.4388 223.092 -25.1079 222.077 -24.132C221.062 -23.1561 219.708 -22.611 218.3 -22.611H199.273ZM-164.5 16.007C-164.5 9.65599 -169.649 4.50699 -176 4.50699C-182.351 4.50699 -187.5 9.65599 -187.5 16.007C-187.5 21.4 -183.787 25.925 -178.778 27.168V19.521H-181.15V16.007H-178.78V14.493C-178.78 10.578 -177.008 8.76401 -173.165 8.76401C-172.436 8.76401 -171.179 8.90699 -170.665 9.04999V12.235C-171.107 12.2015 -171.55 12.1874 -171.993 12.193C-173.879 12.193 -174.608 12.907 -174.608 14.764V16.007H-170.852L-171.497 19.521H-174.607V27.423C-168.914 26.735 -164.5 21.886 -164.5 16.007Z" fill="#EDEDED"/>
<path fill-rule="evenodd" clip-rule="evenodd" d="M3 12.648C3 9.68601 5.162 7.17101 8.11 6.89801C13.3587 6.41001 18.6413 6.41001 23.89 6.89801C26.839 7.17101 29 9.68601 29 12.648V19.352C29 22.314 26.838 24.829 23.89 25.102C18.6413 25.59 13.3587 25.59 8.11 25.102C5.161 24.829 3 22.314 3 19.352V12.648ZM13.724 19.138C13.6478 19.1762 13.563 19.1943 13.4779 19.1905C13.3927 19.1867 13.3099 19.1612 13.2373 19.1164C13.1648 19.0716 13.1049 19.009 13.0634 18.9346C13.0218 18.8601 13 18.7763 13 18.691V13.309C13 13.2237 13.0218 13.1399 13.0634 13.0654C13.1049 12.991 13.1648 12.9284 13.2373 12.8836C13.3099 12.8388 13.3927 12.8133 13.4779 12.8095C13.563 12.8057 13.6478 12.8238 13.724 12.862L19.106 15.553C19.1892 15.5945 19.2592 15.6583 19.3081 15.7374C19.357 15.8164 19.383 15.9075 19.383 16.0005C19.383 16.0935 19.357 16.1846 19.3081 16.2636C19.2592 16.3427 19.1892 16.4065 19.106 16.448L13.724 19.138ZM59 4C57.1435 4 55.363 4.73751 54.0502 6.05026C52.7375 7.36302 52 9.14348 52 11V21C52 22.8565 52.7375 24.637 54.0502 25.9497C55.363 27.2625 57.1435 28 59 28H69C70.8565 28 72.637 27.2625 73.9497 25.9497C75.2625 24.637 76 22.8565 76 21V11C76 9.14348 75.2625 7.36302 73.9497 6.05026C72.637 4.73751 70.8565 4 69 4H59ZM59.818 10.397V21.603H65.9C68.034 21.603 69.159 20.259 69.159 18.579C69.159 17.168 68.202 16.008 67.009 15.824C68.067 15.605 68.941 14.664 68.941 13.253C68.941 11.758 67.849 10.397 65.715 10.397H59.818ZM65.194 14.9H62.204V12.43H65.194C66.001 12.43 66.505 12.968 66.505 13.656C66.505 14.379 66.001 14.9 65.194 14.9ZM65.278 19.57H62.204V16.932H65.278C66.219 16.932 66.723 17.537 66.723 18.243C66.723 19.049 66.186 19.57 65.278 19.57Z" fill="#EDEDED"/>
</g>
<defs>
<clipPath id="clip0_31_205">
<rect width="32" height="32" fill="white"/>
</clipPath>
</defs>
</svg>
