<svg width="48" height="48" viewBox="0 0 48 48" fill="none" xmlns="http://www.w3.org/2000/svg">
<rect width="48" height="48" rx="24" fill="#F9F5FF"/>
<path d="M34.6668 36V33.3333C34.6668 31.9188 34.1049 30.5623 33.1047 29.5621C32.1045 28.5619 30.748 28 29.3335 28H18.6668C17.2523 28 15.8958 28.5619 14.8956 29.5621C13.8954 30.5623 13.3335 31.9188 13.3335 33.3333V36M29.3335 17.3333C29.3335 20.2789 26.9457 22.6667 24.0002 22.6667C21.0546 22.6667 18.6668 20.2789 18.6668 17.3333C18.6668 14.3878 21.0546 12 24.0002 12C26.9457 12 29.3335 14.3878 29.3335 17.3333Z" stroke="#7F56D9" stroke-width="1.33333" stroke-linecap="round" stroke-linejoin="round"/>
</svg>
