<svg width="425" height="424" viewBox="0 0 425 424" fill="none" xmlns="http://www.w3.org/2000/svg">
<g clip-path="url(#clip0_26_3547)">
<g clip-path="url(#clip1_26_3547)">
<path d="M314.818 165.716C314.178 143.77 348.946 164.294 361.981 185.525C380.983 216.479 350.259 247.693 339.374 203.765C331.19 170.739 315.27 181.166 314.818 165.716ZM102.042 102.945C99.8838 104.785 99.7433 107.667 101.155 109.318C102.567 110.968 105.929 111.74 108.045 111.404C111.684 110.825 113.632 106.898 111.854 103.077C109.804 98.6718 104.199 101.106 102.042 102.945ZM189.986 57.207C185.767 69.3385 205.009 61.9486 216.966 66.0932C228.922 70.2377 236.679 83.6456 243.134 76.5667C250.797 68.1619 237.666 50.7826 225.709 46.6381C213.753 42.4935 194.204 45.0746 189.986 57.207Z" fill="#FFDDBF"/>
<path d="M209.272 354.253C242.163 368.146 260.566 344.986 274.28 312.622C287.994 280.257 275.773 266.758 242.883 252.864C209.992 238.971 182.554 246.901 168.84 279.266C150.837 321.751 176.382 340.359 209.272 354.253Z" fill="#B7EB6E"/>
<path fill-rule="evenodd" clip-rule="evenodd" d="M284.309 358.98C274.673 371.483 252.553 385.666 238.266 393.763C229.56 398.697 233.785 410.71 243.991 405.883C260.941 397.866 284.901 381.855 295.281 366.292C299.698 359.668 289.589 352.13 284.309 358.98ZM110.588 45.0402C99.9334 47.1381 82.0596 44.4448 70.9981 42.1561C64.2573 40.7614 60.9934 48.8897 68.4622 51.0203C80.865 54.558 100.519 57.139 112.947 53.7948C118.236 52.3717 116.426 43.8901 110.588 45.0402Z" fill="#B7EB6E"/>
<path d="M354.734 106.99C351.11 105.751 347.731 106.699 346.462 110.401C345.191 114.104 348.138 117.265 351.761 118.504C355.385 119.742 358.284 118.618 359.554 114.915C361.221 110.055 358.357 108.228 354.734 106.99Z" fill="#B7EB6E"/>
<path d="M337.943 25.9976C337.588 20.8787 327.684 20.1897 320.538 21.0695C314.335 21.8345 306.839 22.9262 307.194 28.046C307.441 31.6155 305.456 35.0215 321.528 35.1302C332.755 35.1982 338.248 31.1305 337.943 25.9976ZM51.8112 99.5702C52.4942 109.713 31.1947 109.777 23.9768 109.203L23.4175 91.0364C26.1769 90.4022 29.4276 90.063 33.1677 90.086C54.0714 90.2326 51.4887 94.7914 51.8112 99.5702Z" fill="#7BB5FB"/>
<path d="M200.349 235.26C203.704 234.38 212.571 233.782 210.338 228.585C210.03 227.859 209.475 227.403 208.611 227.403C199.153 227.834 189.472 229.775 179.693 231.092C184.922 228.716 187.721 227.306 191.828 226.161C194.961 225.292 207.388 223.322 207.836 217.86M200.349 235.26C182.198 239.408 167.046 251.354 158.687 267.358M200.349 235.26C210.205 233.018 220.453 233.146 230.25 235.633M207.836 217.86C227.098 217.219 248.743 208.33 264.232 194.133M207.836 217.86C207.945 216.52 207.216 215.054 205.689 215.054C202.747 215.775 199.857 216.488 197.006 217.242M158.687 267.358C154.246 275.863 151.722 285.514 151.685 295.752C151.558 329.841 180.34 358.277 214.308 358.277C248.271 358.277 277.247 330.451 277.375 296.195C277.393 290.6 276.595 285.234 275.442 279.793M158.687 267.358C147.206 289.594 134.346 326.262 109.385 337.041C91.9202 344.584 74.2327 331.72 69.3368 315.168C64.1591 297.663 75.3213 282.31 87.3742 270.867M230.25 235.633C230.536 237.088 232.085 238.386 233.392 239.03C240.005 242.285 246.731 244.995 253.654 247.587C254.542 247.919 258.057 248.92 258.587 249.693C259.296 250.726 258.38 251.461 256.824 251.528C252.687 251.703 248.584 252.12 244.525 252.57C241.881 252.863 239.006 253.023 236.524 254.027C235.377 254.491 233.997 255.258 234.391 257.068C234.969 259.795 237.884 259.702 240.069 259.455M230.25 235.633C229.816 233.427 232.043 232.338 233.898 232.516C235.255 232.663 236.562 233.119 237.844 233.637C242.745 235.632 247.703 237.462 252.667 239.288C256.824 240.817 261.542 241.702 265.703 243.684C278.097 249.52 285.361 261.711 293.586 271.967C301.318 281.608 310.419 290.079 318.213 299.671C327.136 310.654 326.563 322.752 318.563 333.078M275.442 279.793C280.346 284.91 283.563 291.889 285.853 298.304C290.484 311.275 303.88 328.817 318.563 333.078M275.442 279.793C268.342 272.383 258.996 271.696 249.214 272.141M87.3742 270.867C49.1109 256.263 46.3727 199.497 74.5243 174.407C98.5832 152.939 146.89 152.564 164.539 125.833M87.3742 270.867C111.21 248.238 133.325 221.941 154.865 197.05M175.808 92.8701C183.515 93.265 192.592 88.3148 197.561 82.7738C201.755 78.0948 204.785 71.863 203.962 63.6755M175.808 92.8701C166.662 85.664 154.301 94.385 156.52 104.371C157.701 109.666 162.595 113.991 168.088 114.216M175.808 92.8701C174.421 70.3896 182.389 50.3533 209.225 48.432M203.962 63.6755C205.139 75.3963 217.589 75.9757 226 78.0197C233.894 79.9383 243.38 83.8099 241.624 93.8179M203.962 63.6755C203.444 58.516 205.193 52.3602 209.225 48.432M168.088 114.216C169.356 114.268 170.924 114.079 172.463 113.624M168.088 114.216C168.072 118.647 166.75 122.485 164.539 125.833M209.225 48.432C216.27 47.9277 223.534 49.2571 229.526 53.2965C242.105 61.7675 245.927 80.2757 241.624 93.8179M241.624 93.8179C250.543 85.6136 263.822 94.6438 261.504 104.741C260.402 109.539 256.252 113.504 251.393 114.345M251.393 114.345C249.526 114.669 247.466 114.461 245.562 113.799M251.393 114.345C251.377 118.587 252.561 122.301 254.58 125.572M172.463 113.624C173.239 114.732 173.945 116.314 174.081 117.779C174.553 122.851 169.503 127.501 164.539 125.833M172.463 113.624C175.089 112.847 177.628 111.294 178.422 108.841C198.177 138.304 177.778 170.574 154.865 197.05M164.539 125.833C161.617 124.851 159.417 121.936 159.319 118.728C159.172 114.221 163.439 110.182 168.001 110.749M154.865 197.05C162.289 203.883 171.609 209.338 181.043 212.934M383.572 288.45V293.068M383.572 298.608V303.226M390.972 295.838H386.347M380.797 295.838H376.173M357.666 93.8179V99.9738M357.666 107.362V113.519M367.532 103.668H361.367M353.967 103.668H347.801M245.562 113.799C242.927 112.883 240.591 111.097 239.478 108.643C236.493 118.666 228.589 126.964 228.182 137.751C227.265 162.165 247.412 179.424 264.232 194.133M245.562 113.799C244.49 115.327 243.733 117.172 243.816 119.061C244.043 124.25 249.775 128.262 254.58 125.572M254.58 125.572C271.394 152.818 320.734 153.853 344.526 175.368C370.828 199.151 368.868 245.727 339.814 266.706M254.58 125.572C256.865 124.294 258.488 121.79 258.594 119.061C258.767 114.554 254.537 110.491 249.974 111.02M339.814 266.706C320.476 238.253 289.782 216.473 264.232 194.133M339.814 266.706C344.962 274.279 348.544 282.863 350.396 291.831M350.396 291.831C403.261 213.147 402.161 121.488 399.91 29.8399C351.346 56.0524 244.804 61.8859 212.003 7.0697C179.154 61.9645 66.7073 56.2883 24.1004 29.8399M350.396 291.831C354.297 310.714 341.5 339.733 318.563 333.078M260.955 265.005C255.534 265.229 250.105 265.575 244.694 265.989M244.694 265.989C243.091 266.112 241.486 266.227 239.879 266.31C238.165 266.409 236.155 265.99 235.699 263.884C235.139 261.237 238.081 259.68 240.069 259.455M244.694 265.989C242.29 266.169 237.841 266.442 238.38 269.783C238.668 271.524 239.87 272.072 241.237 272.244M240.069 259.455C246.587 258.717 253.235 258.146 259.919 257.708M241.237 272.244L209.291 304.471L196.93 292.227C195.784 291.091 194.234 290.455 192.62 290.459C191.006 290.463 189.459 291.106 188.317 292.247C187.175 293.389 186.532 294.938 186.529 296.553C186.527 298.168 187.165 299.719 188.304 300.865L202.897 315.544C206.35 319.017 211.97 319.019 215.426 315.548L249.225 281.607C250.478 280.35 251.18 278.647 251.178 276.872C251.176 275.097 250.47 273.396 249.214 272.141M241.237 272.244C243.852 272.574 246.599 272.259 249.214 272.141M188.484 100.627C192.438 96.8645 199.587 96.9237 203.529 100.676M201.473 99.1894L203.321 96.8459M198.767 98.1621L200.164 95.1341M195.772 97.8344L195.898 94.741M190.177 99.3501L188.361 96.9828M192.853 98.2354L191.519 95.2957M215.395 100.725C219.349 96.9625 226.498 97.0217 230.439 100.774M228.408 99.3007L230.23 96.944M225.702 98.2663L227.085 95.2321M222.673 97.9333L222.818 94.839M217.087 99.45L215.283 97.0809M219.773 98.3317L218.44 95.3937M318.563 333.078C291.318 368.237 251.893 397.78 212.003 416.93C172.648 398.039 139.111 368.522 109.37 337.047C100.976 328.164 97.4399 316.377 100.216 304.471C103.343 291.061 113.21 284.355 124.321 272.579C138.651 257.385 150.527 240.11 165.14 225.138C169.835 220.322 175.688 216.929 181.043 212.934M181.043 212.934C186.211 209.078 191.403 205.253 196.391 201.164C197.192 200.499 198.327 198.874 199.646 199.674C202.167 201.232 201.063 205.237 199.856 207.259C197.637 211.018 193.515 213.252 190.116 215.834M190.116 215.834C192.388 216.418 194.688 216.888 197.006 217.242M190.116 215.834C186.253 218.769 182.023 221.378 177.782 223.723C184.106 220.935 190.455 218.977 197.006 217.242M225.247 85.1746C214.005 84.1994 208.645 91.8481 209.491 101.779C209.898 106.554 211.176 108.988 209.955 110.871C209.227 111.98 207.464 112.164 206.28 111.845M192.53 113.667C200.312 124.219 218.44 121.75 224.397 113.101M24.0978 29.8399C23.6851 46.6204 23.3556 63.4255 23.4174 80.1662M23.4174 80.1662C24.9919 80.2899 26.5656 80.8861 27.412 81.7977C32.4847 87.2478 35.867 77.0984 42.4426 81.7977C43.7149 82.6969 45.0977 84.4547 46.2004 85.5562C49.2063 88.3758 59.5398 81.7977 64.9888 93.0741C66.3459 95.884 64.9888 100.592 57.4731 100.592C43.342 100.749 35.7433 100.25 23.7019 100.411M23.4174 80.1662C23.4421 86.9271 23.5296 93.6775 23.7019 100.411M52.2131 251.383C31.4023 203.797 25.0343 152.584 23.7019 100.411M105.603 104.294C105.603 104.78 105.507 105.26 105.321 105.709C105.135 106.157 104.862 106.564 104.518 106.907C104.175 107.25 103.767 107.522 103.318 107.708C102.869 107.893 102.388 107.988 101.903 107.988C100.922 107.989 99.9817 107.6 99.2879 106.907C98.5941 106.214 98.204 105.274 98.2033 104.294C98.2036 103.809 98.2996 103.328 98.4857 102.88C98.6718 102.432 98.9444 102.024 99.2879 101.682C99.6315 101.339 100.039 101.067 100.488 100.881C100.937 100.696 101.417 100.601 101.903 100.601C102.883 100.6 103.824 100.989 104.518 101.681C105.212 102.374 105.602 103.314 105.603 104.294ZM340.338 28.6907C345.952 28.6907 346.965 25.1733 345.952 23.0746C341.881 14.6504 334.162 19.5643 331.916 17.4584C331.093 16.6352 330.061 15.3226 329.109 14.6504C324.197 11.1409 321.671 18.7225 317.881 14.6504C316.057 12.685 310.583 12.6858 309.46 17.4593C308.47 21.7019 303.171 20.5916 300.29 23.0746C298.979 24.2052 298.151 25.7086 299.636 27.2862C301.46 29.2516 306.092 28.8312 309.46 28.6907C322.232 28.2694 327.706 28.8303 340.338 28.6907Z" stroke="#071D2B" stroke-width="1.64685" stroke-miterlimit="10" stroke-linecap="round" stroke-linejoin="round"/>
</g>
</g>
<defs>
<clipPath id="clip0_26_3547">
<rect width="425" height="424" fill="white"/>
</clipPath>
<clipPath id="clip1_26_3547">
<rect width="425" height="424" fill="white"/>
</clipPath>
</defs>
</svg>
