<svg width="32" height="32" viewBox="0 0 32 32" fill="none" xmlns="http://www.w3.org/2000/svg">
<g clip-path="url(#clip0_31_83)">
<path d="M293 -42.749H309C309.638 -42.749 310.206 -42.45 310.572 -41.985C310.714 -41.995 310.856 -42 311 -42H312.8C312.536 -42.7997 312.027 -43.4959 311.345 -43.9895C310.663 -44.483 309.842 -44.7488 309 -44.749H293C291.939 -44.749 290.922 -44.3276 290.172 -43.5774C289.421 -42.8273 289 -41.8099 289 -40.749V-31.749C289 -30.6881 289.421 -29.6707 290.172 -28.9206C290.922 -28.1704 291.939 -27.749 293 -27.749H300V-25.296H296C295.735 -25.296 295.48 -25.1906 295.293 -25.0031C295.105 -24.8156 295 -24.5612 295 -24.296C295 -24.0308 295.105 -23.7764 295.293 -23.5889C295.48 -23.4014 295.735 -23.296 296 -23.296H305V-25.296H302V-27.749H305V-30.749H293C292.47 -30.749 291.961 -30.9597 291.586 -31.3348C291.211 -31.7099 291 -32.2186 291 -32.749V-40.749C291 -41.2794 291.211 -41.7881 291.586 -42.1632C291.961 -42.5383 292.47 -42.749 293 -42.749ZM343.273 -22.611C342.271 -22.6125 341.281 -22.8283 340.37 -23.2439C339.458 -23.6596 338.646 -24.2654 337.988 -25.0208C337.33 -25.7762 336.842 -26.6637 336.555 -27.6236C336.268 -28.5835 336.19 -29.5936 336.326 -30.5861C336.462 -31.5786 336.809 -32.5306 337.343 -33.378C337.878 -34.2254 338.587 -34.9487 339.424 -35.4993C340.261 -36.0499 341.206 -36.4151 342.196 -36.5702C343.185 -36.7254 344.197 -36.667 345.162 -36.399C345.961 -37.9061 347.156 -39.1671 348.618 -40.0462C350.079 -40.9254 351.753 -41.3896 353.459 -41.389C355.69 -41.3892 357.849 -40.5947 359.548 -39.148C361.247 -37.7013 362.375 -35.6969 362.73 -33.494C364.134 -33.3829 365.44 -32.7327 366.375 -31.6798C367.31 -30.6269 367.801 -29.2529 367.746 -27.8458C367.69 -26.4388 367.092 -25.1079 366.077 -24.132C365.062 -23.1561 363.708 -22.611 362.3 -22.611H343.273ZM-20.5 16.007C-20.5 9.65599 -25.649 4.50699 -32 4.50699C-38.351 4.50699 -43.5 9.65599 -43.5 16.007C-43.5 21.4 -39.787 25.925 -34.778 27.168V19.521H-37.15V16.007H-34.78V14.493C-34.78 10.578 -33.008 8.76401 -29.165 8.76401C-28.436 8.76401 -27.179 8.90699 -26.665 9.04999V12.235C-27.1068 12.2015 -27.5499 12.1874 -27.993 12.193C-29.879 12.193 -30.608 12.907 -30.608 14.764V16.007H-26.852L-27.497 19.521H-30.607V27.423C-24.914 26.735 -20.5 21.886 -20.5 16.007Z" fill="#EDEDED"/>
<path fill-rule="evenodd" clip-rule="evenodd" d="M10.398 5.14301C11.845 4.92301 13.688 4.89999 16.02 4.89999C18.352 4.89999 20.194 4.92301 21.64 5.14301C23.114 5.36801 24.3 5.81301 25.239 6.74701L25.258 6.76599C26.191 7.70399 26.638 8.88901 26.864 10.363C27.086 11.81 27.11 13.652 27.11 15.985C27.11 18.318 27.086 20.16 26.864 21.607C26.638 23.081 26.191 24.266 25.258 25.204L25.238 25.223C24.3 26.157 23.114 26.602 21.641 26.827C20.194 27.047 18.352 27.07 16.02 27.07C13.687 27.07 11.845 27.047 10.399 26.827C8.92504 26.602 7.73904 26.157 6.80104 25.223L6.78104 25.204C5.85004 24.267 5.40005 23.083 5.17105 21.609C4.94605 20.161 4.92004 18.319 4.92004 15.985C4.92004 13.651 4.94604 11.809 5.17004 10.361C5.40004 8.88699 5.85005 7.70299 6.78205 6.76599L6.80104 6.74701C7.73904 5.81301 8.92504 5.36801 10.398 5.14301ZM10.7 7.12C9.45805 7.31 8.73705 7.64201 8.21205 8.16501L8.19905 8.177C7.67505 8.704 7.33905 9.426 7.14705 10.668C6.95105 11.936 6.92004 13.619 6.92004 15.985C6.92004 18.351 6.95005 20.034 7.14705 21.302C7.34005 22.544 7.67505 23.266 8.19905 23.793L8.21205 23.806C8.73705 24.328 9.45705 24.66 10.7 24.85C11.969 25.043 13.652 25.07 16.02 25.07C18.387 25.07 20.07 25.043 21.34 24.85C22.582 24.66 23.302 24.328 23.827 23.806L23.84 23.793C24.363 23.267 24.697 22.546 24.887 21.304C25.082 20.035 25.11 18.352 25.11 15.985C25.11 13.618 25.082 11.935 24.887 10.666C24.697 9.42399 24.363 8.703 23.84 8.177L23.827 8.16501C23.302 7.64201 22.582 7.31 21.34 7.12C20.07 6.927 18.387 6.89999 16.02 6.89999C13.652 6.89999 11.969 6.927 10.7 7.12ZM10.418 15.985C10.418 14.4992 11.0083 13.0744 12.0588 12.0238C13.1094 10.9732 14.5343 10.383 16.02 10.383C17.5058 10.383 18.9307 10.9732 19.9813 12.0238C21.0318 13.0744 21.622 14.4992 21.622 15.985C21.622 17.4707 21.0318 18.8956 19.9813 19.9462C18.9307 20.9968 17.5058 21.587 16.02 21.587C14.5343 21.587 13.1094 20.9968 12.0588 19.9462C11.0083 18.8956 10.418 17.4707 10.418 15.985ZM16.02 12.383C15.0646 12.383 14.1483 12.7625 13.4727 13.4381C12.7971 14.1137 12.4175 15.0301 12.4175 15.9855C12.4175 16.9409 12.7971 17.8573 13.4727 18.5329C14.1483 19.2085 15.0646 19.588 16.02 19.588C16.9755 19.588 17.8918 19.2085 18.5674 18.5329C19.243 17.8573 19.6225 16.9409 19.6225 15.9855C19.6225 15.0301 19.243 14.1137 18.5674 13.4381C17.8918 12.7625 16.9755 12.383 16.02 12.383Z" fill="#EDEDED"/>
<path d="M20.531 10.145C20.531 9.79053 20.6718 9.45059 20.9225 9.19995C21.1731 8.94931 21.513 8.8085 21.8675 8.8085C22.222 8.8085 22.5619 8.94931 22.8126 9.19995C23.0632 9.45059 23.204 9.79053 23.204 10.145C23.204 10.4995 23.0632 10.8394 22.8126 11.0901C22.5619 11.3407 22.222 11.4815 21.8675 11.4815C21.513 11.4815 21.1731 11.3407 20.9225 11.0901C20.6718 10.8394 20.531 10.4995 20.531 10.145ZM58.722 7.741C58.722 6.429 57.636 5.54901 56.361 5.54901C55.086 5.54901 54.011 6.486 54 7.741C54.011 8.995 55.086 9.93301 56.361 9.93301C57.636 9.93301 58.722 8.984 58.722 7.741ZM54.237 11.855H58.398V24.486H54.237V11.855ZM69.103 11.333C71.902 11.333 74 13.173 74 17.119V24.486H69.835V17.648C69.835 15.894 69.333 14.754 67.759 14.754C66.469 14.756 65.675 16.17 65.675 17.384V24.487L61.518 24.486V11.855H65.256V13.437C65.6474 12.7716 66.2118 12.2245 66.8891 11.8541C67.5665 11.4836 68.3315 11.3036 69.103 11.333ZM117.726 7H120.78L114.109 14.625L121.957 25H115.812L110.999 18.707L105.492 25H102.437L109.572 16.845L102.043 7H108.344L112.695 12.752L117.726 7ZM116.655 23.172H118.347L107.425 8.73199H105.609L116.655 23.172Z" fill="#EDEDED"/>
</g>
<defs>
<clipPath id="clip0_31_83">
<rect width="32" height="32" fill="white"/>
</clipPath>
</defs>
</svg>
