<svg width="40" height="40" viewBox="0 0 40 40" fill="none" xmlns="http://www.w3.org/2000/svg">
<rect width="40" height="40" rx="8" fill="#7F56D9"/>
<path fill-rule="evenodd" clip-rule="evenodd" d="M19.064 6.92666C19.5902 6.7298 20.1651 6.70413 20.7067 6.85333L20.936 6.92666L30.2693 10.4267C30.7426 10.6041 31.1556 10.9124 31.4604 11.3156C31.7652 11.7188 31.9491 12.2003 31.9907 12.704L32 12.924V20.0747C31.9999 22.2352 31.4166 24.3557 30.3115 26.2122C29.2064 28.0688 27.6205 29.5926 25.7213 30.6227L25.3667 30.808L20.8947 33.044C20.6484 33.1669 20.3795 33.2377 20.1046 33.252C19.8298 33.2662 19.5549 33.2235 19.2973 33.1267L19.1053 33.044L14.6333 30.808C12.7008 29.8417 11.065 28.3716 9.89867 26.5528C8.73231 24.734 8.07864 22.6341 8.00667 20.4747L8 20.0747V12.924C8.00001 12.4188 8.1435 11.9241 8.41378 11.4973C8.68405 11.0705 9.06999 10.7293 9.52667 10.5133L9.73067 10.4267L19.064 6.92666ZM20 9.42399L10.6667 12.924V20.0747C10.6667 21.748 11.1166 23.3906 11.9693 24.8304C12.8219 26.2702 14.046 27.4543 15.5133 28.2587L15.8267 28.4227L20 30.5093L24.1733 28.4227C25.6703 27.6743 26.9385 26.5372 27.8452 25.1305C28.7518 23.7237 29.2635 22.0991 29.3267 20.4267L29.3333 20.0747V12.924L20 9.42399ZM19.344 14.0213C19.7051 13.8862 20.0991 13.8662 20.472 13.964L20.656 14.0213L24.3893 15.4213C24.7168 15.5442 25.0032 15.7565 25.2158 16.0342C25.4285 16.3119 25.5588 16.6438 25.592 16.992L25.6 17.1693V20.0293C25.6 21.0204 25.337 21.9937 24.8378 22.8499C24.3386 23.7061 23.6211 24.4144 22.7587 24.9027L22.5053 25.0387L20.716 25.932C20.5222 26.029 20.3107 26.0857 20.0943 26.0985C19.878 26.1114 19.6613 26.0801 19.4573 26.0067L19.284 25.9333L17.496 25.0387C16.6097 24.5955 15.8569 23.9251 15.3144 23.0958C14.7719 22.2666 14.4591 21.3083 14.408 20.3187L14.4 20.0293V17.1693C14.4 16.8196 14.4983 16.477 14.6836 16.1805C14.8689 15.8839 15.1337 15.6454 15.448 15.492L15.6107 15.4213L19.344 14.0213ZM20 16.624L17.0667 17.724V20.0307C17.0668 20.5376 17.1983 21.0358 17.4483 21.4767C17.6984 21.9177 18.0584 22.2863 18.4933 22.5467L18.688 22.6533L20 23.3093L21.312 22.6533C21.7657 22.4265 22.1528 22.0859 22.4356 21.6648C22.7184 21.2437 22.8871 20.7565 22.9253 20.2507L22.9333 20.0293V17.724L20 16.624Z" fill="white"/>
</svg>
