<svg width="24" height="24" viewBox="0 0 24 24" fill="none" xmlns="http://www.w3.org/2000/svg">
<path d="M23.3041 11.944C23.3041 11.6086 23.2241 11.294 23.0901 11.008C22.1961 8.12398 18.0107 8.33464 12.0574 8.19398C11.0621 8.17064 11.6314 6.99531 11.9807 4.41531C12.2081 2.73731 11.1261 0.160645 9.30741 0.160645C6.30874 0.160645 9.19341 2.52598 6.54207 8.37531C5.12541 11.5006 1.95874 9.74998 1.95874 12.8893V20.0353C1.95874 21.2573 2.07874 22.432 3.79741 22.6253C5.46341 22.8126 5.08874 24 7.49207 24H19.5214C20.1106 23.9993 20.6755 23.7648 21.0921 23.3482C21.5086 22.9315 21.7429 22.3665 21.7434 21.7773C21.7434 21.2693 21.5654 20.8066 21.2781 20.432C21.9581 20.0513 22.4247 19.3326 22.4247 18.4993C22.4247 17.9926 22.2474 17.53 21.9607 17.156C22.6427 16.776 23.1107 16.0566 23.1107 15.222C23.1107 14.616 22.8654 14.0666 22.4701 13.6646C22.7292 13.4587 22.9387 13.1972 23.0831 12.8993C23.2274 12.6015 23.303 12.275 23.3041 11.944Z" fill="#FFDB5E"/>
<path d="M15.3468 14.1659H21.0828C21.8628 14.1659 22.5948 13.7486 22.9934 13.0773C23.0644 12.9446 23.0814 12.7896 23.0409 12.6446C23.0005 12.4997 22.9056 12.376 22.7761 12.2993C22.6466 12.2226 22.4925 12.1989 22.346 12.233C22.1994 12.2672 22.0717 12.3566 21.9894 12.4826C21.8957 12.6398 21.7629 12.77 21.6039 12.8606C21.4449 12.9511 21.2651 12.9989 21.0821 12.9993H15.2088C14.6268 12.9993 14.1534 12.5259 14.1534 11.9439C14.1534 11.3619 14.6268 10.8886 15.2088 10.8886H19.1334C19.2881 10.8886 19.4365 10.8271 19.5459 10.7177C19.6553 10.6083 19.7168 10.46 19.7168 10.3053C19.7168 10.1505 19.6553 10.0022 19.5459 9.89278C19.4365 9.78338 19.2881 9.72192 19.1334 9.72192H15.2081C14.619 9.72263 14.0542 9.95696 13.6377 10.3735C13.2211 10.7901 12.9868 11.3548 12.9861 11.9439C12.9861 12.6273 13.3028 13.2319 13.7894 13.6399C13.5788 13.846 13.4114 14.0922 13.2972 14.3638C13.1829 14.6355 13.1241 14.9272 13.1241 15.2219C13.1241 15.9073 13.4428 16.5139 13.9321 16.9213C13.701 17.1486 13.5226 17.424 13.4097 17.7279C13.2969 18.0319 13.2521 18.3569 13.2788 18.68C13.3054 19.0031 13.4028 19.3164 13.564 19.5977C13.7251 19.8791 13.9462 20.1215 14.2114 20.3079C13.8475 20.711 13.6452 21.2342 13.6434 21.7773C13.6441 22.3664 13.8785 22.9311 14.295 23.3477C14.7116 23.7642 15.2763 23.9986 15.8654 23.9993H19.5214C19.9068 23.9982 20.2854 23.8975 20.6203 23.7068C20.9552 23.5162 21.2351 23.2421 21.4327 22.9113C21.5081 22.7785 21.5284 22.6214 21.4893 22.4739C21.4501 22.3263 21.3547 22.2 21.2235 22.1219C21.0922 22.0439 20.9356 22.0205 20.7873 22.0566C20.639 22.0928 20.5107 22.1856 20.4301 22.3153C20.3361 22.4725 20.203 22.6028 20.0438 22.6934C19.8846 22.7841 19.7046 22.832 19.5214 22.8326H15.8654C15.2834 22.8326 14.8101 22.3593 14.8101 21.7773C14.8101 21.1953 15.2834 20.7219 15.8654 20.7219H20.2028C20.5882 20.7208 20.9668 20.62 21.3017 20.4292C21.6367 20.2384 21.9165 19.9642 22.1141 19.6333C22.1551 19.5674 22.1825 19.494 22.1948 19.4173C22.207 19.3407 22.2039 19.2624 22.1855 19.187C22.1671 19.1117 22.1339 19.0407 22.0878 18.9783C22.0416 18.9159 21.9835 18.8633 21.9168 18.8237C21.8501 18.7841 21.7762 18.7581 21.6993 18.7474C21.6225 18.7367 21.5443 18.7414 21.4693 18.7613C21.3943 18.7812 21.324 18.8158 21.2625 18.8632C21.2011 18.9106 21.1497 18.9698 21.1114 19.0373C21.0186 19.1956 20.8858 19.3268 20.7263 19.4177C20.5669 19.5086 20.3863 19.5561 20.2028 19.5553H15.4941C15.2221 19.5434 14.9651 19.427 14.7768 19.2303C14.5885 19.0337 14.4834 18.7719 14.4834 18.4996C14.4834 18.2273 14.5885 17.9655 14.7768 17.7688C14.9651 17.5722 15.2221 17.4558 15.4941 17.4439H20.8881C21.2735 17.4429 21.652 17.3422 21.987 17.1515C22.3219 16.9609 22.6018 16.6868 22.7994 16.3559C22.8748 16.2231 22.895 16.0661 22.8559 15.9185C22.8168 15.771 22.7214 15.6446 22.5901 15.5666C22.4589 15.4886 22.3023 15.4652 22.154 15.5013C22.0056 15.5374 21.8774 15.6303 21.7968 15.7599C21.7038 15.9181 21.5709 16.0491 21.4115 16.1399C21.252 16.2307 21.0716 16.2781 20.8881 16.2773H15.3468C15.0747 16.2654 14.8178 16.149 14.6295 15.9523C14.4412 15.7557 14.336 15.4939 14.336 15.2216C14.336 14.9493 14.4412 14.6875 14.6295 14.4908C14.8178 14.2942 15.0747 14.1778 15.3468 14.1659Z" fill="#EE9547"/>
</svg>
