<svg width="488" height="411" viewBox="0 0 488 411" fill="none" xmlns="http://www.w3.org/2000/svg">
<g clip-path="url(#clip0_203_11346)">
<path d="M397.438 198.364C397.438 204.139 397.194 209.856 396.708 215.514C396.325 219.93 395.802 224.308 395.14 228.645C394.436 233.237 393.574 237.775 392.552 242.257V242.262C391.885 245.211 391.152 248.137 390.353 251.038C388.036 259.473 385.154 267.743 381.726 275.793C380.981 277.544 380.212 279.283 379.418 281.01C376.416 287.551 373.054 293.921 369.348 300.092C358.954 317.422 345.981 333.072 330.872 346.506C329.237 347.958 327.579 349.385 325.899 350.789C290.226 380.535 245.201 396.799 198.719 396.727C88.968 396.727 0 307.918 0 198.364C0 88.8089 88.968 -0.000120523 198.719 -0.000120523C243.601 -0.0707624 287.173 15.0941 322.281 43.0045C323.927 44.3062 325.552 45.6373 327.156 46.9976C334.985 53.6251 342.291 60.844 349.01 68.5903H349.015C380.311 104.601 397.508 150.691 397.438 198.364Z" fill="#F2F2F2"/>
<path d="M58.6615 232.629C39.7313 221.382 25.4434 200.363 27.2983 178.451C44.6053 194.986 67.2134 204.877 91.1228 206.375C100.346 206.919 110.661 206.565 117.45 212.821C121.674 216.713 123.641 222.572 123.963 228.302C124.286 234.031 123.136 239.73 121.992 245.354L122.386 246.732C100.356 246.814 77.5918 243.875 58.6615 232.629Z" fill="#E6E6E6"/>
<path d="M27.7599 178.428C35.3448 194.98 47.9616 208.726 63.8182 217.712C67.227 219.617 70.851 221.253 74.7022 222.012C78.4618 222.723 82.3435 222.416 85.944 221.123C89.3254 219.985 92.6521 218.429 96.2518 218.131C100.046 217.817 103.559 219.278 106.319 221.838C109.695 224.969 111.744 229.125 113.605 233.259C115.672 237.848 117.746 242.648 121.708 245.948C122.188 246.348 121.539 247.068 121.059 246.669C114.165 240.927 113.04 231.31 107.529 224.548C104.957 221.392 101.417 218.991 97.2123 219.054C93.535 219.109 90.1031 220.71 86.6893 221.892C83.1048 223.134 79.514 223.717 75.7297 223.171C71.8587 222.612 68.1629 221.114 64.7203 219.305C56.9443 215.144 49.8721 209.788 43.7627 203.434C36.7498 196.221 31.0247 187.864 26.835 178.723C26.576 178.158 27.5025 177.866 27.7599 178.428Z" fill="white"/>
<path d="M58.5417 215.119C56.6701 217.57 53.9866 219.277 50.9705 219.935C47.9544 220.593 44.8021 220.16 42.0766 218.712C41.5261 218.418 41.9591 217.55 42.5103 217.845C45.0459 219.198 47.9823 219.601 50.7896 218.982C53.597 218.364 56.0903 216.764 57.8196 214.471C58.1959 213.973 58.916 214.624 58.5417 215.119Z" fill="white"/>
<path d="M84.3057 221.925C83.518 215.675 80.3991 209.95 75.5709 205.893C75.0922 205.492 75.7417 204.771 76.2198 205.172C81.2363 209.404 84.4698 215.367 85.2752 221.874C85.3516 222.494 84.3816 222.542 84.3057 221.925Z" fill="white"/>
<path d="M37.9539 195.766C38.8761 194.968 39.5853 193.955 40.0179 192.816C40.4505 191.677 40.593 190.448 40.4325 189.241C40.3483 188.622 41.3184 188.574 41.402 189.189C41.5731 190.524 41.4142 191.881 40.939 193.14C40.4638 194.399 39.6869 195.523 38.6761 196.414C38.5879 196.506 38.4679 196.561 38.3406 196.568C38.2132 196.574 38.0881 196.533 37.9905 196.451C37.8954 196.364 37.8381 196.244 37.8313 196.116C37.8244 195.988 37.8685 195.862 37.9539 195.766Z" fill="white"/>
<path d="M88.5742 136.001C88.6378 136.386 88.7013 136.771 88.7723 137.159C89.6538 142.331 90.9547 147.422 92.6622 152.383C92.7881 152.769 92.9215 153.157 93.0583 153.539C97.2997 165.447 103.719 176.466 111.99 186.035C115.285 189.84 118.865 193.389 122.699 196.652C127.995 201.157 134.095 205.622 137.49 211.439C137.851 212.042 138.175 212.667 138.458 213.31L124.039 246.145C123.968 246.203 123.905 246.265 123.835 246.324L123.319 247.661C123.11 247.507 122.896 247.342 122.686 247.187C122.564 247.098 122.446 247.002 122.324 246.913C122.243 246.851 122.163 246.789 122.087 246.738C122.061 246.717 122.034 246.697 122.015 246.679C121.939 246.628 121.873 246.573 121.805 246.525C120.606 245.608 119.412 244.68 118.222 243.743C118.215 243.739 118.215 243.739 118.21 243.729C109.162 236.563 100.634 228.58 93.5909 219.559C93.3791 219.287 93.1596 219.013 92.9544 218.726C89.8022 214.643 86.9897 210.308 84.5449 205.767C83.2142 203.276 82.0107 200.719 80.939 198.107C78.1829 191.351 76.5084 184.205 75.977 176.93C74.9198 162.428 78.5208 147.749 87.853 136.828C88.0919 136.549 88.3277 136.277 88.5742 136.001Z" fill="#E6E6E6"/>
<path d="M88.9592 136.257C85.032 154.031 86.8151 172.589 94.0554 189.294C95.6283 192.864 97.5352 196.348 100.152 199.269C102.725 202.096 106.01 204.183 109.665 205.315C113.051 206.438 116.645 207.196 119.699 209.121C122.918 211.151 124.841 214.429 125.501 218.131C126.309 222.66 125.438 227.21 124.431 231.629C123.313 236.535 122.074 241.614 123.247 246.631C123.389 247.239 122.436 247.423 122.294 246.816C120.253 238.088 125.154 229.733 124.833 221.022C124.683 216.957 123.305 212.912 119.909 210.435C116.94 208.269 113.234 207.485 109.796 206.377C106.185 205.214 102.966 203.522 100.274 200.811C97.5201 198.039 95.4728 194.621 93.8153 191.108C90.1163 183.112 87.6997 174.586 86.6541 165.841C85.4052 155.867 85.8748 145.753 88.0426 135.937C88.177 135.33 89.0928 135.654 88.9592 136.257Z" fill="white"/>
<path d="M91.407 184.052C88.4343 184.885 85.2621 184.635 82.4568 183.348C79.6516 182.061 77.3961 179.82 76.093 177.026C75.8313 176.46 76.7004 176.027 76.9625 176.594C78.1711 179.198 80.2724 181.285 82.887 182.478C85.5017 183.671 88.4575 183.892 91.221 183.101C91.8218 182.93 92.0043 183.882 91.407 184.052Z" fill="white"/>
<path d="M107.872 204.971C111.014 199.507 111.976 193.062 110.568 186.921C110.428 186.312 111.381 186.127 111.521 186.735C112.974 193.128 111.959 199.834 108.678 205.513C108.365 206.054 107.561 205.509 107.872 204.971Z" fill="white"/>
<path d="M86.6411 156.227C87.8585 156.144 89.0363 155.761 90.0686 155.112C91.101 154.463 91.9556 153.567 92.5558 152.507C92.8618 151.962 93.6651 152.507 93.361 153.048C92.6925 154.217 91.7475 155.204 90.6085 155.924C89.4695 156.644 88.1712 157.075 86.827 157.178C86.7011 157.199 86.5722 157.171 86.4664 157.099C86.3607 157.028 86.286 156.92 86.2576 156.796C86.2336 156.67 86.2604 156.539 86.3323 156.433C86.4041 156.326 86.5151 156.252 86.6411 156.227Z" fill="white"/>
<path d="M137.654 45.9749L161.976 330.189L113.332 333.84V49.5909C119.128 45.7622 127.449 45.1632 137.654 45.9749Z" fill="#CCCCCC"/>
<path d="M257.713 45.9749L233.391 330.189L282.036 333.84V49.5909C276.239 45.7622 267.919 45.1632 257.713 45.9749Z" fill="#CCCCCC"/>
<path d="M274.752 345.587H120.098C117.618 345.584 115.241 344.599 113.487 342.849C111.734 341.098 110.747 338.725 110.744 336.25V53.7621C110.747 51.2866 111.734 48.9134 113.487 47.163C115.241 45.4126 117.618 44.428 120.098 44.4252H274.752C277.232 44.428 279.61 45.4126 281.363 47.163C283.117 48.9134 284.103 51.2866 284.106 53.7621V336.25C284.103 338.725 283.117 341.098 281.363 342.849C279.61 344.599 277.232 345.584 274.752 345.587ZM120.098 47.5246C118.441 47.5264 116.853 48.1842 115.682 49.3535C114.51 50.5229 113.851 52.1083 113.849 53.7621V336.25C113.851 337.903 114.51 339.489 115.682 340.658C116.853 341.828 118.441 342.485 120.098 342.487H274.752C276.409 342.485 277.997 341.828 279.169 340.658C280.34 339.489 280.999 337.903 281.001 336.25V53.7621C280.999 52.1083 280.34 50.5229 279.169 49.3535C277.997 48.1842 276.409 47.5264 274.752 47.5246L120.098 47.5246Z" fill="#CCCCCC"/>
<path d="M282.553 91.4332H112.297V94.5327H282.553V91.4332Z" fill="#CCCCCC"/>
<path d="M282.553 143.09H112.297V146.19H282.553V143.09Z" fill="#CCCCCC"/>
<path d="M167.547 45.975H164.442V186.999H167.547V45.975Z" fill="#CCCCCC"/>
<path d="M230.408 45.975H227.303V186.999H230.408V45.975Z" fill="#CCCCCC"/>
<path d="M301.959 354.11H98.0657C94.36 354.11 90.806 352.641 88.1857 350.025C85.5653 347.409 84.0933 343.862 84.0933 340.163C84.0933 336.464 85.5653 332.916 88.1857 330.3C90.806 327.685 94.36 326.215 98.0657 326.215H301.959C305.665 326.215 309.219 327.685 311.839 330.3C314.46 332.916 315.932 336.464 315.932 340.163C315.932 343.862 314.46 347.409 311.839 350.025C309.219 352.641 305.665 354.11 301.959 354.11Z" fill="#CCCCCC"/>
<path d="M282.553 179.767H113.332V190.099H282.553V179.767Z" fill="#CCCCCC"/>
<path d="M168.029 212.647L167.814 212.544C156.278 206.981 141.172 206.986 118.831 212.562L118.592 212.621L118.521 212.386C116.158 204.651 113.48 195.89 118.51 191.58C118.58 178.931 129.695 168.661 143.347 168.661C156.997 168.661 168.11 178.926 168.185 191.571C175.666 197.281 172.101 205.719 168.149 212.442L168.029 212.647Z" fill="#2F2E41"/>
<path d="M238.931 185.563C238.725 186.588 238.295 187.555 237.673 188.397C237.052 189.238 236.252 189.933 235.332 190.433C234.412 190.933 233.394 191.225 232.348 191.289C231.303 191.353 230.256 191.188 229.282 190.805L188.515 231.699L184.877 219.001L225.367 181.025C226.12 179.434 227.432 178.174 229.055 177.483C230.677 176.793 232.496 176.721 234.168 177.28C235.84 177.839 237.249 178.992 238.126 180.518C239.004 182.045 239.291 183.84 238.931 185.563Z" fill="#FFB6B6"/>
<path d="M138.176 224.932C138.176 224.932 134.477 233.299 143.604 238.459C152.73 243.618 184.627 236.49 189.803 235.495C194.978 234.499 214.309 205.622 214.309 205.622L211.575 191.461L185.939 213.676L138.176 224.932Z" fill="#9E77ED"/>
<path d="M131.444 271.2L131.962 281.015C131.962 281.015 130.434 289.709 131.691 291.586C132.937 293.452 166.958 293.688 166.958 293.688C166.958 293.688 169.206 281.592 171.142 271.004L131.444 271.2Z" fill="#FFB6B6"/>
<path d="M229.258 400.974L236.371 399.54L234.335 370.863L223.838 372.98L229.258 400.974Z" fill="#FFB6B6"/>
<path d="M239.446 363.655L246.058 360.688L237.481 333.25L227.722 337.63L239.446 363.655Z" fill="#FFB6B6"/>
<path d="M245.206 348.195L232.756 355.232L202.052 305.981C180.497 320.477 159.42 327.418 138.172 331.123C130.988 332.4 123.663 331.752 122.284 324.454C122.22 324.113 122.168 323.769 122.13 323.424C121.282 315.452 131.216 305.233 132.479 295.479L159.669 293.85L163.022 298.141L194.465 278.844C200.789 274.963 209.106 277.062 213.042 283.532C213.249 283.874 213.442 284.224 213.62 284.582L245.206 348.195Z" fill="#2F2E41"/>
<path d="M237.586 381.327L223.34 382.648L197.51 329.916C171.896 334.314 147.732 335.722 126.831 330.403C119.755 328.627 115.429 321.333 117.169 314.111C117.251 313.774 117.345 313.44 117.452 313.109C119.953 305.491 126.501 300.101 131.66 291.721L169.342 292.293L165.134 306.789L201.739 302.06C209.101 301.11 215.824 306.428 216.756 313.941C216.805 314.337 216.837 314.736 216.852 315.135L237.586 381.327Z" fill="#2F2E41"/>
<path d="M146.158 205.15C154.608 205.15 161.459 198.312 161.459 189.876C161.459 181.441 154.608 174.602 146.158 174.602C137.707 174.602 130.856 181.441 130.856 189.876C130.856 198.312 137.707 205.15 146.158 205.15Z" fill="#FFB6B6"/>
<path d="M137.187 210.664L151.217 212.312C151.809 212.381 152.364 212.633 152.805 213.033C153.247 213.432 153.552 213.959 153.68 214.54L155.911 224.731L169.819 241.081C169.819 241.081 174.814 250.429 172.941 261.023C171.068 271.617 170.245 279.489 170.245 279.489C170.245 279.489 132.935 293.453 131.687 291.584C130.438 289.714 130.033 281.222 130.033 281.222L125.039 225.758C125.039 225.758 130.657 216.41 133.779 216.41C135.793 216.342 135.535 211.816 137.187 210.664Z" fill="#9E77ED"/>
<path d="M170.624 282.899C172.592 282.899 174.187 280.989 174.187 278.632C174.187 276.276 172.592 274.365 170.624 274.365C168.657 274.365 167.062 276.276 167.062 278.632C167.062 280.989 168.657 282.899 170.624 282.899Z" fill="#9E77ED"/>
<path d="M225.729 393.591L236.572 388.166L238.616 392.925L252.328 395.692C253.005 395.829 253.621 396.178 254.085 396.688C254.55 397.199 254.838 397.845 254.909 398.531C254.98 399.217 254.829 399.907 254.479 400.502C254.129 401.096 253.598 401.564 252.962 401.835L239.714 407.504L235.409 403.774L236.539 408.863L231.544 411L225.729 393.591Z" fill="#2F2E41"/>
<path d="M236.343 361.373L247.089 355.758L249.216 360.481L262.975 363.007C263.654 363.131 264.276 363.47 264.75 363.972C265.223 364.474 265.523 365.115 265.606 365.799C265.689 366.484 265.55 367.177 265.211 367.778C264.871 368.379 264.348 368.855 263.718 369.138L250.571 375.038L246.201 371.384L247.421 376.453L242.464 378.677L236.343 361.373Z" fill="#2F2E41"/>
<path d="M137.416 185.085C133.373 185.092 129.428 183.849 126.121 181.528L126.01 181.451V181.317C126.015 177.413 127.57 173.671 130.335 170.911C133.1 168.151 136.849 166.599 140.759 166.594H146.969C150.879 166.599 154.628 168.151 157.393 170.911C160.158 173.671 161.713 177.413 161.718 181.317C161.714 182.21 161.36 183.066 160.733 183.704C160.106 184.341 159.254 184.708 158.359 184.728L137.765 185.082C137.648 185.084 137.532 185.085 137.416 185.085Z" fill="#2F2E41"/>
<path d="M162.753 178.489C164.733 177.348 165.064 174.22 163.492 171.502C161.92 168.784 159.04 167.506 157.06 168.647C155.08 169.788 154.749 172.917 156.321 175.635C157.893 178.352 160.773 179.63 162.753 178.489Z" fill="#2F2E41"/>
<path d="M131.784 175.457C134.007 173.238 134.499 170.131 132.882 168.517C131.265 166.903 128.152 167.394 125.929 169.613C123.706 171.832 123.215 174.939 124.831 176.553C126.448 178.167 129.561 177.676 131.784 175.457Z" fill="#2F2E41"/>
<path d="M267.203 315.109H251.931C251.586 315.108 251.246 315.183 250.933 315.327C250.62 315.471 250.343 315.682 250.12 315.945C249.557 315.841 248.977 315.873 248.428 316.036C247.879 316.2 247.377 316.491 246.963 316.886C246.549 317.281 246.235 317.769 246.046 318.308C245.857 318.848 245.799 319.425 245.877 319.991C245.955 320.558 246.166 321.098 246.493 321.567C246.821 322.036 247.255 322.421 247.76 322.69C248.266 322.959 248.828 323.105 249.4 323.115C249.973 323.126 250.54 323 251.055 322.749L252.321 326.858C252.471 327.345 252.774 327.771 253.184 328.074C253.595 328.377 254.092 328.54 254.602 328.54H264.532C265.042 328.54 265.539 328.377 265.95 328.074C266.36 327.771 266.663 327.345 266.813 326.858L269.484 318.192C269.594 317.835 269.619 317.458 269.556 317.091C269.493 316.723 269.345 316.376 269.123 316.076C268.901 315.776 268.612 315.532 268.278 315.364C267.945 315.197 267.577 315.109 267.203 315.109ZM249.476 322.083C248.79 322.083 248.131 321.811 247.646 321.326C247.161 320.842 246.888 320.185 246.888 319.5C246.888 318.815 247.161 318.158 247.646 317.674C248.131 317.189 248.79 316.917 249.476 316.917C249.523 316.917 249.567 316.928 249.614 316.931C249.511 317.347 249.523 317.783 249.65 318.192L250.743 321.738C250.358 321.961 249.921 322.08 249.476 322.083Z" fill="#3F3D56"/>
<path d="M199.005 303.895C197.962 303.992 196.91 303.859 195.924 303.505C194.939 303.152 194.042 302.588 193.299 301.851C192.555 301.115 191.982 300.225 191.621 299.243C191.259 298.262 191.117 297.214 191.206 296.172L140.264 268.922L151.406 261.801L199.467 289.622C201.211 289.886 202.797 290.779 203.925 292.133C205.053 293.486 205.644 295.205 205.587 296.964C205.53 298.724 204.828 300.401 203.615 301.678C202.402 302.956 200.761 303.745 199.005 303.895Z" fill="#FFB6B6"/>
<path d="M132.315 218.844C132.315 218.844 123.224 217.708 120.891 227.915C118.558 238.123 134.551 266.579 136.991 271.242C139.431 275.906 172.69 286.105 172.69 286.105L185.496 279.428L156.821 261.287L132.315 218.844Z" fill="#9E77ED"/>
<path d="M196.39 176.668H199.495C201.005 176.668 202.453 177.266 203.52 178.332C204.588 179.398 205.187 180.843 205.187 182.35H190.698C190.698 180.843 191.297 179.398 192.365 178.332C193.432 177.266 194.88 176.668 196.39 176.668Z" fill="#CCCCCC"/>
<path d="M97.9319 70.6493C114.921 70.6493 128.693 56.9018 128.693 39.9433C128.693 22.9849 114.921 9.2373 97.9319 9.2373C80.9431 9.2373 67.1709 22.9849 67.1709 39.9433C67.1709 56.9018 80.9431 70.6493 97.9319 70.6493Z" fill="#FF6584"/>
<path d="M192.115 38.3431C183.974 29.8183 174.519 22.0416 163.326 17.932C160.209 16.7824 156.976 15.9715 153.684 15.5133C153.658 15.5097 153.633 15.515 153.606 15.5129C153.553 15.4991 153.498 15.4885 153.444 15.481C148.84 14.8955 144.167 15.1772 139.667 16.3113C137.466 16.8625 135.319 17.609 133.252 18.5419C131.177 19.5522 129.167 20.6894 127.233 21.947C123.139 24.3934 118.631 26.0721 113.932 26.9002C111.573 27.3241 109.184 27.5581 106.788 27.6001C104.709 27.6417 102.748 27.7138 100.778 28.4636C98.674 29.2535 96.7838 30.5234 95.2585 32.172C93.7333 33.8206 92.6151 35.8022 91.9933 37.9587C91.9454 38.1508 91.9598 38.3531 92.0346 38.5364C92.1093 38.7197 92.2404 38.8746 92.4091 38.9786C92.942 39.3596 93.4614 39.7918 94.0213 40.1312C94.5194 40.3588 95.0513 40.5036 95.5961 40.56C96.4862 40.7475 97.3775 40.9295 98.2699 41.106C101.557 41.7562 104.859 42.3318 108.173 42.8327C114.881 43.8463 121.625 44.5603 128.405 44.9747C141.987 45.7959 155.616 45.387 169.124 43.753C176.716 42.8352 184.256 41.5333 191.715 39.8525C191.866 39.8085 192.003 39.7262 192.113 39.6137C192.223 39.5012 192.302 39.3622 192.342 39.2104C192.382 39.0585 192.382 38.8988 192.343 38.7469C192.303 38.5949 192.224 38.4558 192.115 38.3431Z" fill="#E6E6E6"/>
<path d="M99.3918 58.8734C96.2741 57.7238 93.0413 56.9129 89.7496 56.4547C89.7231 56.4511 89.698 56.4564 89.6717 56.4543C89.6182 56.4405 89.5638 56.4299 89.5091 56.4224C84.9051 55.8369 80.2321 56.1186 75.7322 57.2527C73.5316 57.8039 71.3848 58.5504 69.3175 59.4833C67.2428 60.4936 65.2326 61.6308 63.2983 62.8884C59.2041 65.3348 54.6964 67.0135 49.9973 67.8416C47.6387 68.2655 45.2497 68.4995 42.8535 68.5415C40.7744 68.5831 38.8136 68.6552 36.8437 69.405C34.7394 70.1949 32.8493 71.4648 31.324 73.1134C29.7987 74.7619 28.6806 76.7436 28.0588 78.9001C28.0108 79.0921 28.0253 79.2944 28.1 79.4777C28.1747 79.6611 28.3059 79.8159 28.4745 79.92C29.0074 80.301 29.5269 80.7332 30.0867 81.0726C30.5848 81.3002 31.1167 81.445 31.6616 81.5014C32.5517 81.6888 33.4429 81.8709 34.3353 82.0474C37.6228 82.6976 40.924 83.2732 44.2389 83.7741C50.9464 84.7877 57.6901 85.5016 64.4701 85.916C78.0523 86.7373 91.6811 86.3284 105.189 84.6944C112.781 83.7765 120.321 82.4747 127.781 80.7939C127.932 80.7498 128.069 80.6675 128.179 80.555C128.288 80.4425 128.367 80.3036 128.407 80.1517C128.448 79.9998 128.448 79.8402 128.408 79.6882C128.368 79.5363 128.29 79.3972 128.18 79.2844C120.039 70.7597 110.584 62.983 99.3918 58.8734Z" fill="#E6E6E6"/>
<path d="M321.222 287.782L297.566 256.761L278.901 267.296L318.454 314.181L321.222 287.782Z" fill="#3F3D56"/>
<path d="M375.713 237.355C376.238 250.355 378.256 263.252 381.726 275.793C380.981 277.544 380.212 279.283 379.418 281.01C376.416 287.551 373.054 293.921 369.348 300.092C358.954 317.422 345.981 333.072 330.872 346.506C329.237 347.958 327.579 349.385 325.899 350.789C316.32 337.606 311.15 323.059 309.106 308.089C308.847 306.188 308.635 304.266 308.475 302.355V302.344C308.082 297.699 307.956 293.036 308.097 288.376C308.102 288.004 308.112 287.627 308.128 287.25C308.309 282.271 308.759 277.28 309.437 272.337V272.332C309.515 271.763 309.592 271.195 309.68 270.627C309.929 268.922 310.208 267.218 310.513 265.523C312.29 255.751 314.77 246.12 317.934 236.704V236.699C318.022 236.425 318.11 236.156 318.209 235.888C318.55 234.865 318.897 233.852 319.254 232.84C319.276 232.76 319.304 232.683 319.337 232.607C319.797 231.285 320.268 229.973 320.75 228.671C320.879 228.309 321.014 227.948 321.153 227.586C321.697 226.135 322.25 224.693 322.814 223.273C322.99 222.818 323.171 222.364 323.353 221.914C323.492 221.568 323.627 221.222 323.772 220.881V220.876C324.595 218.846 325.428 216.855 326.271 214.904C328.636 209.418 331.068 204.258 333.439 199.5L333.444 199.495C343.281 179.798 352.224 167.008 352.224 167.008L385.804 177.856C381.799 184.948 378.699 195.409 377.001 207.75C375.694 217.559 375.262 227.464 375.713 237.349L375.713 237.355Z" fill="#3F3D56"/>
<path d="M319.901 234.198C319.704 233.739 319.482 233.289 319.254 232.84C318.073 230.558 316.554 228.468 314.747 226.641C314.477 226.367 314.198 226.093 313.908 225.835C310.791 222.969 307.001 220.934 302.887 219.917C298.773 218.9 294.469 218.935 290.373 220.018L290.352 220.029L290.197 220.07L290.233 220.246C290.388 221.064 290.613 221.868 290.906 222.648C290.983 222.86 291.071 223.061 291.159 223.262C291.195 223.355 291.242 223.438 291.283 223.531C291.283 223.531 291.278 223.536 291.288 223.536C291.288 223.541 291.294 223.547 291.294 223.552C291.392 223.743 291.485 223.939 291.589 224.125C291.376 223.924 291.175 223.717 290.978 223.505C290.786 223.309 290.611 223.102 290.435 222.896C289.831 222.194 289.286 221.444 288.804 220.654L288.722 220.514L288.577 220.571C286.624 221.247 284.761 222.157 283.029 223.283L282.843 223.407C281.521 224.274 280.031 224.853 278.47 225.108C276.909 225.362 275.311 225.286 273.782 224.885C271.37 224.264 268.855 224.15 266.397 224.552C263.939 224.953 261.592 225.859 259.504 227.214C258.121 228.114 256.87 229.203 255.788 230.448C255.695 230.557 255.602 230.67 255.509 230.779C255.312 231.016 255.126 231.259 254.945 231.507C252.999 234.102 251.805 237.181 251.493 240.408L251.483 240.526L251.581 240.594C253.332 241.792 255.312 242.615 257.398 243.011C256.088 243.194 254.761 243.227 253.444 243.109H253.439C252.841 243.06 252.247 242.977 251.659 242.861L251.55 242.841H251.545L251.41 242.815L251.431 243.063C251.585 246.219 252.58 249.277 254.313 251.922L254.365 251.994C254.384 252.021 254.401 252.048 254.417 252.077C255.151 253.198 255.762 254.395 256.238 255.646C257.448 258.757 257.715 262.154 257.004 265.415C256.2 268.902 256.468 272.551 257.771 275.884C259.074 279.218 261.353 282.082 264.311 284.104C266.91 285.889 269.937 286.95 273.083 287.178C273.512 287.214 273.947 287.235 274.382 287.235C276.87 287.242 279.333 286.73 281.611 285.732L281.694 285.701L281.715 285.608C282.153 284.196 282.768 282.846 283.547 281.589C283.292 282.579 283.163 283.598 283.164 284.621V284.962L283.459 284.791C283.712 284.642 283.971 284.481 284.204 284.332C285.602 283.421 286.868 282.322 287.966 281.067C288.396 280.571 288.83 280.091 289.286 279.61L289.291 279.605C290.176 278.665 291.112 277.745 292.085 276.867C294.155 275.012 296.37 273.324 298.709 271.82C301.047 270.322 303.491 268.996 306.022 267.853H306.027C306.311 267.719 306.601 267.59 306.886 267.466C308.146 266.918 309.359 266.268 310.513 265.523C310.555 265.497 310.591 265.477 310.627 265.451C315.63 262.181 319.308 257.246 321.006 251.522C322.704 245.799 322.313 239.66 319.901 234.198Z" fill="#9E77ED"/>
<path opacity="0.15" d="M257.857 272.749C257.716 273.377 257.609 274.013 257.537 274.652C256.573 271.613 256.434 268.373 257.132 265.263C257.24 264.787 257.32 264.305 257.384 263.821C258.34 266.701 258.503 269.785 257.857 272.749Z" fill="black"/>
<path opacity="0.15" d="M258.248 250.341C256.716 250.554 255.161 250.561 253.626 250.363C253.224 249.607 252.877 248.822 252.588 248.016C254.297 249.167 256.223 249.958 258.248 250.341Z" fill="black"/>
<path opacity="0.15" d="M253.503 242.943C252.937 244.388 252.561 245.899 252.385 247.44C251.913 245.973 251.634 244.45 251.556 242.91L251.543 242.662L251.787 242.71C252.355 242.816 252.928 242.894 253.503 242.943Z" fill="black"/>
<path opacity="0.15" d="M259.637 227.061C261.723 225.704 264.069 224.796 266.526 224.394C268.983 223.993 271.497 224.106 273.907 224.728C275.437 225.132 277.036 225.209 278.598 224.955C280.16 224.701 281.651 224.121 282.973 223.253L283.16 223.13C284.89 222.002 286.752 221.089 288.705 220.412L288.854 220.36L288.935 220.495C289.707 221.769 290.643 222.937 291.717 223.969C291.065 222.755 290.607 221.445 290.363 220.089L290.327 219.91L290.504 219.864C294.346 218.849 298.374 218.755 302.26 219.589C306.146 220.424 309.778 222.164 312.862 224.667C315.946 227.171 318.393 230.366 320.004 233.993C321.615 237.62 322.344 241.576 322.131 245.537C321.316 242.308 319.867 239.271 317.868 236.604C315.869 233.938 313.36 231.693 310.485 230.002C307.611 228.31 304.429 227.204 301.123 226.749C297.818 226.294 294.455 226.498 291.229 227.35L291.053 227.397L291.088 227.576C291.332 228.932 291.79 230.241 292.443 231.455C291.368 230.423 290.433 229.255 289.661 227.981L289.579 227.847L289.43 227.898C287.478 228.575 285.616 229.488 283.885 230.617L283.699 230.74C282.376 231.608 280.885 232.188 279.323 232.442C277.761 232.696 276.162 232.619 274.632 232.215C270.626 231.177 266.383 231.559 262.628 233.294C258.872 235.03 255.835 238.013 254.036 241.733C253.235 241.349 252.459 240.916 251.711 240.437L251.609 240.372L251.621 240.253C251.879 237.595 252.733 235.028 254.121 232.744C255.509 230.46 257.394 228.517 259.637 227.061Z" fill="black"/>
<path d="M452.023 95.07L451.532 94.7445L451.175 95.2094C448.411 98.6826 446.212 102.568 444.659 106.724C444.874 101.937 445.712 97.1975 447.154 92.6266L447.309 92.1462L446.864 91.893C441.074 88.6202 434.904 86.0666 428.493 84.2891L427.794 84.1031C422.88 82.7573 418.306 80.3926 414.369 77.1634C410.432 73.9342 407.222 69.913 404.947 65.3619C399.659 54.9171 391.307 46.3302 381.004 40.7471C370.701 35.164 358.937 32.8502 347.282 34.1145H347.277C347.152 34.1248 347.023 34.1403 346.899 34.1558C346.687 34.1764 346.48 34.2023 346.273 34.2281C345.848 34.2849 345.434 34.3417 345.02 34.4037C344.668 34.4554 344.311 34.5122 343.959 34.5742C343.773 34.6 343.592 34.631 343.411 34.6672C343.23 34.6982 343.044 34.7292 342.862 34.7653H342.857C339.383 35.4214 335.977 36.3985 332.683 37.684H332.678V37.6891L331.845 38.0146C330.986 38.3658 330.134 38.7378 329.288 39.1303C329.097 39.2182 328.911 39.3111 328.719 39.399C328.667 39.4248 328.611 39.4506 328.559 39.4816C328.015 39.7399 327.477 40.0085 326.944 40.2926C326.867 40.3288 326.789 40.3701 326.711 40.4114L326.215 40.6749C325.123 41.2638 324.05 41.8888 322.996 42.5501C322.908 42.6017 322.825 42.6534 322.737 42.7102C322.644 42.7722 322.546 42.8342 322.452 42.8962C322.395 42.9271 322.338 42.9685 322.282 43.0046C322.121 43.1028 321.966 43.2061 321.811 43.3146C321.5 43.516 321.19 43.7227 320.884 43.9345C320.569 44.1463 320.258 44.3684 319.948 44.5905L319.637 44.8126L319.694 45.1949C319.746 45.51 319.792 45.8251 319.849 46.1351C319.901 46.445 319.953 46.7498 320.01 47.0546C320.098 47.566 320.196 48.0722 320.294 48.563C320.362 48.8884 320.424 49.2087 320.496 49.5238C320.564 49.8492 320.636 50.1747 320.714 50.5001C320.864 51.1716 321.024 51.8225 321.195 52.4631C321.278 52.7833 321.366 53.1036 321.459 53.4187C321.511 53.6099 321.562 53.801 321.619 53.987C321.661 54.1161 321.702 54.2452 321.743 54.3744C321.754 54.4157 321.764 54.4622 321.78 54.5087C321.791 54.5525 321.805 54.5956 321.821 54.6378C321.878 54.829 321.935 55.015 321.992 55.1957C322.023 55.2939 322.054 55.392 322.09 55.485C322.163 55.7071 322.24 55.9344 322.318 56.1514C322.401 56.3994 322.489 56.6473 322.577 56.8901C322.597 56.9521 322.618 57.0089 322.639 57.0709C322.654 57.1174 322.67 57.1639 322.69 57.2104C322.711 57.262 322.732 57.3189 322.753 57.3705C322.84 57.603 322.928 57.8406 323.022 58.073C323.053 58.1557 323.084 58.2435 323.12 58.3262C323.959 60.4306 324.99 62.4537 326.199 64.3701C324.859 63.2233 323.568 62.0076 322.328 60.7231C320.413 58.7369 318.649 56.6114 317.05 54.3641C316.92 54.1884 316.791 54.0076 316.672 53.8268C316.429 53.4807 316.191 53.1346 315.958 52.7833C315.709 52.4217 315.471 52.0447 315.238 51.6727C315.083 51.4248 314.928 51.1716 314.778 50.9237C314.628 50.6861 314.488 50.4536 314.354 50.216L313.95 49.5238H313.945V49.5289L313.376 50.0868C313.148 50.309 312.92 50.5311 312.698 50.7532C305.742 57.7389 300.704 66.3933 298.068 75.8844L297.99 76.1685L297.913 76.463C297.763 76.9899 297.613 77.5013 297.452 78.023V78.0282C297.297 78.5448 297.131 79.0613 296.955 79.5676C296.795 80.048 296.629 80.5232 296.453 80.9985C296.396 81.1586 296.334 81.3188 296.267 81.4789C296.158 81.7888 296.039 82.0936 295.92 82.4036C295.863 82.543 295.806 82.6877 295.75 82.8272C295.61 83.1681 295.47 83.509 295.33 83.8448C295.31 83.8965 295.284 83.9533 295.258 84.0049C295.217 84.1083 295.17 84.2116 295.129 84.3097C295.02 84.5577 294.906 84.8108 294.797 85.0587C294.72 85.2189 294.647 85.3842 294.575 85.5443C294.544 85.6166 294.508 85.689 294.477 85.7613C294.285 86.1745 294.088 86.5826 293.881 86.9856C293.649 87.4608 293.41 87.9361 293.157 88.401C292.934 88.8349 292.701 89.2585 292.458 89.6821C292.039 90.4311 291.599 91.175 291.144 91.8982C290.968 92.1771 290.792 92.4561 290.611 92.735C290.569 92.8022 290.528 92.8694 290.487 92.9313C290.337 93.1741 290.181 93.4066 290.021 93.6442C289.912 93.8043 289.804 93.9645 289.695 94.1194C289.514 94.3984 289.322 94.667 289.126 94.9305C289.074 95.0131 289.017 95.0906 288.96 95.1681C288.67 95.571 288.38 95.9636 288.085 96.3562C288.075 96.3614 288.075 96.3665 288.07 96.3717C288.06 96.3717 288.06 96.3769 288.054 96.382C287.925 96.5525 287.796 96.723 287.661 96.8883C287.485 97.1311 287.294 97.3687 287.102 97.6011C286.792 97.9937 286.466 98.3915 286.134 98.7789C286.124 98.7893 286.119 98.7996 286.109 98.8048C284.394 100.816 282.537 102.701 280.551 104.446C280.514 104.477 280.489 104.508 280.452 104.534C280.173 104.776 279.893 105.019 279.604 105.257C279.485 105.355 279.366 105.453 279.247 105.551C279.05 105.716 278.848 105.882 278.651 106.032C278.628 106.055 278.602 106.076 278.574 106.094C278.398 106.238 278.227 106.373 278.051 106.507C277.839 106.677 277.627 106.837 277.409 106.998C276.385 107.772 275.333 108.504 274.253 109.193C274.092 109.302 273.922 109.41 273.756 109.513C273.658 109.575 273.559 109.637 273.466 109.689C273.073 109.932 272.68 110.169 272.286 110.397C271.893 110.629 271.489 110.851 271.091 111.068C270.237 111.533 269.393 112.019 268.571 112.525C268.157 112.783 267.743 113.041 267.334 113.305C265.709 114.359 264.144 115.487 262.64 116.688C261.136 117.891 259.694 119.169 258.319 120.516C258.148 120.682 257.978 120.852 257.807 121.028C257.465 121.363 257.134 121.704 256.818 122.045C256.311 122.567 255.825 123.104 255.343 123.647C252.806 126.521 250.559 129.639 248.637 132.955C247.671 134.611 246.794 136.316 246.008 138.064C245.413 139.371 244.869 140.709 244.378 142.062C244.052 142.966 243.746 143.879 243.462 144.8C243.322 145.26 243.187 145.725 243.058 146.19C242.618 147.765 242.251 149.356 241.951 150.953C241.707 152.234 241.511 153.517 241.361 154.801C241.283 155.447 241.221 156.093 241.164 156.733C241.031 158.308 240.963 159.883 240.96 161.461C240.951 166.193 241.527 170.909 242.675 175.5C242.929 176.513 243.21 177.52 243.519 178.522C243.674 179.023 243.839 179.519 244.005 180.015C244.424 181.255 244.888 182.483 245.397 183.698C245.702 184.427 246.023 185.15 246.36 185.868C248.497 190.433 251.225 194.698 254.474 198.555C255.007 199.19 255.557 199.815 256.125 200.43C256.13 200.43 256.125 200.435 256.125 200.435C257.533 201.968 259.024 203.424 260.591 204.795H260.596C261.222 205.348 261.859 205.883 262.506 206.402C262.511 206.396 262.511 206.402 262.511 206.402C263.163 206.928 263.82 207.435 264.493 207.925C264.829 208.168 265.171 208.411 265.517 208.654C266.195 209.134 266.887 209.597 267.593 210.043H267.598C268.302 210.498 269.016 210.932 269.74 211.345C271.194 212.177 272.685 212.957 274.217 213.665L274.475 213.783L274.739 213.665C277.195 212.561 279.727 211.634 282.315 210.891C282.885 210.725 283.459 210.575 284.028 210.431C285.467 210.074 286.916 209.775 288.375 209.532C286.953 210.244 285.581 211.05 284.266 211.944C283.247 212.631 282.243 213.38 281.234 214.207C280.897 214.481 280.561 214.765 280.225 215.054L279.386 215.777L280.437 216.123C280.82 216.247 281.203 216.371 281.586 216.485C282.108 216.65 282.626 216.8 283.133 216.94C284.24 217.25 285.355 217.523 286.476 217.761C286.75 217.818 287.019 217.875 287.294 217.931C287.827 218.035 288.365 218.138 288.903 218.231C288.925 218.237 288.948 218.24 288.97 218.241C289.529 218.334 290.093 218.422 290.652 218.5C291.692 218.649 292.733 218.768 293.773 218.856C293.887 218.872 294 218.877 294.119 218.882C294.373 218.903 294.621 218.923 294.875 218.939C295.434 218.975 295.998 219.001 296.562 219.021C296.603 219.021 296.64 219.027 296.681 219.027C296.966 219.037 297.25 219.047 297.535 219.052C297.535 219.052 297.535 219.058 297.54 219.052C297.825 219.058 298.109 219.063 298.394 219.063H299.967C300.262 219.063 300.557 219.068 300.857 219.068C301.271 219.068 301.69 219.073 302.104 219.078C302.213 219.078 302.327 219.083 302.441 219.083C303.103 219.094 303.766 219.109 304.428 219.125C304.469 219.125 304.511 219.13 304.552 219.13C305.215 219.151 305.877 219.171 306.539 219.202C306.684 219.207 306.829 219.213 306.979 219.223C307.616 219.249 308.252 219.28 308.889 219.316C309.07 219.326 309.256 219.342 309.443 219.352C309.924 219.378 310.41 219.409 310.892 219.445C311.176 219.46 311.456 219.481 311.74 219.507C312.889 219.595 314.033 219.693 315.182 219.807C315.565 219.838 315.947 219.879 316.33 219.92C317.355 220.029 318.383 220.148 319.415 220.277C319.875 220.328 320.336 220.39 320.796 220.452C320.848 220.457 320.9 220.463 320.952 220.473C321.521 220.55 322.085 220.628 322.654 220.711C323.027 220.762 323.399 220.819 323.772 220.876C324.155 220.933 324.538 220.99 324.921 221.057C325.128 221.088 325.335 221.124 325.547 221.16C326.044 221.237 326.546 221.32 327.048 221.413C327.093 221.418 327.138 221.424 327.182 221.434C328.248 221.62 329.32 221.816 330.386 222.028C331.012 222.147 331.633 222.271 332.254 222.4C332.74 222.498 333.227 222.601 333.713 222.705C333.796 222.72 333.879 222.741 333.962 222.761C333.98 222.767 333.999 222.77 334.018 222.772C334.753 222.932 335.493 223.097 336.228 223.273C338.779 223.862 341.327 224.516 343.872 225.236C344.456 225.396 345.041 225.566 345.626 225.737C345.874 225.809 346.118 225.881 346.361 225.954C346.868 226.104 347.37 226.253 347.877 226.414C348.322 226.548 348.772 226.687 349.217 226.832C349.497 226.92 349.776 227.008 350.056 227.101C350.49 227.235 350.925 227.374 351.355 227.524C351.722 227.638 352.084 227.757 352.447 227.886C352.964 228.056 353.487 228.232 354.004 228.418C354.154 228.47 354.31 228.521 354.46 228.578C355.091 228.795 355.722 229.017 356.354 229.25C356.969 229.472 357.585 229.699 358.196 229.926C358.62 230.086 359.045 230.241 359.464 230.407C359.935 230.587 360.406 230.768 360.871 230.954C361.544 231.218 362.222 231.486 362.895 231.76C363.516 232.008 364.132 232.261 364.753 232.525C364.866 232.571 364.985 232.618 365.099 232.669C365.638 232.891 366.176 233.124 366.709 233.356C367.055 233.501 367.397 233.651 367.739 233.801C369.229 234.451 370.718 235.125 372.205 235.82H372.21C373.141 236.259 374.088 236.678 375.04 237.076C375.263 237.169 375.486 237.262 375.713 237.349C376.091 237.51 376.474 237.659 376.857 237.814C377.105 237.912 377.354 238.011 377.607 238.104C377.975 238.248 378.347 238.388 378.72 238.522C379.113 238.667 379.501 238.811 379.9 238.946C380.039 238.997 380.179 239.044 380.324 239.095C380.785 239.25 381.245 239.405 381.711 239.555C381.758 239.571 381.804 239.586 381.856 239.602C382.342 239.757 382.829 239.912 383.32 240.056C383.359 240.071 383.399 240.083 383.439 240.092C383.967 240.253 384.505 240.408 385.038 240.557C385.825 240.774 386.617 240.981 387.409 241.172C387.554 241.208 387.698 241.244 387.843 241.275C388.268 241.379 388.687 241.477 389.111 241.57C389.561 241.673 390.017 241.766 390.467 241.859C390.922 241.952 391.378 242.045 391.828 242.128C392.071 242.174 392.314 242.221 392.553 242.262L393.189 242.37C393.629 242.448 394.069 242.515 394.514 242.587C394.526 242.587 394.538 242.589 394.55 242.593C395.052 242.67 395.549 242.742 396.051 242.804C396.532 242.872 397.013 242.928 397.495 242.985C397.593 242.996 397.696 243.006 397.8 243.016C398.198 243.063 398.597 243.109 398.995 243.145C399.109 243.156 399.223 243.166 399.337 243.176C399.73 243.213 400.124 243.249 400.517 243.275C400.596 243.285 400.675 243.29 400.755 243.29C401.107 243.321 401.459 243.347 401.811 243.362C402.059 243.383 402.302 243.393 402.551 243.409C402.68 243.414 402.804 243.419 402.934 243.424C403.275 243.445 403.617 243.455 403.963 243.466C404.383 243.481 404.802 243.491 405.216 243.502C405.718 243.512 406.225 243.517 406.727 243.517H406.737C407.229 243.517 407.726 243.512 408.217 243.502H408.404L408.947 243.486C409.226 243.481 409.506 243.471 409.78 243.46C410.308 243.44 410.831 243.414 411.353 243.383C411.56 243.373 411.772 243.357 411.979 243.347C412.073 243.342 412.171 243.331 412.264 243.326C412.59 243.305 412.911 243.285 413.237 243.259C413.573 243.233 413.915 243.202 414.251 243.166C414.686 243.125 415.121 243.078 415.555 243.032C415.897 242.996 416.238 242.954 416.575 242.913C416.62 242.909 416.665 242.902 416.709 242.892C417.035 242.856 417.361 242.815 417.682 242.768C418.065 242.717 418.443 242.66 418.821 242.603C418.862 242.598 418.898 242.593 418.94 242.587C419.592 242.484 420.249 242.381 420.906 242.262C421.595 242.138 422.283 242.004 422.966 241.864C423.22 241.813 423.468 241.756 423.721 241.704C423.861 241.673 424.006 241.647 424.141 241.616C424.353 241.57 424.56 241.523 424.767 241.472C424.803 241.467 424.844 241.456 424.881 241.451C425.17 241.389 425.455 241.317 425.745 241.244C426.324 241.105 426.894 240.96 427.463 240.805C427.717 240.743 427.97 240.676 428.213 240.609C428.286 240.588 428.358 240.568 428.425 240.547C429.476 240.253 430.518 239.941 431.551 239.612C432.007 239.467 432.457 239.318 432.907 239.157C433.875 238.827 434.834 238.479 435.784 238.114C436.038 238.021 436.292 237.918 436.545 237.82C436.918 237.67 437.29 237.52 437.658 237.37C437.989 237.231 438.32 237.091 438.656 236.947C438.822 236.879 438.988 236.807 439.153 236.735C439.65 236.518 440.147 236.296 440.638 236.074C440.97 235.919 441.296 235.769 441.622 235.614C442.139 235.366 442.652 235.113 443.164 234.86C443.293 234.792 443.417 234.725 443.542 234.663C443.868 234.498 444.194 234.327 444.525 234.162C445.048 233.883 445.57 233.604 446.088 233.315C446.264 233.222 446.434 233.124 446.61 233.026C447.18 232.705 447.744 232.38 448.303 232.049C449.539 231.311 450.759 230.539 451.961 229.735C452.261 229.539 452.562 229.332 452.857 229.131C453.415 228.749 453.964 228.356 454.513 227.963C454.569 227.922 454.621 227.881 454.678 227.845C454.952 227.643 455.227 227.442 455.501 227.235C456.07 226.806 456.634 226.372 457.198 225.928C457.209 225.923 457.224 225.907 457.24 225.897C457.493 225.696 457.747 225.494 457.995 225.293C458.766 224.668 459.527 224.032 460.272 223.376C460.64 223.061 461.002 222.736 461.359 222.41C461.628 222.167 461.897 221.925 462.161 221.677C462.694 221.176 463.217 220.68 463.734 220.173C463.993 219.925 464.247 219.667 464.505 219.409C464.759 219.151 465.018 218.892 465.271 218.629C465.359 218.541 465.447 218.448 465.535 218.355C465.794 218.081 466.053 217.802 466.311 217.529C466.534 217.291 466.751 217.043 466.974 216.795C467.346 216.382 467.724 215.969 468.092 215.55C468.111 215.527 468.132 215.504 468.154 215.483C468.174 215.457 468.195 215.436 468.211 215.416H468.205C475.728 206.733 481.316 196.555 484.603 185.554C487.889 174.554 488.797 162.982 487.267 151.605C485.737 140.228 481.804 129.305 475.729 119.559C469.653 109.813 461.573 101.465 452.023 95.07Z" fill="#9E77ED"/>
<g opacity="0.15">
<path d="M347.278 34.1104C348.309 37.8092 349.861 41.3433 351.887 44.607C348.495 41.6985 345.465 38.3949 342.861 34.7667C344.324 34.4905 345.796 34.2717 347.278 34.1104Z" fill="black"/>
<path d="M296.782 91.3141C292.951 93.4007 289.37 95.9135 286.106 98.8045C291.617 92.2997 295.645 84.6764 297.91 76.463C297.937 76.3644 297.965 76.265 297.992 76.1662L298.069 75.8867C300.791 66.084 306.072 57.1788 313.373 50.0821L313.947 49.5238L314.352 50.2137C316.59 54.0125 319.268 57.535 322.331 60.7087C317.638 73.9298 308.504 84.9334 296.782 91.3141Z" fill="black"/>
<path d="M323.758 56.1276L323.681 56.4072C323.654 56.506 323.627 56.6054 323.599 56.704C323.448 57.2476 323.287 57.7871 323.121 58.3243C321.484 54.0916 320.335 49.6869 319.695 45.195L319.635 44.8138L319.948 44.5899C323.886 41.7653 328.163 39.4444 332.679 37.6815C328.625 43.2483 325.603 49.4959 323.758 56.1276Z" fill="black"/>
<path d="M271.092 111.073C274.482 109.221 277.655 106.998 280.551 104.445C274.765 111.17 270.617 119.141 268.433 127.734C266.249 136.327 266.088 145.308 267.962 153.973C269.837 162.639 273.696 170.753 279.237 177.681C284.779 184.608 291.852 190.161 299.903 193.903L300.165 194.024L300.426 193.906C304.774 191.945 309.359 190.555 314.066 189.772C311.128 191.265 308.39 193.121 305.915 195.296L305.078 196.018L306.128 196.364C307.035 196.664 307.942 196.939 308.823 197.183C314.002 198.623 319.356 199.338 324.732 199.308C349.159 199.152 373.775 204.789 397.897 216.062C402.034 217.993 406.325 219.576 410.725 220.795C429.901 226.125 450.372 224.207 468.22 215.411C458.157 227.028 445 235.557 430.275 240.007C415.551 244.458 399.864 244.647 385.036 240.554C380.635 239.335 376.345 237.752 372.208 235.821C348.086 224.548 323.47 218.911 299.043 219.067C293.667 219.097 288.313 218.382 283.134 216.942C282.252 216.698 281.345 216.422 280.439 216.123L279.389 215.777L280.226 215.054C282.701 212.88 285.439 211.024 288.377 209.531C283.67 210.314 279.085 211.704 274.737 213.665L274.476 213.783L274.214 213.662C264.546 209.17 256.318 202.085 250.45 193.197C244.581 184.309 241.302 173.968 240.978 163.328C240.654 152.688 243.299 142.167 248.616 132.94C253.934 123.713 261.715 116.142 271.092 111.073Z" fill="black"/>
</g>
</g>
<defs>
<clipPath id="clip0_203_11346">
<rect width="488" height="411" fill="white"/>
</clipPath>
</defs>
</svg>
