<svg width="32" height="32" viewBox="0 0 32 32" fill="none" xmlns="http://www.w3.org/2000/svg">
<g clip-path="url(#clip0_31_144)">
<path d="M197 -42.749H213C213.638 -42.749 214.206 -42.45 214.572 -41.985C214.714 -41.995 214.856 -42 215 -42H216.8C216.536 -42.7997 216.027 -43.4959 215.345 -43.9895C214.663 -44.483 213.842 -44.7488 213 -44.749H197C195.939 -44.749 194.922 -44.3276 194.172 -43.5774C193.421 -42.8273 193 -41.8099 193 -40.749V-31.749C193 -30.6881 193.421 -29.6707 194.172 -28.9206C194.922 -28.1704 195.939 -27.749 197 -27.749H204V-25.296H200C199.735 -25.296 199.48 -25.1906 199.293 -25.0031C199.105 -24.8156 199 -24.5612 199 -24.296C199 -24.0308 199.105 -23.7764 199.293 -23.5889C199.48 -23.4014 199.735 -23.296 200 -23.296H209V-25.296H206V-27.749H209V-30.749H197C196.47 -30.749 195.961 -30.9597 195.586 -31.3348C195.211 -31.7099 195 -32.2186 195 -32.749V-40.749C195 -41.2794 195.211 -41.7881 195.586 -42.1632C195.961 -42.5383 196.47 -42.749 197 -42.749ZM247.273 -22.611C246.271 -22.6125 245.281 -22.8283 244.37 -23.2439C243.458 -23.6596 242.646 -24.2654 241.988 -25.0208C241.33 -25.7762 240.842 -26.6637 240.555 -27.6236C240.268 -28.5835 240.19 -29.5936 240.326 -30.5861C240.462 -31.5786 240.809 -32.5306 241.343 -33.378C241.878 -34.2254 242.587 -34.9487 243.424 -35.4993C244.261 -36.0499 245.206 -36.4151 246.196 -36.5702C247.185 -36.7254 248.197 -36.667 249.162 -36.399C249.961 -37.9061 251.156 -39.1671 252.618 -40.0462C254.079 -40.9254 255.753 -41.3896 257.459 -41.389C259.69 -41.3892 261.849 -40.5947 263.548 -39.148C265.247 -37.7013 266.375 -35.6969 266.73 -33.494C268.134 -33.3829 269.44 -32.7327 270.375 -31.6798C271.31 -30.6269 271.801 -29.2529 271.746 -27.8458C271.69 -26.4388 271.092 -25.1079 270.077 -24.132C269.062 -23.1561 267.708 -22.611 266.3 -22.611H247.273ZM-116.5 16.007C-116.5 9.65599 -121.649 4.50699 -128 4.50699C-134.351 4.50699 -139.5 9.65599 -139.5 16.007C-139.5 21.4 -135.787 25.925 -130.778 27.168V19.521H-133.15V16.007H-130.78V14.493C-130.78 10.578 -129.008 8.76401 -125.165 8.76401C-124.436 8.76401 -123.179 8.90699 -122.665 9.04999V12.235C-123.107 12.2015 -123.55 12.1874 -123.993 12.193C-125.879 12.193 -126.608 12.907 -126.608 14.764V16.007H-122.852L-123.497 19.521H-126.607V27.423C-120.914 26.735 -116.5 21.886 -116.5 16.007Z" fill="#EDEDED"/>
<path d="M-75.469 10.145C-75.469 9.79053 -75.3282 9.45059 -75.0775 9.19995C-74.8269 8.94931 -74.487 8.8085 -74.1325 8.8085C-73.778 8.8085 -73.4381 8.94931 -73.1874 9.19995C-72.9368 9.45059 -72.796 9.79053 -72.796 10.145C-72.796 10.4995 -72.9368 10.8394 -73.1874 11.0901C-73.4381 11.3407 -73.778 11.4815 -74.1325 11.4815C-74.487 11.4815 -74.8269 11.3407 -75.0775 11.0901C-75.3282 10.8394 -75.469 10.4995 -75.469 10.145ZM-37.278 7.741C-37.278 6.429 -38.364 5.54901 -39.639 5.54901C-40.914 5.54901 -41.989 6.486 -42 7.741C-41.989 8.995 -40.914 9.93301 -39.639 9.93301C-38.364 9.93301 -37.278 8.984 -37.278 7.741ZM-41.763 11.855H-37.602V24.486H-41.763V11.855ZM-26.897 11.333C-24.098 11.333 -22 13.173 -22 17.119V24.486H-26.165V17.648C-26.165 15.894 -26.667 14.754 -28.241 14.754C-29.531 14.756 -30.325 16.17 -30.325 17.384V24.487L-34.482 24.486V11.855H-30.744V13.437C-30.3526 12.7716 -29.7882 12.2245 -29.1109 11.8541C-28.4335 11.4836 -27.6685 11.3036 -26.897 11.333ZM21.726 7H24.78L18.109 14.625L25.957 25H19.812L14.999 18.707L9.49201 25H6.437L13.572 16.845L6.04301 7H12.344L16.695 12.752L21.726 7ZM20.655 23.172H22.347L11.425 8.73199H9.609L20.655 23.172Z" fill="#EDEDED"/>
</g>
<defs>
<clipPath id="clip0_31_144">
<rect width="32" height="32" fill="white"/>
</clipPath>
</defs>
</svg>
